<svg width="1707" height="276" viewBox="0 0 1707 276" fill="none" xmlns="http://www.w3.org/2000/svg">
<path d="M92.4648 87.7227C92.4648 89.7083 93.1647 91.0755 94.5645 91.8242C95.1829 92.1497 95.8665 92.4102 96.6152 92.6055C97.3639 92.7682 98.0964 93.0286 98.8125 93.3867V97H69.3203V93.3867C70.1992 93.0286 71.0456 92.7682 71.8594 92.6055C72.7057 92.4102 73.4544 92.1497 74.1055 91.8242C75.5378 91.1081 76.2539 89.7409 76.2539 87.7227V39.3828C76.2539 36.681 75.9935 34.972 75.4727 34.2559C74.9844 33.5072 74.5124 33.0514 74.0566 32.8887C73.6335 32.6934 73.1615 32.5469 72.6406 32.4492C71.013 32.0586 69.9062 31.668 69.3203 31.2773V27.6152H98.8125V31.2773C98.0964 31.6354 97.3639 31.9121 96.6152 32.1074C95.8665 32.2702 95.1829 32.5143 94.5645 32.8398C93.1647 33.5885 92.4648 34.972 92.4648 36.9902V87.7227ZM114.584 36.9902C114.584 34.9395 113.884 33.556 112.484 32.8398C111.866 32.5469 111.182 32.3027 110.434 32.1074C109.685 31.9121 108.969 31.6354 108.285 31.2773V27.6152H137.777V31.2773C136.898 31.6354 136.036 31.9121 135.189 32.1074C134.376 32.2702 133.627 32.5143 132.943 32.8398C131.511 33.556 130.795 34.9395 130.795 36.9902V85.2812C130.795 87.9831 131.055 89.7083 131.576 90.457C132.097 91.2057 132.569 91.6777 132.992 91.873C133.448 92.0684 133.936 92.2148 134.457 92.3125C135.954 92.6055 137.061 92.9635 137.777 93.3867V97H108.285V93.3867C108.969 93.0286 109.685 92.752 110.434 92.5566C111.182 92.3613 111.866 92.1172 112.484 91.8242C113.884 91.1081 114.584 89.7409 114.584 87.7227V36.9902ZM110.238 63.6016H96.8105V58.084H110.238V63.6016ZM166.537 52.8105C162.598 54.2428 160.629 60.7695 160.629 72.3906C160.629 78.1198 161.068 82.5957 161.947 85.8184C162.859 89.0085 164.389 91.0267 166.537 91.873V97.7324C160.059 97.2116 154.721 94.6074 150.521 89.9199C146.29 85.1999 144.174 79.4056 144.174 72.5371C144.174 65.7988 146.29 59.9883 150.521 55.1055C154.851 50.1901 160.189 47.472 166.537 46.9512V52.8105ZM176.84 72.3906C176.84 60.7695 174.854 54.2428 170.883 52.8105V46.9512C177.328 47.472 182.667 50.1901 186.898 55.1055C191.13 59.9883 193.246 65.7988 193.246 72.5371C193.246 79.4056 191.13 85.1999 186.898 89.9199C182.699 94.6074 177.361 97.2116 170.883 97.7324V91.873C173.031 91.0592 174.561 89.0573 175.473 85.8672C176.384 82.6445 176.84 78.1523 176.84 72.3906ZM220.395 97H212.191L199.691 56.3262C199.073 54.3079 197.673 52.957 195.492 52.2734C194.971 52.1107 194.499 51.8991 194.076 51.6387V47.9277H219.418V51.541C219.027 51.8014 218.539 52.013 217.953 52.1758C217.4 52.3385 216.863 52.5339 216.342 52.7617C215.072 53.25 214.438 53.8848 214.438 54.666C214.438 55.61 214.73 57.1237 215.316 59.207L223.471 88.3086L220.395 97ZM223.324 72.1465L229.232 52.0781H240.219L250.277 88.3086L247.201 97H238.852L230.453 65.75H230.16L225.912 80.9355L223.324 72.1465ZM250.131 72.293L254.77 58.4746C255.193 57.1725 255.404 56.1797 255.404 55.4961C255.404 54.7799 255.209 54.2266 254.818 53.8359C254.428 53.4453 253.939 53.1198 253.354 52.8594C252.8 52.599 252.182 52.3874 251.498 52.2246C250.847 52.0293 250.245 51.8014 249.691 51.541V47.9277H266.879V51.248C266.423 51.6387 265.935 51.9154 265.414 52.0781C264.926 52.2409 264.389 52.5501 263.803 53.0059C262.436 54.1126 261.182 56.3587 260.043 59.7441L252.719 81.1309L250.131 72.293ZM303.793 39.3828C303.793 36.7135 303.533 35.0208 303.012 34.3047C302.523 33.556 302.051 33.084 301.596 32.8887C301.173 32.6934 300.701 32.5306 300.18 32.4004C299.659 32.2702 299.105 32.14 298.52 32.0098C297.966 31.8796 297.396 31.6354 296.811 31.2773V27.6152H326.84V31.2773C326.254 31.6354 325.684 31.8796 325.131 32.0098C324.577 32.14 324.04 32.2702 323.52 32.4004C322.999 32.5306 322.527 32.6934 322.104 32.8887C321.68 33.084 321.306 33.4258 320.98 33.9141C320.297 34.8906 319.955 36.7135 319.955 39.3828V85.2812C319.955 87.9831 320.199 89.7083 320.688 90.457C321.208 91.1732 321.68 91.6289 322.104 91.8242C322.559 92.0195 323.048 92.1823 323.568 92.3125C325.131 92.638 326.221 92.9961 326.84 93.3867V97H296.811V93.3867C297.689 93.0286 298.536 92.7682 299.35 92.6055C300.196 92.4102 300.945 92.1497 301.596 91.8242C303.061 91.1081 303.793 89.7409 303.793 87.7227V39.3828ZM353.207 31.3262V97.7324H352.816C348.031 97.7324 344.467 96.821 342.123 94.998C339.812 93.1751 338.656 90.2129 338.656 86.1113V53.2988H332.162V49.3926C332.65 48.8717 333.269 48.4811 334.018 48.2207C334.799 47.9603 335.58 47.6836 336.361 47.3906C338.282 46.6745 339.503 45.5026 340.023 43.875C341.749 39.1224 343.1 36.0788 344.076 34.7441C345.053 33.377 345.915 32.2702 346.664 31.4238L353.207 31.3262ZM357.553 91.873C360.189 91.873 362.045 91.0267 363.119 89.334C363.575 88.5853 363.933 87.7389 364.193 86.7949C364.454 85.8184 364.747 84.8418 365.072 83.8652L369.027 85.4277C368.214 89.2038 367.204 91.8079 366 93.2402C364.796 94.64 363.542 95.6654 362.24 96.3164C360.971 96.9674 359.408 97.4395 357.553 97.7324V91.873ZM357.553 47.9277H366.342V53.2988H357.553V47.9277ZM430.16 84.3047L426.059 97H418.344L399.789 36.6973C399.138 34.5814 398.21 33.1654 397.006 32.4492C396.485 32.1562 395.98 31.9284 395.492 31.7656C394.971 31.5703 394.499 31.3099 394.076 30.9844V27.6152H422.445V31.082C421.794 31.4076 421.127 31.6842 420.443 31.9121C419.76 32.1074 419.141 32.3516 418.588 32.6445C417.253 33.3281 416.586 34.2884 416.586 35.5254C416.586 36.7298 416.798 38.0319 417.221 39.4316C417.676 40.8314 418.148 42.3613 418.637 44.0215L430.16 84.3047ZM464.828 68.8262L473.324 40.8965C474.04 38.4876 474.398 36.8275 474.398 35.916C474.398 35.0046 474.171 34.3372 473.715 33.9141C473.259 33.4583 472.657 33.1003 471.908 32.8398C471.192 32.5469 470.395 32.2865 469.516 32.0586C468.637 31.8307 467.79 31.5378 466.977 31.1797V27.6152H487.582V31.1797C486.898 31.5703 486.215 31.9121 485.531 32.2051C484.848 32.498 484.18 32.8724 483.529 33.3281C482.13 34.4023 481.007 36.2253 480.16 38.7969L467.562 78.1523L464.828 68.8262ZM465.707 83.9141L461.41 97H453.891L440.316 53.5918H440.121L432.064 78.7383L429.232 68.9727L437.289 44.4121C436.931 43.3053 436.622 42.0846 436.361 40.75C436.101 39.4154 435.727 38.1458 435.238 36.9414C434.099 34.1419 432.162 32.5957 429.428 32.3027C428.809 31.7819 428.5 31.082 428.5 30.2031V27.6152H458.432V31.4238C457.715 31.8145 456.951 32.0911 456.137 32.2539C455.355 32.4167 454.623 32.5957 453.939 32.791C452.377 33.2467 451.596 34.1908 451.596 35.623C451.596 36.209 451.71 36.86 451.938 37.5762C452.165 38.2923 452.361 38.9596 452.523 39.5781L465.707 83.9141ZM506.576 52.8105C502.637 54.2428 500.668 60.7695 500.668 72.3906C500.668 78.1198 501.107 82.5957 501.986 85.8184C502.898 89.0085 504.428 91.0267 506.576 91.873V97.7324C500.098 97.2116 494.76 94.6074 490.561 89.9199C486.329 85.1999 484.213 79.4056 484.213 72.5371C484.213 65.7988 486.329 59.9883 490.561 55.1055C494.89 50.1901 500.229 47.472 506.576 46.9512V52.8105ZM516.879 72.3906C516.879 60.7695 514.893 54.2428 510.922 52.8105V46.9512C517.367 47.472 522.706 50.1901 526.938 55.1055C531.169 59.9883 533.285 65.7988 533.285 72.5371C533.285 79.4056 531.169 85.1999 526.938 89.9199C522.738 94.6074 517.4 97.2116 510.922 97.7324V91.873C513.07 91.0592 514.6 89.0573 515.512 85.8672C516.423 82.6445 516.879 78.1523 516.879 72.3906ZM567.855 56.4238C566.358 56.4238 564.828 58.1003 563.266 61.4531L562.973 52.127C565.642 48.6764 569.06 46.9512 573.227 46.9512C575.668 46.9512 577.751 47.8464 579.477 49.6367C581.104 51.3294 581.918 53.2988 581.918 55.5449C581.918 57.9212 581.234 59.9232 579.867 61.5508C578.435 63.276 576.612 64.1387 574.398 64.1387C572.152 64.1387 570.443 63.3086 569.271 61.6484C568.327 60.2487 567.855 58.5072 567.855 56.4238ZM558.188 47.9277C558.871 55.61 559.213 64.2526 559.213 73.8555V88.3086C559.213 90.0339 560.01 91.2546 561.605 91.9707C562.322 92.2962 563.103 92.5892 563.949 92.8496C564.828 93.11 565.691 93.4518 566.537 93.875V97H538.266V93.875C538.884 93.4518 539.568 93.1426 540.316 92.9473C541.065 92.752 541.765 92.5241 542.416 92.2637C543.946 91.6452 544.711 90.4896 544.711 88.7969V56.4238C544.711 54.6335 543.946 53.4453 542.416 52.8594C541.765 52.6315 541.065 52.4362 540.316 52.2734C539.568 52.1107 538.884 51.8014 538.266 51.3457V47.9277H558.188ZM609.213 66.2871L617.27 59.207C618.474 58.1654 619.369 57.319 619.955 56.668C620.574 56.0169 620.883 55.3822 620.883 54.7637C620.883 54.1452 620.688 53.7057 620.297 53.4453C619.939 53.1523 619.483 52.9245 618.93 52.7617C618.376 52.599 617.774 52.4362 617.123 52.2734C616.472 52.0781 615.886 51.7689 615.365 51.3457V47.9277H637.777V50.418C637.777 51.1667 636.98 51.9316 635.385 52.7129C631.869 54.4707 629.704 55.7077 628.891 56.4238L620.004 64.2363L633.48 86.6484C635.108 89.513 637.143 91.5312 639.584 92.7031C640.137 92.9961 640.691 93.3867 641.244 93.875V97H615.561L615.512 93.6797C615.512 93.224 615.967 92.9147 616.879 92.752C617.823 92.5566 618.507 92.3939 618.93 92.2637C619.385 92.1335 619.613 91.9219 619.613 91.6289C619.19 90.5221 618.262 88.7155 616.83 86.209C615.398 83.6699 614.389 81.8796 613.803 80.8379L609.213 73.123V66.2871ZM590.316 36.5996C590.316 33.6374 589.877 31.8958 588.998 31.375C588.412 30.9844 587.517 30.6589 586.312 30.3984C585.141 30.1055 584.359 29.7474 583.969 29.3242V25.9551H604.867L604.818 88.2109C604.818 89.9688 605.518 91.2057 606.918 91.9219C607.536 92.2148 608.236 92.4915 609.018 92.752C609.799 92.9798 610.58 93.2891 611.361 93.6797V97H583.432V93.875C584.148 93.4518 584.913 93.1426 585.727 92.9473C586.54 92.7194 587.289 92.459 587.973 92.166C589.535 91.4824 590.316 90.1641 590.316 88.2109V36.5996ZM659.945 52.8105C656.951 53.6243 655.453 55.0404 655.453 57.0586C655.453 60.3138 658.301 63.0319 663.998 65.2129C668.49 66.9382 671.664 68.2891 673.52 69.2656C675.408 70.2096 676.986 71.2513 678.256 72.3906C681.088 74.9948 682.504 78.2337 682.504 82.1074C682.504 86.6973 680.762 90.3757 677.279 93.1426C673.894 95.8118 669.564 97.3418 664.291 97.7324V91.873C667.709 91.0592 669.418 89.1712 669.418 86.209C669.418 83.1491 666.618 80.5286 661.02 78.3477C656.625 76.6549 653.5 75.3366 651.645 74.3926C649.822 73.4486 648.292 72.4232 647.055 71.3164C644.288 68.8424 642.904 65.7988 642.904 62.1855C642.904 58.2793 644.564 54.8125 647.885 51.7852C651.238 48.7578 655.258 47.1465 659.945 46.9512V52.8105ZM673.324 53.8359C672.608 53.543 669.597 53.2012 664.291 52.8105V46.9512C669.955 47.179 674.382 48.5299 677.572 51.0039C680.242 53.0872 681.576 55.3984 681.576 57.9375C681.576 61.0951 680.372 63.1784 677.963 64.1875C677.117 64.513 675.945 64.6758 674.447 64.6758C672.95 64.6758 671.713 64.2038 670.736 63.2598C669.792 62.2832 669.32 61.0951 669.32 59.6953C669.32 57.319 670.655 55.3659 673.324 53.8359ZM651.547 90.5059C652.393 91.2546 655.193 91.7103 659.945 91.873V97.7324C654.542 97.3092 650.294 95.877 647.201 93.4355C644.597 91.3522 643.295 88.9759 643.295 86.3066C643.295 84.5488 643.783 83.1165 644.76 82.0098C645.736 80.8704 647.217 80.3008 649.203 80.3008C651.189 80.3008 652.654 80.7402 653.598 81.6191C654.574 82.498 655.062 83.6374 655.062 85.0371C655.062 87.4785 653.891 89.3014 651.547 90.5059ZM716 78.0059V68.1914H742.172V78.0059H716ZM809.994 91.7266C814.063 91.6615 817.351 90.3594 819.857 87.8203C823.08 84.6302 824.936 79.3568 825.424 72L831.039 73.9043C830.128 84.7767 826.238 92.0521 819.369 95.7305C816.798 97.0977 813.673 97.8464 809.994 97.9766V91.7266ZM793.686 61.6973C793.686 79.959 797.673 89.9688 805.648 91.7266V97.9766C796.599 97.5859 789.291 94.054 783.725 87.3809C778.288 80.8053 775.57 72.472 775.57 62.3809C775.57 51.9316 778.419 43.2728 784.115 36.4043C786.817 33.1816 790.007 30.6589 793.686 28.8359C797.364 27.013 801.352 26.1016 805.648 26.1016V32.3516C799.236 33.3607 795.443 39.3177 794.271 50.2227C793.881 53.6732 793.686 57.498 793.686 61.6973ZM809.994 26.1016C812.663 26.4922 814.91 27.127 816.732 28.0059C818.588 28.8848 819.841 29.5033 820.492 29.8613C821.176 30.2194 821.745 30.3984 822.201 30.3984C822.657 30.3984 823.048 30.138 823.373 29.6172C823.731 29.0964 824.105 28.429 824.496 27.6152H829.135V52.8105H825.424C824.61 51.6712 823.666 49.7832 822.592 47.1465C821.518 44.4772 820.622 42.4102 819.906 40.9453C819.223 39.4805 818.425 38.1458 817.514 36.9414C815.398 34.2396 812.891 32.7096 809.994 32.3516V26.1016ZM866.879 56.4238C865.382 56.4238 863.852 58.1003 862.289 61.4531L861.996 52.127C864.665 48.6764 868.083 46.9512 872.25 46.9512C874.691 46.9512 876.775 47.8464 878.5 49.6367C880.128 51.3294 880.941 53.2988 880.941 55.5449C880.941 57.9212 880.258 59.9232 878.891 61.5508C877.458 63.276 875.635 64.1387 873.422 64.1387C871.176 64.1387 869.467 63.3086 868.295 61.6484C867.351 60.2487 866.879 58.5072 866.879 56.4238ZM857.211 47.9277C857.895 55.61 858.236 64.2526 858.236 73.8555V88.3086C858.236 90.0339 859.034 91.2546 860.629 91.9707C861.345 92.2962 862.126 92.5892 862.973 92.8496C863.852 93.11 864.714 93.4518 865.561 93.875V97H837.289V93.875C837.908 93.4518 838.591 93.1426 839.34 92.9473C840.089 92.752 840.788 92.5241 841.439 92.2637C842.969 91.6452 843.734 90.4896 843.734 88.7969V56.4238C843.734 54.6335 842.969 53.4453 841.439 52.8594C840.788 52.6315 840.089 52.4362 839.34 52.2734C838.591 52.1107 837.908 51.8014 837.289 51.3457V47.9277H857.211ZM911.801 91.873C918.344 91.5475 922.738 87.9342 924.984 81.0332L929.477 83.084C927.035 92.0358 921.143 96.9186 911.801 97.7324V91.873ZM910.336 46.9512C917.042 47.4395 922.071 50.1087 925.424 54.959C928.419 59.2559 929.916 65.0013 929.916 72.1953H904.77V67.2148H914.877C914.877 63.0482 914.551 59.7604 913.9 57.3516C913.282 54.9102 912.094 53.3965 910.336 52.8105V46.9512ZM907.455 97.7324C900.391 97.179 894.695 94.4284 890.365 89.4805C886.329 84.8906 884.311 79.2428 884.311 72.5371C884.311 65.5059 886.345 59.5977 890.414 54.8125C894.451 50.0273 899.643 47.4069 905.99 46.9512V52.8105C903.842 53.5592 902.328 55.5775 901.449 58.8652C900.603 62.153 900.18 65.8639 900.18 69.998C900.18 74.0996 900.277 77.1758 900.473 79.2266C900.701 81.2448 901.091 83.0677 901.645 84.6953C902.784 88.1133 904.721 90.5059 907.455 91.873V97.7324ZM977.816 97.7324C972.901 97.7324 969.19 96.6094 966.684 94.3633V65.3594C966.684 61.1927 966.505 58.4909 966.146 57.2539C965.495 54.7799 964.161 53.2988 962.143 52.8105V46.9512C974.87 47.4069 981.234 53.1361 981.234 64.1387V86.0137C981.234 89.9199 982.146 91.873 983.969 91.873C985.466 91.873 986.378 89.8874 986.703 85.916L990.219 86.7949C989.405 92.2962 987.012 95.6979 983.041 97C981.609 97.4883 979.867 97.7324 977.816 97.7324ZM962.338 95.3887C960.482 96.9512 958.041 97.7324 955.014 97.7324C952.019 97.7324 949.529 97.4557 947.543 96.9023C945.557 96.3164 943.848 95.4701 942.416 94.3633C939.324 91.9544 937.777 88.6504 937.777 84.4512C937.777 79.6335 940.023 75.8249 944.516 73.0254C947.738 71.0072 953.679 68.8262 962.338 66.4824V71.6582C956.544 73.9368 953.646 77.9408 953.646 83.6699C953.646 87.4134 954.525 89.9362 956.283 91.2383C956.902 91.6615 957.797 91.873 958.969 91.873C960.141 91.873 961.264 91.4987 962.338 90.75V95.3887ZM952.035 55.9355C954.249 56.9447 955.355 58.4421 955.355 60.4277C955.355 62.9342 953.907 64.5781 951.01 65.3594C950.196 65.5547 949.382 65.6523 948.568 65.6523C946.192 65.6523 944.385 64.985 943.148 63.6504C941.911 62.3158 941.293 60.737 941.293 58.9141C941.293 57.0586 941.651 55.4798 942.367 54.1777C943.083 52.8431 944.141 51.6549 945.541 50.6133C948.568 48.4323 952.654 47.2116 957.797 46.9512V52.8105C955.225 52.9733 953.305 54.015 952.035 55.9355ZM1013.36 31.3262V97.7324H1012.97C1008.19 97.7324 1004.62 96.821 1002.28 94.998C999.968 93.1751 998.812 90.2129 998.812 86.1113V53.2988H992.318V49.3926C992.807 48.8717 993.425 48.4811 994.174 48.2207C994.955 47.9603 995.736 47.6836 996.518 47.3906C998.438 46.6745 999.659 45.5026 1000.18 43.875C1001.9 39.1224 1003.26 36.0788 1004.23 34.7441C1005.21 33.377 1006.07 32.2702 1006.82 31.4238L1013.36 31.3262ZM1017.71 91.873C1020.35 91.873 1022.2 91.0267 1023.28 89.334C1023.73 88.5853 1024.09 87.7389 1024.35 86.7949C1024.61 85.8184 1024.9 84.8418 1025.23 83.8652L1029.18 85.4277C1028.37 89.2038 1027.36 91.8079 1026.16 93.2402C1024.95 94.64 1023.7 95.6654 1022.4 96.3164C1021.13 96.9674 1019.56 97.4395 1017.71 97.7324V91.873ZM1017.71 47.9277H1026.5V53.2988H1017.71V47.9277ZM1058.87 91.873C1065.41 91.5475 1069.81 87.9342 1072.05 81.0332L1076.55 83.084C1074.11 92.0358 1068.21 96.9186 1058.87 97.7324V91.873ZM1057.41 46.9512C1064.11 47.4395 1069.14 50.1087 1072.49 54.959C1075.49 59.2559 1076.99 65.0013 1076.99 72.1953H1051.84V67.2148H1061.95C1061.95 63.0482 1061.62 59.7604 1060.97 57.3516C1060.35 54.9102 1059.16 53.3965 1057.41 52.8105V46.9512ZM1054.53 97.7324C1047.46 97.179 1041.76 94.4284 1037.44 89.4805C1033.4 84.8906 1031.38 79.2428 1031.38 72.5371C1031.38 65.5059 1033.42 59.5977 1037.48 54.8125C1041.52 50.0273 1046.71 47.4069 1053.06 46.9512V52.8105C1050.91 53.5592 1049.4 55.5775 1048.52 58.8652C1047.67 62.153 1047.25 65.8639 1047.25 69.998C1047.25 74.0996 1047.35 77.1758 1047.54 79.2266C1047.77 81.2448 1048.16 83.0677 1048.71 84.6953C1049.85 88.1133 1051.79 90.5059 1054.53 91.873V97.7324ZM1146.66 64.5293V88.2109C1146.66 90.099 1147.43 91.3359 1148.96 91.9219C1149.68 92.2148 1150.49 92.4427 1151.4 92.6055C1152.34 92.7682 1153.34 93.0286 1154.38 93.3867V97H1122.49V93.3867C1123.54 93.0286 1124.53 92.7682 1125.47 92.6055C1126.45 92.4102 1127.31 92.1823 1128.06 91.9219C1129.66 91.3034 1130.45 90.099 1130.45 88.3086V67.0195L1115.32 38.0156C1113.59 34.6953 1111.43 32.6934 1108.82 32.0098C1108.2 31.847 1107.63 31.6029 1107.11 31.2773V27.6152H1138.41V31.2773C1137.7 31.5703 1136.95 31.7982 1136.17 31.9609C1135.38 32.1237 1134.67 32.319 1134.02 32.5469C1132.59 33.0026 1131.87 33.7839 1131.87 34.8906C1131.87 35.5742 1132.15 36.4368 1132.7 37.4785C1133.25 38.5202 1133.89 39.7246 1134.6 41.0918L1146.66 64.5293ZM1145.79 54.8125L1152.13 42.3125C1153.92 38.7969 1154.82 36.5508 1154.82 35.5742C1154.82 34.5977 1154.59 33.9141 1154.13 33.5234C1153.71 33.1328 1153.16 32.8236 1152.47 32.5957C1151.79 32.3678 1151.04 32.1725 1150.23 32.0098C1149.41 31.8145 1148.62 31.5703 1147.84 31.2773V27.6152H1168.59V31.082C1168.07 31.5052 1167.53 31.8145 1166.98 32.0098C1166.42 32.2051 1165.85 32.4818 1165.27 32.8398C1163.74 33.6862 1162.44 35.1673 1161.36 37.2832L1148.91 61.3555L1145.79 54.8125ZM1189.58 52.8105C1185.65 54.2428 1183.68 60.7695 1183.68 72.3906C1183.68 78.1198 1184.12 82.5957 1184.99 85.8184C1185.91 89.0085 1187.44 91.0267 1189.58 91.873V97.7324C1183.11 97.2116 1177.77 94.6074 1173.57 89.9199C1169.34 85.1999 1167.22 79.4056 1167.22 72.5371C1167.22 65.7988 1169.34 59.9883 1173.57 55.1055C1177.9 50.1901 1183.24 47.472 1189.58 46.9512V52.8105ZM1199.89 72.3906C1199.89 60.7695 1197.9 54.2428 1193.93 52.8105V46.9512C1200.38 47.472 1205.71 50.1901 1209.95 55.1055C1214.18 59.9883 1216.29 65.7988 1216.29 72.5371C1216.29 79.4056 1214.18 85.1999 1209.95 89.9199C1205.75 94.6074 1200.41 97.2116 1193.93 97.7324V91.873C1196.08 91.0592 1197.61 89.0573 1198.52 85.8672C1199.43 82.6445 1199.89 78.1523 1199.89 72.3906ZM1250.57 96.0234C1248.42 97.1628 1245.2 97.7324 1240.9 97.7324C1236.61 97.7324 1233.32 96.5117 1231.04 94.0703C1228.76 91.6289 1227.62 87.918 1227.62 82.9375V56.4238C1227.62 54.6986 1226.84 53.5267 1225.28 52.9082C1224.63 52.6478 1223.93 52.4362 1223.18 52.2734C1222.46 52.1107 1221.83 51.8014 1221.27 51.3457V47.9277H1242.12V84.2559C1242.12 86.7298 1242.51 88.6178 1243.29 89.9199C1244.11 91.222 1245.26 91.873 1246.76 91.873C1248.26 91.873 1249.53 91.5312 1250.57 90.8477V96.0234ZM1254.96 56.4238C1254.96 54.6986 1254.18 53.5267 1252.62 52.9082C1251.97 52.6478 1251.27 52.4362 1250.52 52.2734C1249.81 52.0781 1249.14 51.7689 1248.52 51.3457V47.9277H1269.42V88.6016C1269.42 90.2617 1270.2 91.401 1271.76 92.0195C1272.41 92.2799 1273.1 92.5078 1273.81 92.7031C1274.56 92.8659 1275.21 93.1589 1275.77 93.582V97H1254.96V56.4238ZM1309.16 56.4238C1307.67 56.4238 1306.14 58.1003 1304.57 61.4531L1304.28 52.127C1306.95 48.6764 1310.37 46.9512 1314.54 46.9512C1316.98 46.9512 1319.06 47.8464 1320.79 49.6367C1322.41 51.3294 1323.23 53.2988 1323.23 55.5449C1323.23 57.9212 1322.54 59.9232 1321.18 61.5508C1319.74 63.276 1317.92 64.1387 1315.71 64.1387C1313.46 64.1387 1311.75 63.3086 1310.58 61.6484C1309.64 60.2487 1309.16 58.5072 1309.16 56.4238ZM1299.5 47.9277C1300.18 55.61 1300.52 64.2526 1300.52 73.8555V88.3086C1300.52 90.0339 1301.32 91.2546 1302.91 91.9707C1303.63 92.2962 1304.41 92.5892 1305.26 92.8496C1306.14 93.11 1307 93.4518 1307.85 93.875V97H1279.57V93.875C1280.19 93.4518 1280.88 93.1426 1281.62 92.9473C1282.37 92.752 1283.07 92.5241 1283.72 92.2637C1285.25 91.6452 1286.02 90.4896 1286.02 88.7969V56.4238C1286.02 54.6335 1285.25 53.4453 1283.72 52.8594C1283.07 52.6315 1282.37 52.4362 1281.62 52.2734C1280.88 52.1107 1280.19 51.8014 1279.57 51.3457V47.9277H1299.5ZM1388.41 74.0996L1400.23 39.5781C1400.65 38.3086 1400.86 37.1367 1400.86 36.0625C1400.86 34.9883 1400.62 34.2233 1400.13 33.7676C1399.64 33.2793 1399.06 32.9538 1398.37 32.791C1397.69 32.5957 1396.97 32.4492 1396.22 32.3516C1395.48 32.2214 1394.84 31.9121 1394.32 31.4238V27.6152H1414.54V31.2773C1413.98 31.668 1413.38 31.9772 1412.73 32.2051C1412.08 32.4004 1411.43 32.6445 1410.78 32.9375C1409.21 33.7188 1408.17 34.9069 1407.65 36.502L1391.44 82.791L1388.41 74.0996ZM1390.12 86.4043L1386.36 97H1377.91L1356.33 36.4043C1355.52 34.1257 1353.79 32.6771 1351.16 32.0586C1350.47 31.8958 1349.82 31.6354 1349.2 31.2773V27.6152H1380.26V31.1797C1379.51 31.4727 1378.73 31.7168 1377.91 31.9121C1377.1 32.1074 1376.34 32.3516 1375.62 32.6445C1373.99 33.2956 1373.18 34.321 1373.18 35.7207C1373.18 36.5345 1373.63 38.2598 1374.54 40.8965L1390.12 86.4043ZM1451.74 97.7324C1446.83 97.7324 1443.12 96.6094 1440.61 94.3633V65.3594C1440.61 61.1927 1440.43 58.4909 1440.07 57.2539C1439.42 54.7799 1438.09 53.2988 1436.07 52.8105V46.9512C1448.8 47.4069 1455.16 53.1361 1455.16 64.1387V86.0137C1455.16 89.9199 1456.07 91.873 1457.89 91.873C1459.39 91.873 1460.3 89.8874 1460.63 85.916L1464.14 86.7949C1463.33 92.2962 1460.94 95.6979 1456.97 97C1455.53 97.4883 1453.79 97.7324 1451.74 97.7324ZM1436.26 95.3887C1434.41 96.9512 1431.97 97.7324 1428.94 97.7324C1425.94 97.7324 1423.45 97.4557 1421.47 96.9023C1419.48 96.3164 1417.77 95.4701 1416.34 94.3633C1413.25 91.9544 1411.7 88.6504 1411.7 84.4512C1411.7 79.6335 1413.95 75.8249 1418.44 73.0254C1421.66 71.0072 1427.6 68.8262 1436.26 66.4824V71.6582C1430.47 73.9368 1427.57 77.9408 1427.57 83.6699C1427.57 87.4134 1428.45 89.9362 1430.21 91.2383C1430.83 91.6615 1431.72 91.873 1432.89 91.873C1434.07 91.873 1435.19 91.4987 1436.26 90.75V95.3887ZM1425.96 55.9355C1428.17 56.9447 1429.28 58.4421 1429.28 60.4277C1429.28 62.9342 1427.83 64.5781 1424.94 65.3594C1424.12 65.5547 1423.31 65.6523 1422.49 65.6523C1420.12 65.6523 1418.31 64.985 1417.07 63.6504C1415.84 62.3158 1415.22 60.737 1415.22 58.9141C1415.22 57.0586 1415.58 55.4798 1416.29 54.1777C1417.01 52.8431 1418.07 51.6549 1419.47 50.6133C1422.49 48.4323 1426.58 47.2116 1431.72 46.9512V52.8105C1429.15 52.9733 1427.23 54.015 1425.96 55.9355ZM1491.88 50.0762C1494.45 47.9928 1497.1 46.9512 1499.84 46.9512C1502.57 46.9512 1504.8 47.2604 1506.53 47.8789C1508.29 48.4974 1509.77 49.4089 1510.97 50.6133C1513.54 53.1849 1514.83 56.7819 1514.83 61.4043V86.7461C1514.83 90.0013 1515.56 91.8405 1517.03 92.2637C1517.48 92.3939 1517.94 92.5078 1518.39 92.6055C1519.66 92.8659 1520.59 93.2891 1521.18 93.875V97H1497.98V93.582C1497.98 92.8659 1498.24 92.2799 1498.76 91.8242C1499.32 91.3685 1499.71 90.9779 1499.94 90.6523C1500.2 90.2943 1500.33 89.7409 1500.33 88.9922V61.8926C1500.33 58.5397 1500.1 56.3913 1499.64 55.4473C1498.86 53.6895 1497.64 52.8105 1495.98 52.8105C1494.32 52.8105 1492.95 53.2174 1491.88 54.0312V50.0762ZM1487.53 86.7461C1487.53 89.9688 1488.22 91.8079 1489.58 92.2637C1490.01 92.3939 1490.45 92.5078 1490.9 92.6055C1492.11 92.8659 1493 93.2891 1493.59 93.875V97H1466.68V93.875C1467.24 93.4518 1467.87 93.1426 1468.59 92.9473C1469.34 92.752 1470.04 92.5241 1470.69 92.2637C1472.25 91.6452 1473.03 90.4896 1473.03 88.7969V58.6211C1473.03 56.3099 1472.49 54.6335 1471.42 53.5918C1470.57 52.7454 1468.99 51.9967 1466.68 51.3457V47.9277H1487.53V86.7461ZM1545.93 88.7969C1545.93 90.4896 1546.71 91.6452 1548.28 92.2637C1548.93 92.5241 1549.63 92.752 1550.38 92.9473C1551.12 93.1426 1551.82 93.4518 1552.47 93.875V97H1524.98V93.875C1525.6 93.4518 1526.29 93.1426 1527.04 92.9473C1527.78 92.752 1528.48 92.5241 1529.13 92.2637C1530.66 91.6452 1531.43 90.4896 1531.43 88.7969V56.4238C1531.43 54.666 1530.66 53.5104 1529.13 52.957C1528.48 52.6966 1527.78 52.485 1527.04 52.3223C1526.29 52.127 1525.6 51.8014 1524.98 51.3457V47.9277H1545.93V88.7969ZM1537.83 42.1172C1536.59 42.1172 1535.47 41.8893 1534.46 41.4336C1533.45 40.9779 1532.59 40.3594 1531.87 39.5781C1530.37 37.9505 1529.62 35.9648 1529.62 33.6211C1529.62 31.3424 1530.37 29.3568 1531.87 27.6641C1533.43 25.9388 1535.42 25.0762 1537.83 25.0762C1540.27 25.0762 1542.27 25.9388 1543.83 27.6641C1545.33 29.3568 1546.08 31.3424 1546.08 33.6211C1546.08 35.9648 1545.33 37.9505 1543.83 39.5781C1542.27 41.2708 1540.27 42.1172 1537.83 42.1172ZM1576.94 31.3262V97.7324H1576.55C1571.76 97.7324 1568.2 96.821 1565.85 94.998C1563.54 93.1751 1562.39 90.2129 1562.39 86.1113V53.2988H1555.89V49.3926C1556.38 48.8717 1557 48.4811 1557.75 48.2207C1558.53 47.9603 1559.31 47.6836 1560.09 47.3906C1562.01 46.6745 1563.23 45.5026 1563.75 43.875C1565.48 39.1224 1566.83 36.0788 1567.81 34.7441C1568.78 33.377 1569.65 32.2702 1570.39 31.4238L1576.94 31.3262ZM1581.28 91.873C1583.92 91.873 1585.78 91.0267 1586.85 89.334C1587.31 88.5853 1587.66 87.7389 1587.92 86.7949C1588.18 85.8184 1588.48 84.8418 1588.8 83.8652L1592.76 85.4277C1591.94 89.2038 1590.93 91.8079 1589.73 93.2402C1588.53 94.64 1587.27 95.6654 1585.97 96.3164C1584.7 96.9674 1583.14 97.4395 1581.28 97.7324V91.873ZM1581.28 47.9277H1590.07V53.2988H1581.28V47.9277ZM1612.24 93.3379L1597.2 57.5957C1595.93 54.7311 1594.16 52.9733 1591.88 52.3223C1591.29 52.1595 1590.74 51.9316 1590.22 51.6387V47.9277H1618.05V51.541C1617.63 51.8991 1617.12 52.1432 1616.54 52.2734C1615.95 52.3711 1615.38 52.5013 1614.83 52.6641C1613.49 53.1198 1612.83 54.0638 1612.83 55.4961C1612.83 56.4076 1613.15 57.6445 1613.8 59.207L1619.66 73.7578L1612.24 93.3379ZM1603.89 109.842C1603.89 110.851 1604.41 111.355 1605.45 111.355C1606.53 111.355 1607.46 111.062 1608.24 110.477C1609.05 109.891 1609.82 109.077 1610.53 108.035C1611.74 106.212 1613.1 103.283 1614.63 99.2461L1629.53 60.1348C1630.44 57.791 1630.89 56.2448 1630.89 55.4961C1630.89 54.7474 1630.7 54.1777 1630.31 53.7871C1629.92 53.3965 1629.41 53.0872 1628.79 52.8594C1628.21 52.599 1627.56 52.3874 1626.84 52.2246C1626.16 52.0293 1625.51 51.8014 1624.89 51.541V47.9277H1643.05V50.2227C1643.05 51.0039 1642.79 51.5573 1642.27 51.8828C1641.78 52.2083 1641.2 52.5339 1640.51 52.8594C1639.83 53.1523 1639.13 53.5592 1638.41 54.0801C1637.7 54.6009 1637.13 55.431 1636.7 56.5703L1619.08 102.469C1617.19 107.384 1614.97 111.111 1612.44 113.65C1609.9 116.222 1606.74 117.508 1602.96 117.508C1599.48 117.508 1596.75 116.499 1594.76 114.48C1592.97 112.592 1592.07 110.314 1592.07 107.645C1592.07 104.129 1593.52 101.72 1596.42 100.418C1597.36 100.027 1598.34 99.832 1599.35 99.832C1600.39 99.832 1601.29 99.9785 1602.04 100.271C1602.78 100.597 1603.45 101.004 1604.04 101.492C1605.21 102.566 1605.79 103.641 1605.79 104.715C1605.79 105.822 1605.7 106.635 1605.5 107.156C1605.31 107.677 1605.08 108.1 1604.82 108.426C1604.59 108.784 1604.38 109.061 1604.18 109.256C1603.99 109.451 1603.89 109.646 1603.89 109.842ZM290.707 222.305L286.605 235H278.891L260.336 174.697C259.685 172.581 258.757 171.165 257.553 170.449C257.032 170.156 256.527 169.928 256.039 169.766C255.518 169.57 255.046 169.31 254.623 168.984V165.615H282.992V169.082C282.341 169.408 281.674 169.684 280.99 169.912C280.307 170.107 279.688 170.352 279.135 170.645C277.8 171.328 277.133 172.288 277.133 173.525C277.133 174.73 277.344 176.032 277.768 177.432C278.223 178.831 278.695 180.361 279.184 182.021L290.707 222.305ZM325.375 206.826L333.871 178.896C334.587 176.488 334.945 174.827 334.945 173.916C334.945 173.005 334.717 172.337 334.262 171.914C333.806 171.458 333.204 171.1 332.455 170.84C331.739 170.547 330.941 170.286 330.062 170.059C329.184 169.831 328.337 169.538 327.523 169.18V165.615H348.129V169.18C347.445 169.57 346.762 169.912 346.078 170.205C345.395 170.498 344.727 170.872 344.076 171.328C342.676 172.402 341.553 174.225 340.707 176.797L328.109 216.152L325.375 206.826ZM326.254 221.914L321.957 235H314.438L300.863 191.592H300.668L292.611 216.738L289.779 206.973L297.836 182.412C297.478 181.305 297.169 180.085 296.908 178.75C296.648 177.415 296.273 176.146 295.785 174.941C294.646 172.142 292.709 170.596 289.975 170.303C289.356 169.782 289.047 169.082 289.047 168.203V165.615H318.979V169.424C318.262 169.814 317.497 170.091 316.684 170.254C315.902 170.417 315.17 170.596 314.486 170.791C312.924 171.247 312.143 172.191 312.143 173.623C312.143 174.209 312.257 174.86 312.484 175.576C312.712 176.292 312.908 176.96 313.07 177.578L326.254 221.914ZM385.043 235.732C380.128 235.732 376.417 234.609 373.91 232.363V203.359C373.91 199.193 373.731 196.491 373.373 195.254C372.722 192.78 371.387 191.299 369.369 190.811V184.951C382.097 185.407 388.461 191.136 388.461 202.139V224.014C388.461 227.92 389.372 229.873 391.195 229.873C392.693 229.873 393.604 227.887 393.93 223.916L397.445 224.795C396.632 230.296 394.239 233.698 390.268 235C388.835 235.488 387.094 235.732 385.043 235.732ZM369.564 233.389C367.709 234.951 365.268 235.732 362.24 235.732C359.245 235.732 356.755 235.456 354.77 234.902C352.784 234.316 351.075 233.47 349.643 232.363C346.55 229.954 345.004 226.65 345.004 222.451C345.004 217.633 347.25 213.825 351.742 211.025C354.965 209.007 360.906 206.826 369.564 204.482V209.658C363.77 211.937 360.873 215.941 360.873 221.67C360.873 225.413 361.752 227.936 363.51 229.238C364.128 229.661 365.023 229.873 366.195 229.873C367.367 229.873 368.49 229.499 369.564 228.75V233.389ZM359.262 193.936C361.475 194.945 362.582 196.442 362.582 198.428C362.582 200.934 361.133 202.578 358.236 203.359C357.423 203.555 356.609 203.652 355.795 203.652C353.419 203.652 351.612 202.985 350.375 201.65C349.138 200.316 348.52 198.737 348.52 196.914C348.52 195.059 348.878 193.48 349.594 192.178C350.31 190.843 351.368 189.655 352.768 188.613C355.795 186.432 359.88 185.212 365.023 184.951V190.811C362.452 190.973 360.531 192.015 359.262 193.936ZM420.932 226.797C420.932 228.49 421.713 229.645 423.275 230.264C423.926 230.524 424.626 230.752 425.375 230.947C426.124 231.143 426.824 231.452 427.475 231.875V235H399.984V231.875C400.603 231.452 401.286 231.143 402.035 230.947C402.784 230.752 403.484 230.524 404.135 230.264C405.665 229.645 406.43 228.49 406.43 226.797V172.451C406.43 170.726 405.665 169.538 404.135 168.887C403.484 168.626 402.784 168.415 402.035 168.252C401.286 168.057 400.603 167.747 399.984 167.324V163.955H420.932V226.797ZM452.279 226.797C452.279 228.49 453.061 229.645 454.623 230.264C455.274 230.524 455.974 230.752 456.723 230.947C457.471 231.143 458.171 231.452 458.822 231.875V235H431.332V231.875C431.951 231.452 432.634 231.143 433.383 230.947C434.132 230.752 434.831 230.524 435.482 230.264C437.012 229.645 437.777 228.49 437.777 226.797V172.451C437.777 170.726 437.012 169.538 435.482 168.887C434.831 168.626 434.132 168.415 433.383 168.252C432.634 168.057 431.951 167.747 431.332 167.324V163.955H452.279V226.797ZM491.293 229.873C497.836 229.548 502.23 225.934 504.477 219.033L508.969 221.084C506.527 230.036 500.635 234.919 491.293 235.732V229.873ZM489.828 184.951C496.534 185.439 501.563 188.109 504.916 192.959C507.911 197.256 509.408 203.001 509.408 210.195H484.262V205.215H494.369C494.369 201.048 494.044 197.76 493.393 195.352C492.774 192.91 491.586 191.396 489.828 190.811V184.951ZM486.947 235.732C479.883 235.179 474.187 232.428 469.857 227.48C465.821 222.891 463.803 217.243 463.803 210.537C463.803 203.506 465.837 197.598 469.906 192.812C473.943 188.027 479.135 185.407 485.482 184.951V190.811C483.334 191.559 481.82 193.577 480.941 196.865C480.095 200.153 479.672 203.864 479.672 207.998C479.672 212.1 479.77 215.176 479.965 217.227C480.193 219.245 480.583 221.068 481.137 222.695C482.276 226.113 484.213 228.506 486.947 229.873V235.732ZM536.508 169.326V235.732H536.117C531.332 235.732 527.768 234.821 525.424 232.998C523.113 231.175 521.957 228.213 521.957 224.111V191.299H515.463V187.393C515.951 186.872 516.57 186.481 517.318 186.221C518.1 185.96 518.881 185.684 519.662 185.391C521.583 184.674 522.803 183.503 523.324 181.875C525.049 177.122 526.4 174.079 527.377 172.744C528.354 171.377 529.216 170.27 529.965 169.424L536.508 169.326ZM540.854 229.873C543.49 229.873 545.346 229.027 546.42 227.334C546.876 226.585 547.234 225.739 547.494 224.795C547.755 223.818 548.048 222.842 548.373 221.865L552.328 223.428C551.514 227.204 550.505 229.808 549.301 231.24C548.096 232.64 546.843 233.665 545.541 234.316C544.271 234.967 542.709 235.439 540.854 235.732V229.873ZM540.854 185.928H549.643V191.299H540.854V185.928ZM602.475 226.797C602.475 228.49 603.256 229.645 604.818 230.264C605.469 230.524 606.169 230.752 606.918 230.947C607.667 231.143 608.367 231.452 609.018 231.875V235H581.527V231.875C582.146 231.452 582.829 231.143 583.578 230.947C584.327 230.752 585.027 230.524 585.678 230.264C587.208 229.645 587.973 228.49 587.973 226.797V194.424C587.973 192.666 587.208 191.51 585.678 190.957C585.027 190.697 584.327 190.485 583.578 190.322C582.829 190.127 582.146 189.801 581.527 189.346V185.928H602.475V226.797ZM594.369 180.117C593.132 180.117 592.009 179.889 591 179.434C589.991 178.978 589.128 178.359 588.412 177.578C586.915 175.951 586.166 173.965 586.166 171.621C586.166 169.342 586.915 167.357 588.412 165.664C589.975 163.939 591.96 163.076 594.369 163.076C596.811 163.076 598.812 163.939 600.375 165.664C601.872 167.357 602.621 169.342 602.621 171.621C602.621 173.965 601.872 175.951 600.375 177.578C598.812 179.271 596.811 180.117 594.369 180.117ZM638.07 188.076C640.642 185.993 643.295 184.951 646.029 184.951C648.764 184.951 650.993 185.26 652.719 185.879C654.477 186.497 655.958 187.409 657.162 188.613C659.734 191.185 661.02 194.782 661.02 199.404V224.746C661.02 228.001 661.752 229.84 663.217 230.264C663.673 230.394 664.128 230.508 664.584 230.605C665.854 230.866 666.781 231.289 667.367 231.875V235H644.174V231.582C644.174 230.866 644.434 230.28 644.955 229.824C645.508 229.368 645.899 228.978 646.127 228.652C646.387 228.294 646.518 227.741 646.518 226.992V199.893C646.518 196.54 646.29 194.391 645.834 193.447C645.053 191.689 643.832 190.811 642.172 190.811C640.512 190.811 639.145 191.217 638.07 192.031V188.076ZM633.725 224.746C633.725 227.969 634.408 229.808 635.775 230.264C636.199 230.394 636.638 230.508 637.094 230.605C638.298 230.866 639.193 231.289 639.779 231.875V235H612.875V231.875C613.428 231.452 614.063 231.143 614.779 230.947C615.528 230.752 616.228 230.524 616.879 230.264C618.441 229.645 619.223 228.49 619.223 226.797V196.621C619.223 194.31 618.686 192.633 617.611 191.592C616.765 190.745 615.186 189.997 612.875 189.346V185.928H633.725V224.746ZM723.715 165.615V223.086C723.715 225.723 724.008 227.432 724.594 228.213C725.212 228.994 725.782 229.499 726.303 229.727C726.856 229.922 727.442 230.085 728.061 230.215C728.712 230.345 729.395 230.492 730.111 230.654C730.86 230.785 731.625 231.029 732.406 231.387V235H700.521V231.387C701.4 231.029 702.247 230.768 703.061 230.605C703.907 230.41 704.656 230.15 705.307 229.824C706.771 229.108 707.504 227.741 707.504 225.723V177.188C707.504 174.616 707.243 172.972 706.723 172.256C706.202 171.507 705.714 171.035 705.258 170.84C704.835 170.645 704.363 170.498 703.842 170.4C702.344 170.107 701.238 169.733 700.521 169.277V165.615H723.715ZM743.051 165.615C748.585 165.615 752.621 165.371 755.16 164.883V188.516H751.742C750.766 187.702 750.001 186.693 749.447 185.488C748.894 184.251 748.357 182.965 747.836 181.631C747.315 180.264 746.713 178.913 746.029 177.578C745.378 176.243 744.434 175.039 743.197 173.965C740.495 171.523 736.41 170.303 730.941 170.303C729.9 170.303 728.939 170.352 728.061 170.449V165.615H743.051ZM728.061 196.182L730.648 195.986C734.001 195.758 736.182 194.554 737.191 192.373C737.484 191.755 737.761 191.12 738.021 190.469C738.77 188.711 739.568 187.425 740.414 186.611H744.027V210.781H740.414C739.6 210.098 738.9 209.17 738.314 207.998C737.761 206.826 737.273 205.947 736.85 205.361C736.459 204.743 735.906 204.189 735.189 203.701C733.627 202.594 731.251 201.96 728.061 201.797V196.182ZM780.697 226.797C780.697 228.49 781.479 229.645 783.041 230.264C783.692 230.524 784.392 230.752 785.141 230.947C785.889 231.143 786.589 231.452 787.24 231.875V235H759.75V231.875C760.368 231.452 761.052 231.143 761.801 230.947C762.549 230.752 763.249 230.524 763.9 230.264C765.43 229.645 766.195 228.49 766.195 226.797V194.424C766.195 192.666 765.43 191.51 763.9 190.957C763.249 190.697 762.549 190.485 761.801 190.322C761.052 190.127 760.368 189.801 759.75 189.346V185.928H780.697V226.797ZM772.592 180.117C771.355 180.117 770.232 179.889 769.223 179.434C768.214 178.978 767.351 178.359 766.635 177.578C765.137 175.951 764.389 173.965 764.389 171.621C764.389 169.342 765.137 167.357 766.635 165.664C768.197 163.939 770.183 163.076 772.592 163.076C775.033 163.076 777.035 163.939 778.598 165.664C780.095 167.357 780.844 169.342 780.844 171.621C780.844 173.965 780.095 175.951 778.598 177.578C777.035 179.271 775.033 180.117 772.592 180.117ZM819.223 213.906L824.984 197.402C825.668 195.417 826.01 194.066 826.01 193.35C826.01 192.633 825.814 192.096 825.424 191.738C825.066 191.38 824.61 191.087 824.057 190.859C823.536 190.632 822.95 190.436 822.299 190.273C821.68 190.078 821.111 189.834 820.59 189.541V185.928H838.07V189.248C837.615 189.541 837.094 189.801 836.508 190.029C835.922 190.257 835.352 190.518 834.799 190.811C833.464 191.527 832.585 192.471 832.162 193.643L822.104 221.475L819.223 213.906ZM817.074 235H808.432L792.807 194.961C791.895 192.65 790.333 191.152 788.119 190.469C787.566 190.273 787.029 189.997 786.508 189.639V185.928H813.266V189.541C812.745 189.899 812.143 190.176 811.459 190.371C810.808 190.566 810.189 190.778 809.604 191.006C808.139 191.559 807.406 192.373 807.406 193.447C807.406 194.359 809.05 199.176 812.338 207.9C815.626 216.624 818.116 223.298 819.809 227.92L817.074 235ZM866.586 229.873C873.129 229.548 877.523 225.934 879.77 219.033L884.262 221.084C881.82 230.036 875.928 234.919 866.586 235.732V229.873ZM865.121 184.951C871.827 185.439 876.856 188.109 880.209 192.959C883.204 197.256 884.701 203.001 884.701 210.195H859.555V205.215H869.662C869.662 201.048 869.337 197.76 868.686 195.352C868.067 192.91 866.879 191.396 865.121 190.811V184.951ZM862.24 235.732C855.176 235.179 849.48 232.428 845.15 227.48C841.114 222.891 839.096 217.243 839.096 210.537C839.096 203.506 841.13 197.598 845.199 192.812C849.236 188.027 854.428 185.407 860.775 184.951V190.811C858.627 191.559 857.113 193.577 856.234 196.865C855.388 200.153 854.965 203.864 854.965 207.998C854.965 212.1 855.062 215.176 855.258 217.227C855.486 219.245 855.876 221.068 856.43 222.695C857.569 226.113 859.506 228.506 862.24 229.873V235.732ZM944.271 165.615V235H921.176V231.387C922.055 231.029 922.901 230.768 923.715 230.605C924.561 230.41 925.31 230.15 925.961 229.824C927.426 229.108 928.158 227.741 928.158 225.723V174.99C928.158 172.939 927.426 171.556 925.961 170.84C925.31 170.514 924.561 170.27 923.715 170.107C922.901 169.912 922.055 169.635 921.176 169.277V165.615H944.271ZM948.617 230.117C950.245 230.247 952.312 230.312 954.818 230.312C957.325 230.312 959.571 229.922 961.557 229.141C963.575 228.359 965.202 227.367 966.439 226.162C967.709 224.925 968.702 223.558 969.418 222.061C970.134 220.563 970.753 219.098 971.273 217.666C971.794 216.201 972.315 214.867 972.836 213.662C973.389 212.425 974.138 211.465 975.082 210.781H978.402V235H948.617V230.117ZM963.754 174.014C962.615 172.907 961.182 172.012 959.457 171.328C957.764 170.645 955.779 170.303 953.5 170.303C951.221 170.303 949.594 170.352 948.617 170.449V165.615H959.652C966.977 165.615 972.299 165.371 975.619 164.883V188.516H972.201C971.387 187.734 970.704 186.742 970.15 185.537C969.597 184.333 969.027 183.063 968.441 181.729C967.888 180.361 967.253 179.01 966.537 177.676C965.821 176.309 964.893 175.088 963.754 174.014ZM948.617 193.691H964.877V206.191H948.617V193.691ZM1026.35 235.732C1021.44 235.732 1017.73 234.609 1015.22 232.363V203.359C1015.22 199.193 1015.04 196.491 1014.68 195.254C1014.03 192.78 1012.7 191.299 1010.68 190.811V184.951C1023.41 185.407 1029.77 191.136 1029.77 202.139V224.014C1029.77 227.92 1030.68 229.873 1032.5 229.873C1034 229.873 1034.91 227.887 1035.24 223.916L1038.75 224.795C1037.94 230.296 1035.55 233.698 1031.58 235C1030.14 235.488 1028.4 235.732 1026.35 235.732ZM1010.87 233.389C1009.02 234.951 1006.58 235.732 1003.55 235.732C1000.55 235.732 998.064 235.456 996.078 234.902C994.092 234.316 992.383 233.47 990.951 232.363C987.859 229.954 986.312 226.65 986.312 222.451C986.312 217.633 988.559 213.825 993.051 211.025C996.273 209.007 1002.21 206.826 1010.87 204.482V209.658C1005.08 211.937 1002.18 215.941 1002.18 221.67C1002.18 225.413 1003.06 227.936 1004.82 229.238C1005.44 229.661 1006.33 229.873 1007.5 229.873C1008.68 229.873 1009.8 229.499 1010.87 228.75V233.389ZM1000.57 193.936C1002.78 194.945 1003.89 196.442 1003.89 198.428C1003.89 200.934 1002.44 202.578 999.545 203.359C998.731 203.555 997.917 203.652 997.104 203.652C994.727 203.652 992.921 202.985 991.684 201.65C990.447 200.316 989.828 198.737 989.828 196.914C989.828 195.059 990.186 193.48 990.902 192.178C991.618 190.843 992.676 189.655 994.076 188.613C997.104 186.432 1001.19 185.212 1006.33 184.951V190.811C1003.76 190.973 1001.84 192.015 1000.57 193.936ZM1060.82 190.811C1057.83 191.624 1056.33 193.04 1056.33 195.059C1056.33 198.314 1059.18 201.032 1064.88 203.213C1069.37 204.938 1072.54 206.289 1074.4 207.266C1076.29 208.21 1077.87 209.251 1079.13 210.391C1081.97 212.995 1083.38 216.234 1083.38 220.107C1083.38 224.697 1081.64 228.376 1078.16 231.143C1074.77 233.812 1070.44 235.342 1065.17 235.732V229.873C1068.59 229.059 1070.3 227.171 1070.3 224.209C1070.3 221.149 1067.5 218.529 1061.9 216.348C1057.5 214.655 1054.38 213.337 1052.52 212.393C1050.7 211.449 1049.17 210.423 1047.93 209.316C1045.17 206.842 1043.78 203.799 1043.78 200.186C1043.78 196.279 1045.44 192.812 1048.76 189.785C1052.12 186.758 1056.14 185.146 1060.82 184.951V190.811ZM1074.2 191.836C1073.49 191.543 1070.48 191.201 1065.17 190.811V184.951C1070.83 185.179 1075.26 186.53 1078.45 189.004C1081.12 191.087 1082.46 193.398 1082.46 195.938C1082.46 199.095 1081.25 201.178 1078.84 202.188C1078 202.513 1076.82 202.676 1075.33 202.676C1073.83 202.676 1072.59 202.204 1071.62 201.26C1070.67 200.283 1070.2 199.095 1070.2 197.695C1070.2 195.319 1071.53 193.366 1074.2 191.836ZM1052.43 228.506C1053.27 229.255 1056.07 229.71 1060.82 229.873V235.732C1055.42 235.309 1051.17 233.877 1048.08 231.436C1045.48 229.352 1044.17 226.976 1044.17 224.307C1044.17 222.549 1044.66 221.117 1045.64 220.01C1046.62 218.87 1048.1 218.301 1050.08 218.301C1052.07 218.301 1053.53 218.74 1054.48 219.619C1055.45 220.498 1055.94 221.637 1055.94 223.037C1055.94 225.479 1054.77 227.301 1052.43 228.506ZM1106.58 231.338L1091.54 195.596C1090.27 192.731 1088.49 190.973 1086.21 190.322C1085.63 190.16 1085.08 189.932 1084.55 189.639V185.928H1112.39V189.541C1111.96 189.899 1111.46 190.143 1110.87 190.273C1110.29 190.371 1109.72 190.501 1109.16 190.664C1107.83 191.12 1107.16 192.064 1107.16 193.496C1107.16 194.408 1107.49 195.645 1108.14 197.207L1114 211.758L1106.58 231.338ZM1098.23 247.842C1098.23 248.851 1098.75 249.355 1099.79 249.355C1100.86 249.355 1101.79 249.062 1102.57 248.477C1103.39 247.891 1104.15 247.077 1104.87 246.035C1106.07 244.212 1107.44 241.283 1108.97 237.246L1123.86 198.135C1124.77 195.791 1125.23 194.245 1125.23 193.496C1125.23 192.747 1125.03 192.178 1124.64 191.787C1124.25 191.396 1123.75 191.087 1123.13 190.859C1122.54 190.599 1121.89 190.387 1121.18 190.225C1120.49 190.029 1119.84 189.801 1119.22 189.541V185.928H1137.39V188.223C1137.39 189.004 1137.13 189.557 1136.61 189.883C1136.12 190.208 1135.53 190.534 1134.85 190.859C1134.16 191.152 1133.46 191.559 1132.75 192.08C1132.03 192.601 1131.46 193.431 1131.04 194.57L1113.41 240.469C1111.52 245.384 1109.31 249.111 1106.77 251.65C1104.23 254.222 1101.07 255.508 1097.3 255.508C1093.82 255.508 1091.08 254.499 1089.1 252.48C1087.31 250.592 1086.41 248.314 1086.41 245.645C1086.41 242.129 1087.86 239.72 1090.76 238.418C1091.7 238.027 1092.68 237.832 1093.69 237.832C1094.73 237.832 1095.62 237.979 1096.37 238.271C1097.12 238.597 1097.79 239.004 1098.37 239.492C1099.54 240.566 1100.13 241.641 1100.13 242.715C1100.13 243.822 1100.03 244.635 1099.84 245.156C1099.64 245.677 1099.41 246.1 1099.15 246.426C1098.93 246.784 1098.71 247.061 1098.52 247.256C1098.32 247.451 1098.23 247.646 1098.23 247.842ZM1194.66 164.102C1197.72 164.59 1200.91 165.892 1204.23 168.008C1204.82 168.398 1205.37 168.594 1205.89 168.594C1206.45 168.594 1206.97 168.301 1207.46 167.715C1207.94 167.096 1208.48 166.396 1209.07 165.615H1213.46V189.297H1209.75C1208.84 188.32 1207.86 186.693 1206.82 184.414C1205.78 182.103 1204.92 180.28 1204.23 178.945C1203.58 177.578 1202.82 176.309 1201.94 175.137C1199.95 172.533 1197.53 170.938 1194.66 170.352V164.102ZM1175.96 232.021C1174.76 232.021 1173.75 232.998 1172.93 234.951H1168V209.414H1171.27C1172.48 210.163 1173.6 211.774 1174.64 214.248C1175.72 216.689 1176.63 218.691 1177.38 220.254C1178.16 221.784 1179.1 223.216 1180.21 224.551C1182.78 227.611 1186.15 229.336 1190.32 229.727V235.977C1187.29 235.781 1184.67 235.26 1182.46 234.414C1180.24 233.535 1178.73 232.917 1177.91 232.559C1177.1 232.201 1176.45 232.021 1175.96 232.021ZM1194.66 229.727C1197.82 229.368 1200.29 228.327 1202.08 226.602C1203.91 224.844 1204.82 222.679 1204.82 220.107C1204.82 217.536 1204.28 215.501 1203.21 214.004C1202.17 212.507 1200.78 211.188 1199.06 210.049C1197.33 208.91 1195.36 207.884 1193.15 206.973C1190.93 206.061 1188.67 205.133 1186.36 204.189C1184.05 203.245 1181.79 202.236 1179.57 201.162C1177.36 200.055 1175.39 198.753 1173.67 197.256C1169.82 193.936 1167.9 189.72 1167.9 184.609C1167.9 179.368 1169.82 174.762 1173.67 170.791C1177.96 166.396 1183.51 164.167 1190.32 164.102V170.352C1187.68 170.612 1185.55 171.458 1183.92 172.891C1182.32 174.323 1181.53 176.081 1181.53 178.164C1181.53 180.247 1182.05 181.973 1183.09 183.34C1184.16 184.707 1185.56 185.928 1187.29 187.002C1189.01 188.044 1190.98 189.004 1193.2 189.883C1195.41 190.729 1197.66 191.624 1199.94 192.568C1202.25 193.48 1204.51 194.505 1206.72 195.645C1208.94 196.751 1210.91 198.086 1212.63 199.648C1216.47 203.132 1218.39 207.51 1218.39 212.783C1218.39 218.968 1216.44 224.16 1212.53 228.359C1208.2 233.079 1202.25 235.618 1194.66 235.977V229.727ZM1245.39 169.326V235.732H1245C1240.22 235.732 1236.65 234.821 1234.31 232.998C1232 231.175 1230.84 228.213 1230.84 224.111V191.299H1224.35V187.393C1224.84 186.872 1225.46 186.481 1226.21 186.221C1226.99 185.96 1227.77 185.684 1228.55 185.391C1230.47 184.674 1231.69 183.503 1232.21 181.875C1233.94 177.122 1235.29 174.079 1236.26 172.744C1237.24 171.377 1238.1 170.27 1238.85 169.424L1245.39 169.326ZM1249.74 229.873C1252.38 229.873 1254.23 229.027 1255.31 227.334C1255.76 226.585 1256.12 225.739 1256.38 224.795C1256.64 223.818 1256.93 222.842 1257.26 221.865L1261.21 223.428C1260.4 227.204 1259.39 229.808 1258.19 231.24C1256.98 232.64 1255.73 233.665 1254.43 234.316C1253.16 234.967 1251.6 235.439 1249.74 235.732V229.873ZM1249.74 185.928H1258.53V191.299H1249.74V185.928ZM1290.9 229.873C1297.45 229.548 1301.84 225.934 1304.09 219.033L1308.58 221.084C1306.14 230.036 1300.24 234.919 1290.9 235.732V229.873ZM1289.44 184.951C1296.14 185.439 1301.17 188.109 1304.53 192.959C1307.52 197.256 1309.02 203.001 1309.02 210.195H1283.87V205.215H1293.98C1293.98 201.048 1293.65 197.76 1293 195.352C1292.38 192.91 1291.2 191.396 1289.44 190.811V184.951ZM1286.56 235.732C1279.49 235.179 1273.8 232.428 1269.47 227.48C1265.43 222.891 1263.41 217.243 1263.41 210.537C1263.41 203.506 1265.45 197.598 1269.52 192.812C1273.55 188.027 1278.74 185.407 1285.09 184.951V190.811C1282.94 191.559 1281.43 193.577 1280.55 196.865C1279.7 200.153 1279.28 203.864 1279.28 207.998C1279.28 212.1 1279.38 215.176 1279.57 217.227C1279.8 219.245 1280.19 221.068 1280.75 222.695C1281.89 226.113 1283.82 228.506 1286.56 229.873V235.732ZM1335.24 245.645C1335.24 247.402 1336.04 248.672 1337.63 249.453C1338.35 249.779 1339.14 250.072 1340.02 250.332C1340.93 250.592 1341.85 250.918 1342.76 251.309V254.434H1313.85V251.309C1314.57 250.885 1315.32 250.56 1316.1 250.332C1316.91 250.137 1317.66 249.893 1318.34 249.6C1319.91 248.916 1320.69 247.598 1320.69 245.645V194.424C1320.69 192.699 1319.92 191.527 1318.39 190.908C1317.74 190.648 1317.04 190.436 1316.29 190.273C1315.58 190.078 1314.91 189.769 1314.29 189.346V185.928H1334.46L1335.24 192.129V245.645ZM1342.46 190.811C1341.46 190.811 1340.5 191.038 1339.58 191.494V186.221C1341.28 185.374 1343.49 184.951 1346.22 184.951C1348.96 184.951 1351.58 185.651 1354.09 187.051C1356.59 188.418 1358.76 190.273 1360.58 192.617C1364.45 197.663 1366.39 203.734 1366.39 210.83C1366.39 218.057 1364.37 224.03 1360.34 228.75C1356.33 233.405 1351.34 235.732 1345.35 235.732C1343.16 235.732 1341.24 235.407 1339.58 234.756V229.336C1340.3 229.694 1341.11 229.873 1342.03 229.873C1347.49 229.873 1350.23 223.363 1350.23 210.342C1350.23 197.321 1347.64 190.811 1342.46 190.811ZM1391.39 190.811C1388.4 191.624 1386.9 193.04 1386.9 195.059C1386.9 198.314 1389.75 201.032 1395.44 203.213C1399.94 204.938 1403.11 206.289 1404.96 207.266C1406.85 208.21 1408.43 209.251 1409.7 210.391C1412.53 212.995 1413.95 216.234 1413.95 220.107C1413.95 224.697 1412.21 228.376 1408.72 231.143C1405.34 233.812 1401.01 235.342 1395.74 235.732V229.873C1399.15 229.059 1400.86 227.171 1400.86 224.209C1400.86 221.149 1398.06 218.529 1392.46 216.348C1388.07 214.655 1384.95 213.337 1383.09 212.393C1381.27 211.449 1379.74 210.423 1378.5 209.316C1375.73 206.842 1374.35 203.799 1374.35 200.186C1374.35 196.279 1376.01 192.812 1379.33 189.785C1382.68 186.758 1386.7 185.146 1391.39 184.951V190.811ZM1404.77 191.836C1404.05 191.543 1401.04 191.201 1395.74 190.811V184.951C1401.4 185.179 1405.83 186.53 1409.02 189.004C1411.69 191.087 1413.02 193.398 1413.02 195.938C1413.02 199.095 1411.82 201.178 1409.41 202.188C1408.56 202.513 1407.39 202.676 1405.89 202.676C1404.4 202.676 1403.16 202.204 1402.18 201.26C1401.24 200.283 1400.77 199.095 1400.77 197.695C1400.77 195.319 1402.1 193.366 1404.77 191.836ZM1382.99 228.506C1383.84 229.255 1386.64 229.71 1391.39 229.873V235.732C1385.99 235.309 1381.74 233.877 1378.65 231.436C1376.04 229.352 1374.74 226.976 1374.74 224.307C1374.74 222.549 1375.23 221.117 1376.21 220.01C1377.18 218.87 1378.66 218.301 1380.65 218.301C1382.63 218.301 1384.1 218.74 1385.04 219.619C1386.02 220.498 1386.51 221.637 1386.51 223.037C1386.51 225.479 1385.34 227.301 1382.99 228.506ZM1430.99 214.102C1430.34 208.763 1429.36 202.546 1428.06 195.449C1426.79 188.32 1425.94 183.486 1425.52 180.947C1425.1 178.408 1424.89 176.341 1424.89 174.746C1424.89 173.151 1425.05 171.702 1425.38 170.4C1425.73 169.098 1426.27 167.975 1426.99 167.031C1428.45 165.078 1430.62 164.102 1433.48 164.102C1439.11 164.102 1441.93 167.633 1441.93 174.697C1441.93 176.683 1441.41 180.54 1440.37 186.27C1438.09 199.03 1436.61 208.307 1435.92 214.102H1430.99ZM1426.01 230.996C1425.59 229.954 1425.38 228.831 1425.38 227.627C1425.38 226.39 1425.57 225.251 1425.96 224.209C1426.38 223.167 1426.95 222.256 1427.67 221.475C1429.2 219.814 1431.17 218.984 1433.58 218.984C1435.99 218.984 1437.96 219.814 1439.49 221.475C1441.05 223.135 1441.83 225.169 1441.83 227.578C1441.83 230.02 1441.05 232.07 1439.49 233.73C1437.96 235.391 1435.99 236.221 1433.58 236.221C1429.87 236.221 1427.34 234.479 1426.01 230.996Z" fill="#FFD43C"/>
</svg>
