<svg width="788" height="462" viewBox="0 0 788 462" fill="none" xmlns="http://www.w3.org/2000/svg">
<path d="M133.546 187.763C187.094 167.493 240.702 144.799 291.576 118.5C298.052 115.909 300.603 121.207 305.539 117.505C308.382 115.372 319.539 103.863 334.539 98.8633C345.597 92.9092 343.304 97.2666 355.539 94.3633C386.572 86.9994 405.255 72.4958 432.489 57.4972C466.534 38.7476 504.378 23.0096 542.752 16.3974C575.215 10.8037 608.56 7.49766 641.471 6.04783C650.891 5.63284 663.455 3.65062 672.719 6.5454C683.14 9.80209 687.909 14.8688 695.707 22.6669C706 32.9603 719.073 37.0983 730.836 44.6597C736.861 48.5332 747.358 48.4833 754.122 51.8248C763.156 56.2872 777.163 61.578 780.494 72.1259C785.813 88.9707 778.802 107.744 778.802 125.068C778.802 142.683 780.325 160.948 778.006 178.408C776.523 189.572 773.183 200.421 772.035 211.646C771.587 216.026 772.344 220.913 770.741 225.081C767.539 233.406 761.804 240.42 757.705 248.467C754.592 254.578 750.35 259.602 746.26 265.086C735.236 279.869 728.361 296.764 718.695 312.356C696.497 348.159 657.777 385.801 613.109 381.917C606.537 381.345 600.557 379.785 593.903 380.026C572.674 380.793 553.909 391.283 534.99 399.63C515.504 408.227 495.031 415.282 475.281 423.414C456.802 431.023 436.907 430.599 417.462 434.56C403.002 437.506 388.443 438.666 373.775 440.133C353.46 442.165 335.834 448.419 316.454 454.264C300.386 459.11 281.453 455.689 264.906 455.259C244.83 454.738 227.485 450.6 208.978 443.019C198.532 438.74 187.413 435.534 177.531 430.082C164.06 422.65 148.008 420.871 133.546 416.05L132.379 415.661C121.392 411.998 111.254 408.617 99.7103 406.099C77.7521 401.31 48.3395 396.876 30.1492 381.718C19.3885 372.75 15.4975 361.766 9.94765 349.972C6.00442 341.593 11.6316 330.85 7.55928 322.705C4.82949 317.246 4.62996 312.397 5.36995 306.385C8.85588 278.061 15.7135 248.908 41.5935 232.047C70.0307 213.52 101.868 199.753 133.546 187.763Z" fill="white" stroke="black" stroke-width="10" stroke-linecap="round"/>
<path d="M98.8554 298.385C100.405 298.229 101.569 298.321 102.346 298.661C103.18 298.979 103.783 299.612 104.155 300.562C104.33 301.009 104.476 301.629 104.593 302.42C104.963 305.175 105.613 307.82 106.542 310.356C107.602 313.227 109.078 315.678 110.969 317.708C111.633 318.415 112.181 318.909 112.613 319.19C113.08 319.394 113.536 319.409 113.983 319.233C114.542 319.015 115.071 318.227 115.571 316.871C116.675 313.604 117.248 310.544 117.291 307.692C117.333 304.839 116.952 302.057 116.147 299.344C115.636 297.546 115.488 296.347 115.704 295.747C115.84 295.436 116.148 295.154 116.629 294.901C117.11 294.649 117.826 294.336 118.775 293.964C120.327 293.485 121.416 293.219 122.04 293.168C122.72 293.095 123.249 293.21 123.625 293.514C124.002 293.817 124.365 294.416 124.716 295.31L126.175 299.281C126.503 300.119 126.957 301.359 127.536 303.001C129.338 308.095 130.665 311.892 131.516 314.394C132.226 316.371 132.603 319.059 132.646 322.458C132.599 322.669 132.391 323.041 132.019 323.573C131.626 324.049 131.245 324.392 130.875 324.601C130.764 324.645 130.447 324.576 129.924 324.394C129.436 324.134 129.053 323.897 128.776 323.684C128.035 322.943 127.117 321.917 126.024 320.606L124.729 319.276L124.365 318.839L124.212 319.189L123.199 320.552C122.748 321.374 122.197 322.105 121.546 322.747C120.568 324.032 119.184 325.025 117.397 325.726C115.162 326.601 112.799 326.818 110.306 326.377C107.791 325.88 105.521 324.772 103.494 323.053C100.281 320.445 97.8102 316.935 96.0811 312.522C95.2056 310.287 94.4075 307.345 93.6868 303.697C93.4702 302.815 93.7164 301.881 94.4254 300.894C95.0226 299.951 95.8798 299.261 96.9971 298.823C97.5558 298.605 98.1752 298.459 98.8554 298.385ZM162.778 306.205C161.803 308.65 160.337 310.255 158.382 311.021C156.762 311.656 154.85 311.793 152.646 311.432L155.383 319.156C157.292 324.852 159.057 329.767 160.676 333.901C160.983 334.683 161.52 335.89 162.289 337.522C163.057 339.154 163.594 340.361 163.901 341.144C164.229 341.982 164.442 342.607 164.539 343.02C164.68 343.545 164.553 344.207 164.158 345.006C163.784 345.861 163.322 346.493 162.774 346.902C162.37 347.188 162.085 347.365 161.917 347.43C160.633 347.934 159.157 347.868 157.49 347.232C155.879 346.574 154.861 345.62 154.435 344.369C152.905 340.135 150.754 333.986 147.981 325.922L141.41 307.424C140.209 304.029 138.908 301.284 137.508 299.191C137.133 298.564 136.902 298.139 136.815 297.916C136.465 297.022 136.442 296.225 136.748 295.525C137.11 294.803 137.716 294.212 138.566 293.75C139.919 293.091 140.894 292.29 141.491 291.347C142.066 290.348 142.639 288.932 143.209 287.097C144.235 283.796 145.949 281.674 148.352 280.733C151.033 279.682 154.723 280.137 159.423 282.098C161.578 282.994 163.159 284.726 164.166 287.296C164.538 288.246 164.826 289.228 165.031 290.244C165.559 292.743 165.574 295.25 165.077 297.765C164.636 300.258 163.87 303.071 162.778 306.205ZM149.502 295.265C149.586 299.098 150.143 302.328 151.171 304.953C151.412 305.568 151.615 306.004 151.781 306.261L152.983 306.37C153.969 305.597 154.759 304.16 155.353 302.058C155.948 299.956 156.242 297.747 156.236 295.429C156.264 293.034 155.972 291.054 155.359 289.49C155.096 288.82 154.694 288.204 154.152 287.643C153.477 287.07 152.748 286.937 151.966 287.243C150.96 287.637 150.376 288.285 150.214 289.186C150.134 289.475 149.983 290.243 149.763 291.489C149.542 292.736 149.455 293.994 149.502 295.265ZM194.601 290.064C195.003 293.064 194.717 295.625 193.744 297.746C192.771 299.868 191.222 301.344 189.1 302.176C186.362 303.248 183.165 303.148 179.508 301.874C181.194 299.925 182.272 298.729 182.743 298.287C183.933 297.047 184.717 295.677 185.095 294.175C185.529 292.652 185.462 291.164 184.893 289.711C184.696 289.209 184.515 288.829 184.349 288.571C183.7 287.408 182.906 286.204 181.968 284.961C181.008 283.662 180.385 282.81 180.098 282.407C179.446 281.567 178.525 280.285 177.334 278.56C176.452 277.295 175.586 275.991 174.738 274.648C173.889 273.305 173.246 272.075 172.809 270.957C172.086 269.114 171.821 267.285 172.012 265.47C172.237 263.577 173.054 261.55 174.462 259.387C175.059 258.444 175.801 257.541 176.687 256.678C177.629 255.794 178.592 255.127 179.576 254.677C180.258 254.28 181.123 254.103 182.17 254.144C183.273 254.163 184.046 254.408 184.488 254.879C184.908 255.294 185.109 256.053 185.09 257.156C185.049 258.203 184.837 259.059 184.454 259.725C182.155 263.397 181.697 266.669 183.08 269.543C183.849 271.175 185.259 273.458 187.31 276.392C188.679 278.24 189.77 279.874 190.585 281.295C190.816 281.72 191.306 282.559 192.054 283.812C192.859 285.044 193.48 286.218 193.918 287.335C194.312 288.341 194.539 289.251 194.601 290.064ZM202.276 251.486C199.111 253.113 195.876 252.833 192.571 250.648C193.8 248.685 195.252 247.375 196.928 246.718C198.883 245.952 200.854 246.211 202.839 247.496C203.327 247.755 203.681 248.164 203.9 248.723C204.097 249.226 204.037 249.732 203.722 250.243C203.406 250.753 202.924 251.167 202.276 251.486ZM212.967 268.659C213.437 270.022 214.085 272.088 214.912 274.857L216.773 281.087C217.058 281.813 217.448 282.563 217.944 283.335C218.44 284.107 218.77 284.622 218.936 284.88C219.398 285.73 219.509 286.588 219.268 287.456C219.006 288.267 218.484 288.826 217.702 289.133C217.367 289.264 217.105 289.335 216.915 289.344C214.797 289.53 212.893 289.277 211.205 288.585C209.494 287.838 208.273 286.447 207.541 284.414C207.246 283.499 206.749 282.147 206.049 280.359C205.261 278.348 204.642 276.851 204.192 275.867C203.886 275.085 203.486 274.146 202.992 273.051C202.554 271.933 202.068 270.61 201.533 269.079C201.304 268.331 201.165 267.484 201.116 266.536C201.067 265.589 201.199 265.021 201.513 264.834C202.341 264.316 203.313 263.839 204.431 263.401C205.883 262.832 207.043 262.667 207.911 262.907C208.567 263.102 209.194 263.468 209.791 264.007C210.389 264.546 211.103 265.298 211.931 266.262C212.617 267.024 213.159 267.585 213.557 267.945L212.967 268.659ZM258.809 265.004C259.293 265.91 260.194 266.975 261.511 268.199C261.732 268.434 261.964 268.698 262.207 268.989C262.506 269.259 262.827 269.584 263.17 269.965C261.686 271.771 260.386 272.893 259.268 273.331C258.43 273.659 257.55 273.714 256.627 273.496C255.681 273.222 254.532 272.673 253.179 271.85C252.202 271.331 251.49 271.158 251.043 271.333C250.596 271.509 250.264 272.058 250.045 272.981C249.585 275.095 248.681 276.899 247.333 278.393C246.041 279.866 244.473 280.964 242.63 281.686C240.563 282.496 238.366 282.809 236.038 282.625C233.745 282.364 231.739 281.603 230.021 280.343C228.225 279.049 226.66 276.698 225.325 273.29C224.362 270.832 223.723 268.215 223.408 265.438C223.094 262.662 223.233 260.223 223.828 258.121C224.446 255.752 225.469 253.676 226.897 251.892C228.303 250.053 230.123 248.695 232.358 247.819C233.084 247.535 233.653 247.344 234.066 247.247C234.256 247.237 234.518 247.166 234.853 247.035C236.138 246.532 236.54 245.665 236.058 244.436L235.712 243.799C232.413 237.681 229.865 233.234 228.068 230.458C227.903 230.2 227.644 229.786 227.292 229.215C226.939 228.645 226.686 228.164 226.533 227.773C226.227 226.991 226.132 226.255 226.248 225.565C226.342 224.819 226.732 224.086 227.417 223.367C227.686 223.068 228.045 222.831 228.491 222.656C229.665 222.196 231.047 222.106 232.638 222.384C234.208 222.607 235.29 223.15 235.886 224.012C238.081 227.147 240.625 231.338 243.518 236.584L250.017 248.73C253.887 255.978 256.818 261.402 258.809 265.004ZM232.331 263.296C232.454 266.405 232.964 269.105 233.862 271.395C235.109 274.58 237.146 276.488 239.971 277.121C240.668 276.268 241.148 275.436 241.41 274.624C241.706 273.735 241.976 272.534 242.221 271.02L242.519 269.067C243.081 266.72 243.11 264.325 242.603 261.881C242.153 259.415 241.294 256.401 240.027 252.838C239.886 252.313 239.555 251.798 239.035 251.293C238.549 250.71 238.155 250.446 237.854 250.499C237.363 250.562 236.664 250.998 235.755 251.805C234.825 252.556 234.297 253.181 234.171 253.682C233.477 255.694 232.958 257.411 232.614 258.835C232.325 260.237 232.231 261.724 232.331 263.296ZM283.245 251.661C282.818 252.215 282.073 252.7 281.012 253.115C280.621 253.269 280.135 253.427 279.555 253.59C278.974 253.753 278.499 253.939 278.13 254.148C279.299 255.816 280.952 256.909 283.087 257.425C285.201 257.886 287.291 257.712 289.358 256.902C291.146 256.201 292.585 255.186 293.675 253.857C295.326 251.986 296.621 250.028 297.561 247.985C298.206 246.508 299.004 245.583 299.954 245.211C300.568 244.97 301.219 245.069 301.907 245.509C302.638 246.06 303.212 246.866 303.628 247.928C304.066 249.045 304.182 249.998 303.975 250.788C303.398 253.592 302.101 255.872 300.083 257.63C298.121 259.365 295.603 260.835 292.531 262.038C289.346 263.286 286 263.791 282.492 263.555C278.984 263.318 275.698 262.415 272.634 260.844C269.604 259.196 267.174 257.023 265.343 254.325C264.218 252.768 263.327 251.152 262.67 249.476C261.641 246.85 261.536 244.443 262.354 242.253C263.227 240.042 265.028 237.565 267.755 234.821C270.268 232.354 272.809 230.617 275.379 229.611C277.223 228.888 279.12 228.467 281.071 228.347C287.09 227.922 290.669 229.162 291.807 232.067C292.53 233.91 292.316 236.572 291.166 240.051C290.586 241.696 289.756 243.278 288.675 244.797C287.595 246.315 286.51 247.739 285.419 249.069C284.363 250.32 283.638 251.184 283.245 251.661ZM280.691 234.779C280.525 234.522 280.214 234.386 279.758 234.371C279.335 234.279 279.085 234.216 279.007 234.182C277.455 234.661 276.094 235.71 274.923 237.329C273.731 238.891 272.9 240.635 272.429 242.559C272.015 244.461 272.081 246.111 272.628 247.507L272.975 248.145C273.118 248.346 273.507 248.516 274.141 248.655C274.831 248.771 275.21 248.751 275.278 248.596C278.084 244.081 280.143 240.536 281.454 237.96C281.658 237.493 281.584 236.813 281.234 235.919C281.015 235.361 280.834 234.981 280.691 234.779ZM346.559 234.201C345.786 234.697 345.009 235.098 344.227 235.404C342.383 236.127 340.465 236.33 338.473 236.015C336.481 235.7 334.258 234.96 331.804 233.795L331.819 236.302C331.913 238.843 331.949 240.086 331.927 240.03C332.144 242.394 331.582 244.579 330.242 246.586C328.88 248.538 327.082 249.951 324.847 250.827C323.283 251.44 321.654 251.723 319.961 251.678C318.246 251.577 316.589 251.13 314.99 250.339C311.127 248.373 308.527 245.686 307.192 242.278C305.726 238.535 305.797 234.029 307.405 228.759C308.123 226.48 309.256 224.683 310.803 223.368C312.405 222.031 314.436 220.881 316.894 219.918C318.067 219.458 318.807 218.879 319.112 218.179C319.418 217.479 319.264 216.509 318.648 215.268C315.901 209.9 313.619 204.898 311.802 200.261C311.299 198.976 310.811 197.073 310.339 194.551C310.124 193.347 310.305 192.245 310.88 191.246C311.433 190.192 312.297 189.434 313.47 188.975C313.861 188.822 314.151 188.74 314.341 188.73C317.219 188.182 319.195 189.277 320.267 192.015L322.503 197.228C326.842 207.643 330.252 215.361 332.735 220.381C333.437 221.846 334.342 223.167 335.447 224.345C336.609 225.501 338.247 227.05 340.362 228.993C340.86 229.442 341.861 229.694 343.364 229.749C343.576 229.795 343.91 229.826 344.367 229.84C344.879 229.832 345.291 229.897 345.602 230.033C346.236 230.171 346.897 230.46 347.585 230.899C348.251 231.282 348.711 231.553 348.966 231.711C348.641 232.032 348.236 232.48 347.753 233.056C347.304 233.554 346.906 233.936 346.559 234.201ZM317.079 226.805C316.033 228.246 315.446 230.119 315.318 232.425C315.168 234.675 315.498 236.833 316.308 238.9C317.468 241.861 319.365 243.824 321.999 244.79C322.605 241.073 322.89 237.771 322.855 234.885C322.797 231.943 322.244 229.131 321.193 226.45C320.733 225.277 319.945 224.909 318.828 225.347C318.213 225.588 317.63 226.074 317.079 226.805ZM379.635 196.206C380.532 197.015 381.428 197.985 382.322 199.117C383.251 200.171 383.875 200.86 384.196 201.186L385.804 203.069C386.381 206.516 386.739 209.404 386.879 211.734C386.996 214.008 386.763 216.29 386.178 218.581C385.572 220.816 384.37 222.93 382.574 224.923C380.922 226.795 378.924 228.19 376.577 229.109C374.008 230.116 371.292 230.503 368.43 230.271C365.624 230.018 363.006 229.174 360.576 227.742C358.124 226.254 356.244 224.252 354.936 221.736C354.299 220.439 353.838 219.427 353.554 218.701C352.788 216.746 352.367 214.848 352.291 213.009C352.27 211.149 352.752 209.252 353.735 207.321C354.028 206.754 354.236 205.803 354.357 204.467C354.465 203.264 354.645 202.324 354.895 201.646C356.256 198.213 358.557 195.862 361.797 194.592C363.417 193.958 365.459 193.576 367.922 193.449C368.245 193.451 369.298 193.425 371.082 193.371C372.92 193.295 374.546 193.496 375.957 193.974C377.369 194.452 378.595 195.196 379.635 196.206ZM363.971 199.154C362.561 201.639 361.868 204.231 361.894 206.927C361.953 209.546 362.414 212.942 363.275 217.115C363.562 217.518 364.186 218.37 365.146 219.669C366.106 220.968 367.106 222.123 368.146 223.133C369.352 224.401 370.737 224.728 372.301 224.115C372.58 224.006 373.089 223.742 373.827 223.324C375.428 222.31 376.553 220.741 377.203 218.618C377.887 216.417 378.155 214.056 378.006 211.537C377.856 209.018 377.41 206.809 376.665 204.909C375.199 201.166 372.426 198.612 368.347 197.246C367.324 196.938 366.505 196.904 365.89 197.145C365.22 197.408 364.58 198.077 363.971 199.154ZM424.351 200.532C424.196 200.464 423.297 199.979 421.654 199.076C421.496 204.1 421.31 207.491 421.097 209.25C420.853 212.245 419.697 214.148 417.63 214.958C416.681 215.33 415.415 215.471 413.834 215.382C411.161 215.14 408.783 214.332 406.698 212.958C404.613 211.584 402.654 209.71 400.821 207.335C398.215 203.973 395.656 200.401 393.142 196.617C392.812 196.102 392.603 195.733 392.515 195.51C391.99 194.169 392.244 192.845 393.279 191.537C394.031 190.663 394.771 190.083 395.497 189.798C396.223 189.514 397.16 189.437 398.306 189.568C400.121 189.759 401.572 190.254 402.658 191.052C403.778 191.773 404.695 192.961 405.407 194.615C405.944 195.822 407.025 197.429 408.649 199.435C410.25 201.385 411.157 202.383 411.368 202.429C411.448 202.14 411.613 201.656 411.863 200.978C412.113 200.3 412.262 199.694 412.311 199.16L412.604 195.468C412.851 192.15 413.169 189.673 413.56 188.038C413.836 186.77 414.323 185.709 415.019 184.856C415.772 183.981 416.651 183.347 417.657 182.953C419.445 182.252 421.427 182.378 423.604 183.329C424.248 183.657 425.083 184.554 426.109 186.021C426.583 186.737 427.183 187.694 427.91 188.892C429.286 191.252 430.56 193.105 431.731 194.451C432.439 195.269 433.183 195.525 433.965 195.219C434.692 194.934 435.159 194.236 435.367 193.123C435.789 190.251 436.125 186.833 436.376 182.868C436.472 180.317 436.678 178.046 436.993 176.054C437.308 174.061 438.045 171.42 439.205 168.131C439.501 167.241 440.036 166.387 440.811 165.568C441.563 164.693 442.342 164.131 443.146 163.88C443.726 163.717 444.37 164.045 445.077 164.863C445.785 165.682 446.368 166.677 446.828 167.85C447.047 168.409 447.232 169.046 447.383 169.76C447.629 171.21 447.736 172.553 447.705 173.79C447.674 175.026 447.601 176.731 447.485 178.902C447.333 181.475 447.249 183.151 447.232 183.931L446.799 186.034C445.98 190.028 445.319 192.865 444.817 194.544C444.065 196.9 442.878 199.299 441.256 201.738C440.659 202.681 439.885 203.339 438.936 203.711C438.154 204.017 437.345 204.173 436.509 204.178C435.651 204.128 434.811 204.038 433.987 203.91C433.142 203.725 432.508 203.587 432.085 203.495C430.649 203.284 428.704 202.596 426.25 201.431C425.429 200.98 424.796 200.68 424.351 200.532ZM467.759 162.646C467.803 162.758 467.924 162.904 468.123 163.083C468.378 163.241 468.595 163.382 468.772 163.506L469.943 158.601C470.38 156.754 471.298 155.396 472.697 154.525C474.129 153.577 475.541 153.314 476.931 153.736C480.366 154.775 483.09 156.382 485.102 158.558L488.27 161.956L496.964 175.756C497.856 177.211 499.065 178.735 500.591 180.328C501.52 181.381 502.188 182.183 502.597 182.732L504.467 185.285C503.19 186.301 502.076 186.995 501.126 187.367C497.663 188.725 494.983 187.97 493.087 185.104C491.247 182.217 489.065 178.786 486.541 174.813L483.996 170.784C481.058 167.231 478.817 165.789 477.275 166.457C475.711 167.07 474.806 168.134 474.561 169.647C474.179 171.795 474.297 173.907 474.918 175.984C475.572 177.983 476.534 180.603 477.803 183.843C478.006 185.181 477.926 186.211 477.564 186.933C477.181 187.599 476.402 188.161 475.229 188.621C472.548 189.672 470.609 188.917 469.412 186.357C467.963 183.316 466.472 179.84 464.94 175.93C464.503 174.813 464.008 173.879 463.456 173.128C462.904 172.378 462.237 172.156 461.455 172.462C461.12 172.594 460.684 172.797 460.147 173.071C459.666 173.324 459.275 173.477 458.974 173.531C457.881 173.702 456.938 173.845 456.147 173.962C455.355 174.079 454.586 174.09 453.84 173.996C453.128 173.824 452.653 173.269 452.414 172.331C452.21 171.316 452.167 170.302 452.286 169.289C452.458 168.577 452.669 167.882 452.919 167.204C453.203 166.448 453.604 165.582 454.124 164.605C455.49 162.008 457.364 160.21 459.744 159.213C461.51 158.457 463.014 158.512 464.255 159.379C465.553 160.224 466.721 161.313 467.759 162.646ZM496.683 147.061C496.117 146.767 495.651 146.402 495.287 145.965C494.978 145.506 494.593 144.851 494.131 144.001C494.174 142.631 494.866 141.683 496.207 141.158C496.921 141.007 497.418 140.877 497.697 140.767C498.814 140.329 499.381 139.721 499.398 138.941C499.415 138.161 499.248 137.324 498.898 136.43C498.547 135.536 498.274 134.838 498.077 134.335L496.358 129.209C495.976 128.07 495.496 126.679 494.917 125.037C494.372 123.317 493.729 121.346 492.987 119.124C492.583 117.929 492.523 116.953 492.807 116.198C493.147 115.42 493.792 114.845 494.741 114.473C495.412 114.211 495.964 114.059 496.399 114.017C498.887 113.623 500.708 113.747 501.862 114.39C503.016 115.033 504.105 116.25 505.128 118.04C505.337 118.409 505.599 119.241 505.913 120.536L509.526 134.199C509.602 134.556 509.682 135.008 509.767 135.555C509.831 136.045 509.906 136.403 509.994 136.626C510.191 137.129 510.601 137.355 511.226 137.303C511.85 137.252 512.905 136.903 514.392 136.256C516.743 134.691 518.556 133.561 519.831 132.868C520.088 132.703 520.524 132.5 521.139 132.259C521.809 131.997 522.289 131.905 522.578 131.985C522.845 132.01 523.144 132.279 523.475 132.794C523.839 133.231 524.153 133.785 524.416 134.455C524.656 135.07 524.792 135.661 524.821 136.23C524.906 136.776 524.848 137.121 524.646 137.265C523.313 138.303 521.668 139.366 519.71 140.455C517.427 141.865 515.765 142.968 514.723 143.763C514.174 144.171 513.724 144.831 513.372 145.742C513.02 146.653 512.926 147.399 513.089 147.979C514.049 150.761 515.06 153.587 516.12 156.458C516.918 158.658 517.856 160.804 518.933 162.895C519.823 164.673 520.711 165.872 521.598 166.491C522.463 167.054 523.454 167.117 524.572 166.679C525.465 166.329 526.63 165.518 528.065 164.247C528.806 163.506 529.511 163.004 530.182 162.741C531.243 162.325 532.227 162.616 533.134 163.614C533.454 163.94 533.691 164.298 533.845 164.689C534.129 165.415 534.08 166.111 533.696 166.777C533.369 167.421 532.823 168.086 532.061 168.771C530.626 170.042 529.053 171.045 527.343 171.779C524.997 172.699 522.571 173.005 520.067 172.697C517.54 172.334 515.257 171.359 513.218 169.774C511.235 168.167 509.802 165.989 508.919 163.242C508.559 162.159 507.93 160.472 507.033 158.181C505.61 154.55 504.026 150.918 502.28 147.284C502.093 146.971 501.81 146.824 501.431 146.844C501.03 146.807 500.406 146.859 499.558 146.998C498.186 147.278 497.227 147.299 496.683 147.061ZM542.517 155.395C542.322 154.569 541.929 153.402 541.339 151.894L539.318 146.982L532.599 132.796L532.023 131.571C530.863 128.611 531.54 126.638 534.054 125.653C534.668 125.412 535.287 125.427 535.909 125.699C536.587 125.949 537.121 125.998 537.512 125.844C538.35 125.516 538.934 124.868 539.264 123.901C539.628 122.857 540.02 121.801 540.44 120.734C541.131 119.046 542.117 117.532 543.397 116.193C544.732 114.832 546.21 113.834 547.83 113.199C549.394 112.586 550.728 112.289 551.831 112.308C552.154 112.31 552.56 112.441 553.048 112.701C553.571 112.883 553.876 113.086 553.963 113.309C554.051 113.533 554.014 113.934 553.854 114.512C553.728 115.012 553.564 115.334 553.363 115.478C551.359 116.778 549.821 118.444 548.748 120.476C547.731 122.485 547.201 124.175 547.158 125.545C547.148 126.837 547.299 129.195 547.609 132.618C547.785 134.547 548.094 136.488 548.537 138.441C549.014 140.316 549.828 142.639 550.978 145.41C551.031 145.712 551.157 146.114 551.354 146.616C551.638 147.343 552.077 148.298 552.67 149.484C553.307 150.781 553.735 151.709 553.954 152.267C555.049 155.06 555.365 156.773 554.904 157.405C554.185 158.202 553.099 158.885 551.647 159.454C550.474 159.914 549.469 160.146 548.634 160.151C545.748 160.187 543.812 158.947 542.827 156.433C542.652 155.986 542.549 155.64 542.517 155.395ZM582.102 134.569C581.675 135.123 580.93 135.608 579.869 136.024C579.478 136.177 578.992 136.336 578.412 136.499C577.831 136.662 577.356 136.848 576.987 137.057C578.156 138.725 579.809 139.818 581.944 140.334C584.058 140.795 586.148 140.62 588.215 139.81C590.003 139.11 591.442 138.095 592.532 136.766C594.183 134.895 595.479 132.937 596.418 130.894C597.063 129.416 597.861 128.492 598.811 128.12C599.425 127.879 600.076 127.978 600.764 128.418C601.496 128.969 602.069 129.775 602.485 130.836C602.923 131.954 603.039 132.907 602.832 133.697C602.255 136.5 600.958 138.781 598.94 140.538C596.978 142.274 594.46 143.743 591.388 144.947C588.204 146.195 584.857 146.7 581.349 146.464C577.841 146.227 574.555 145.323 571.491 143.753C568.461 142.105 566.031 139.932 564.2 137.233C563.075 135.677 562.184 134.06 561.527 132.384C560.499 129.759 560.393 127.351 561.211 125.162C562.084 122.951 563.885 120.474 566.612 117.73C569.125 115.263 571.667 113.526 574.236 112.519C576.08 111.797 577.977 111.376 579.928 111.256C585.947 110.831 589.526 112.071 590.664 114.976C591.387 116.819 591.173 119.48 590.023 122.96C589.443 124.605 588.613 126.187 587.532 127.705C586.452 129.224 585.367 130.648 584.277 131.977C583.22 133.229 582.496 134.093 582.102 134.569ZM579.548 117.688C579.383 117.43 579.071 117.294 578.615 117.28C578.192 117.188 577.942 117.125 577.864 117.091C576.312 117.57 574.951 118.619 573.78 120.237C572.588 121.8 571.757 123.543 571.287 125.468C570.872 127.37 570.938 129.019 571.485 130.416L571.832 131.054C571.975 131.255 572.364 131.425 572.998 131.563C573.688 131.68 574.067 131.66 574.135 131.504C576.941 126.99 579 123.444 580.311 120.869C580.515 120.402 580.441 119.722 580.091 118.828C579.872 118.269 579.691 117.889 579.548 117.688ZM644.585 99.9394C643.641 97.8603 642.135 96.6462 640.065 96.2973C638.855 97.1578 637.93 98.0036 637.289 98.8347C636.648 99.6658 636.23 100.409 636.036 101.065C635.82 101.666 635.472 102.833 634.992 104.568C634.832 105.146 634.71 105.903 634.625 106.838C634.596 107.751 634.587 108.303 634.597 108.492C634.582 108.949 634.663 109.401 634.838 109.848C634.969 110.183 635.233 110.692 635.629 111.374C636.059 111.979 636.323 112.488 636.42 112.901C636.693 113.761 637.235 115.063 638.047 116.807L639.149 119.371C639.455 120.154 639.657 120.751 639.755 121.164C639.993 122.102 640.02 122.993 639.836 123.839C639.652 124.684 639.168 125.26 638.386 125.567C638.107 125.676 637.711 125.734 637.198 125.742C636.764 125.783 636.045 125.84 635.041 125.911C634.038 125.981 633.176 125.836 632.454 125.474C631.71 125.057 631.12 124.289 630.682 123.172C629.544 120.267 627.557 116.019 624.722 110.428C624.37 109.857 623.853 108.868 623.172 107.459C622.876 106.866 622.41 106.501 621.776 106.363C621.142 106.224 620.462 106.298 619.736 106.582C618.562 107.042 617.789 107.699 617.415 108.554C615.414 111.014 614.189 113.395 613.738 115.698C613.287 118.001 613.631 120.606 614.769 123.511L615.969 126.327C616.691 128.17 616.884 130.06 616.547 131.997C616.465 132.609 616.053 133.286 615.313 134.027C614.606 134.69 613.923 135.087 613.265 135.216C612.685 135.379 611.956 135.245 611.079 134.816C610.235 134.308 609.704 133.775 609.485 133.217C607.479 128.59 605.568 123.958 603.751 119.321C602.11 115.131 600.94 111.981 600.242 109.87C599.882 108.787 599.916 107.806 600.346 106.929C600.776 106.052 601.465 105.427 602.415 105.055C603.644 104.574 604.909 104.594 606.208 105.116C607.083 105.868 607.776 106.403 608.286 106.718C608.775 106.978 609.214 107.031 609.605 106.878C609.941 106.747 610.266 106.426 610.582 105.915C610.875 105.349 611.249 104.494 611.703 103.35C612.758 100.616 614.292 98.8555 616.303 98.0675C618.482 97.2139 621.534 97.2745 625.46 98.2494C625.749 98.3295 626.155 98.4605 626.678 98.6425C627.178 98.7686 627.568 98.7769 627.847 98.6675C628.238 98.5143 628.678 97.8266 629.166 96.6044C631.156 92.4737 634.499 89.3275 639.193 87.1658C640.68 86.519 642.418 86.5146 644.408 87.1527C646.432 87.713 647.968 88.7545 649.015 90.2772C650.802 92.8637 652.59 96.0296 654.38 99.7748C656.991 105.454 658.838 109.756 659.92 112.683C660.39 114.046 660.443 115.25 660.079 116.294C659.693 117.283 658.969 117.986 657.908 118.401C657.07 118.73 656.077 118.829 654.931 118.698C654.474 118.683 653.991 118.519 653.48 118.203C652.97 117.887 652.649 117.562 652.518 117.227L648.535 108.541C648.107 107.613 647.58 106.434 646.956 105.004C646.309 103.517 645.518 101.829 644.585 99.9394ZM675.838 128.389C669.906 113.25 665.435 101.92 662.424 94.3999C661.855 92.9474 661.641 91.7426 661.781 90.7853C661.956 89.7504 662.615 88.7188 663.759 87.6907C665.721 85.9554 668.155 83.6161 671.062 80.6729L674.664 77.0383C675.281 76.4745 676.254 75.9967 677.582 75.605C680.966 74.5371 683.668 74.4448 685.69 75.3282C687.69 76.1558 689.204 77.8824 690.233 80.5081C690.802 81.9606 691.267 83.9694 691.627 86.5346C691.966 89.044 691.824 92.5471 691.202 97.0441C690.671 101.118 688.73 103.812 685.378 105.125C684.205 105.585 682.956 105.849 681.629 105.918C680.759 106.001 680.213 106.086 679.989 106.173C678.816 106.633 678.697 107.808 679.63 109.697C681.418 113.766 683.088 117.783 684.642 121.75C685.07 122.677 685.634 124.035 686.335 125.823C686.751 126.884 687.04 127.705 687.203 128.286L688.039 130.665C688.608 132.117 688.62 133.466 688.077 134.71C687.533 135.954 686.535 136.86 685.083 137.429C683.798 137.933 682.494 137.896 681.172 137.318C679.851 136.741 678.938 135.809 678.435 134.524L676.005 128.323L675.838 128.389ZM672.499 92.4825C672.307 92.8154 672.237 93.294 672.288 93.9183C672.373 94.4649 672.498 95.0284 672.661 95.609C672.802 96.1337 672.904 96.6413 672.967 97.132C673.045 97.166 673.112 97.1721 673.168 97.1502C673.279 97.1064 673.374 97.1015 673.452 97.1355C673.583 97.4707 673.841 98.0463 674.225 98.8624C674.609 99.6785 674.989 100.4 675.363 101.026C675.837 101.743 676.357 102.248 676.923 102.542C677.468 102.78 677.991 102.8 678.494 102.603C679.164 102.34 679.714 101.77 680.144 100.893C682.605 96.3202 682.944 90.9354 681.161 84.739C681.052 84.4596 680.636 84.1391 679.914 83.7775C679.193 83.4158 678.815 83.2739 678.781 83.3516C677.679 84.8145 676.542 86.3552 675.372 87.9737C674.18 89.5362 673.222 91.0392 672.499 92.4825Z" fill="black"/>
</svg>
