<svg width="63" height="55" viewBox="0 0 63 55" fill="none" xmlns="http://www.w3.org/2000/svg">
<path d="M3.00986 10.5486C3.10788 0.943048 19.9884 3.24056 26.1778 3.24056C33.8746 3.24056 35.9737 4.63997 43.6704 4.63997C45.4065 4.63997 51.1489 3.64426 52.4556 4.95095C53.9474 6.44276 51.9738 9.92383 53.4663 11.7147C55.4002 14.0354 56.1008 17.3897 57.2758 20.0334C60.2181 26.6538 59.7636 33.7565 59.7636 41.0246C59.7636 44.5415 60.1775 48.2691 58.3642 51.4424C57.8758 52.297 52.863 50.8204 51.3671 50.8204H28.3547C20.005 50.8204 3.78731 55.5444 3.78731 43.8234C3.78731 32.7442 2.89719 21.5906 3.00986 10.5486Z" fill="white" stroke="#F41917" stroke-width="5" stroke-linecap="round"/>
<path d="M41.1613 17.7115C41.1613 17.7115 43.4277 16.8277 43.2388 18.974C43.1759 19.8578 42.6093 22.9509 42.1686 26.2965L40.6576 36.2072C40.6576 36.2072 40.5317 37.659 39.3985 37.9116C38.2652 38.164 36.5655 37.0278 36.2506 36.7753C35.9988 36.5859 31.529 33.7453 29.955 32.3565C29.5143 31.9778 29.0107 31.2203 30.018 30.3365L36.6284 24.024C37.3839 23.2665 38.1394 21.499 34.9915 23.6453L26.1776 29.6422C26.1776 29.6422 25.1703 30.2734 23.2817 29.7053L19.1895 28.4428C19.1895 28.4428 17.6785 27.4959 20.2598 26.549C26.5554 23.5821 34.299 20.5521 41.1613 17.7115Z" fill="#0149AD"/>
</svg>
