<svg width="659" height="138" viewBox="0 0 659 138" fill="none" xmlns="http://www.w3.org/2000/svg">
<path d="M20.752 34.6465C18.9941 36.1764 18.1152 38.2598 18.1152 40.8965C18.1152 43.5332 18.7174 45.584 19.9219 47.0488C21.1263 48.4811 22.8516 49.6693 25.0977 50.6133V20.6816H30.9082V52.7129C33.5775 53.8197 36.1328 54.9753 38.5742 56.1797C41.0482 57.3516 43.2292 58.7513 45.1172 60.3789C49.3164 63.9596 51.416 68.6634 51.416 74.4902C51.416 79.2754 49.9674 83.5885 47.0703 87.4297C44.1406 91.3034 40.2181 93.9889 35.3027 95.4863L35.2539 89.1875C37.9557 87.1693 39.3066 84.2396 39.3066 80.3984C39.3066 76.362 37.7279 73.2695 34.5703 71.1211C33.5286 70.4375 32.3079 69.8027 30.9082 69.2168V105.008H25.0977V67.3125C19.5638 65.099 15.6738 63.0319 13.4277 61.1113C11.2142 59.1908 9.53776 57.1562 8.39844 55.0078C7.29167 52.8594 6.73828 50.5319 6.73828 48.0254C6.73828 45.4863 7.03125 43.2891 7.61719 41.4336C8.20312 39.5456 9.08203 37.8203 10.2539 36.2578C12.7279 32.9049 16.2272 30.5124 20.752 29.0801V34.6465ZM13.5254 86.209C13.9486 88.8783 16.3574 90.5872 20.752 91.3359V96.2676C16.2272 95.3887 12.4023 93.4844 9.27734 90.5547C6.08724 87.4622 4.49219 84.0443 4.49219 80.3008C4.49219 77.6315 5.20833 75.5482 6.64062 74.0508C7.91016 72.7161 9.48893 72.0488 11.377 72.0488C13.265 72.0488 14.9089 72.7161 16.3086 74.0508C17.7734 75.4831 18.5059 77.0944 18.5059 78.8848C18.5059 80.6751 18.2943 81.9284 17.8711 82.6445C17.4479 83.3281 16.9596 83.8815 16.4062 84.3047C15.8529 84.7279 15.2995 85.0697 14.7461 85.3301C14.1927 85.5905 13.7858 85.8835 13.5254 86.209ZM38.0371 35.4766C37.6465 34.3372 36.7188 33.4746 35.2539 32.8887V28.3477C41.2435 29.487 45.2637 32.2051 47.3145 36.502C47.9655 37.8691 48.291 39.1875 48.291 40.457C48.291 41.694 48.1445 42.7357 47.8516 43.582C47.5586 44.4284 47.1191 45.1771 46.5332 45.8281C45.2637 47.1953 43.457 47.8789 41.1133 47.8789C37.7279 47.8789 35.5957 46.6419 34.7168 44.168C34.4564 43.4518 34.3262 42.7031 34.3262 41.9219C34.3262 39.9036 35.5632 37.7552 38.0371 35.4766ZM66.9434 39.3828C66.9434 36.7135 66.6829 35.0208 66.1621 34.3047C65.6738 33.556 65.2018 33.084 64.7461 32.8887C64.3229 32.6934 63.8509 32.5306 63.3301 32.4004C62.8092 32.2702 62.2559 32.14 61.6699 32.0098C61.1165 31.8796 60.5469 31.6354 59.9609 31.2773V27.6152H89.9902V31.2773C89.4043 31.6354 88.8346 31.8796 88.2812 32.0098C87.7279 32.14 87.1908 32.2702 86.6699 32.4004C86.1491 32.5306 85.6771 32.6934 85.2539 32.8887C84.8307 33.084 84.4564 33.4258 84.1309 33.9141C83.4473 34.8906 83.1055 36.7135 83.1055 39.3828V85.2812C83.1055 87.9831 83.3496 89.7083 83.8379 90.457C84.3587 91.1732 84.8307 91.6289 85.2539 91.8242C85.7096 92.0195 86.1979 92.1823 86.7188 92.3125C88.2812 92.638 89.3717 92.9961 89.9902 93.3867V97H59.9609V93.3867C60.8398 93.0286 61.6862 92.7682 62.5 92.6055C63.3464 92.4102 64.0951 92.1497 64.7461 91.8242C66.2109 91.1081 66.9434 89.7409 66.9434 87.7227V39.3828ZM127.979 92.4102V34.4512C127.979 32.7259 127.214 31.5378 125.684 30.8867C125.033 30.6263 124.333 30.4147 123.584 30.252C122.835 30.0566 122.152 29.7474 121.533 29.3242V25.9551H142.48V88.7969C142.48 90.4896 143.229 91.6452 144.727 92.2637C145.345 92.5241 145.98 92.752 146.631 92.9473C147.314 93.1426 147.9 93.4518 148.389 93.875V97H128.613L127.979 92.4102ZM123.633 96.2676C121.68 97.2441 119.32 97.7324 116.553 97.7324C113.786 97.7324 111.149 97.0977 108.643 95.8281C106.136 94.526 104.004 92.7682 102.246 90.5547C98.5026 85.9648 96.6309 80.2357 96.6309 73.3672C96.6309 65.9453 98.7956 59.6302 103.125 54.4219C107.324 49.4414 112.321 46.9512 118.115 46.9512C120.361 46.9512 122.201 47.2604 123.633 47.8789V53.4453C122.949 53.0221 121.924 52.8105 120.557 52.8105C119.222 52.8105 118.034 53.3314 116.992 54.373C115.983 55.4147 115.169 56.7982 114.551 58.5234C113.411 61.7461 112.842 65.4896 112.842 69.7539C112.842 74.0182 112.923 77.3711 113.086 79.8125C113.249 82.2539 113.607 84.3698 114.16 86.1602C115.299 89.9688 117.415 91.873 120.508 91.873C121.94 91.873 122.982 91.5801 123.633 90.9941V96.2676ZM180.615 91.873C187.158 91.5475 191.553 87.9342 193.799 81.0332L198.291 83.084C195.85 92.0358 189.958 96.9186 180.615 97.7324V91.873ZM179.15 46.9512C185.856 47.4395 190.885 50.1087 194.238 54.959C197.233 59.2559 198.73 65.0013 198.73 72.1953H173.584V67.2148H183.691C183.691 63.0482 183.366 59.7604 182.715 57.3516C182.096 54.9102 180.908 53.3965 179.15 52.8105V46.9512ZM176.27 97.7324C169.206 97.179 163.509 94.4284 159.18 89.4805C155.143 84.8906 153.125 79.2428 153.125 72.5371C153.125 65.5059 155.16 59.5977 159.229 54.8125C163.265 50.0273 168.457 47.4069 174.805 46.9512V52.8105C172.656 53.5592 171.143 55.5775 170.264 58.8652C169.417 62.153 168.994 65.8639 168.994 69.998C168.994 74.0996 169.092 77.1758 169.287 79.2266C169.515 81.2448 169.906 83.0677 170.459 84.6953C171.598 88.1133 173.535 90.5059 176.27 91.873V97.7324ZM230.42 50.0762C232.992 47.9928 235.645 46.9512 238.379 46.9512C241.113 46.9512 243.343 47.2604 245.068 47.8789C246.826 48.4974 248.307 49.4089 249.512 50.6133C252.083 53.1849 253.369 56.7819 253.369 61.4043V86.7461C253.369 90.0013 254.102 91.8405 255.566 92.2637C256.022 92.3939 256.478 92.5078 256.934 92.6055C258.203 92.8659 259.131 93.2891 259.717 93.875V97H236.523V93.582C236.523 92.8659 236.784 92.2799 237.305 91.8242C237.858 91.3685 238.249 90.9779 238.477 90.6523C238.737 90.2943 238.867 89.7409 238.867 88.9922V61.8926C238.867 58.5397 238.639 56.3913 238.184 55.4473C237.402 53.6895 236.182 52.8105 234.521 52.8105C232.861 52.8105 231.494 53.2174 230.42 54.0312V50.0762ZM226.074 86.7461C226.074 89.9688 226.758 91.8079 228.125 92.2637C228.548 92.3939 228.988 92.5078 229.443 92.6055C230.648 92.8659 231.543 93.2891 232.129 93.875V97H205.225V93.875C205.778 93.4518 206.413 93.1426 207.129 92.9473C207.878 92.752 208.577 92.5241 209.229 92.2637C210.791 91.6452 211.572 90.4896 211.572 88.7969V58.6211C211.572 56.3099 211.035 54.6335 209.961 53.5918C209.115 52.7454 207.536 51.9967 205.225 51.3457V47.9277H226.074V86.7461ZM284.131 31.3262V97.7324H283.74C278.955 97.7324 275.391 96.821 273.047 94.998C270.736 93.1751 269.58 90.2129 269.58 86.1113V53.2988H263.086V49.3926C263.574 48.8717 264.193 48.4811 264.941 48.2207C265.723 47.9603 266.504 47.6836 267.285 47.3906C269.206 46.6745 270.426 45.5026 270.947 43.875C272.673 39.1224 274.023 36.0788 275 34.7441C275.977 33.377 276.839 32.2702 277.588 31.4238L284.131 31.3262ZM288.477 91.873C291.113 91.873 292.969 91.0267 294.043 89.334C294.499 88.5853 294.857 87.7389 295.117 86.7949C295.378 85.8184 295.671 84.8418 295.996 83.8652L299.951 85.4277C299.137 89.2038 298.128 91.8079 296.924 93.2402C295.719 94.64 294.466 95.6654 293.164 96.3164C291.895 96.9674 290.332 97.4395 288.477 97.7324V91.873ZM288.477 47.9277H297.266V53.2988H288.477V47.9277ZM321.973 88.7969C321.973 90.4896 322.754 91.6452 324.316 92.2637C324.967 92.5241 325.667 92.752 326.416 92.9473C327.165 93.1426 327.865 93.4518 328.516 93.875V97H301.025V93.875C301.644 93.4518 302.327 93.1426 303.076 92.9473C303.825 92.752 304.525 92.5241 305.176 92.2637C306.706 91.6452 307.471 90.4896 307.471 88.7969V56.4238C307.471 54.666 306.706 53.5104 305.176 52.957C304.525 52.6966 303.825 52.485 303.076 52.3223C302.327 52.127 301.644 51.8014 301.025 51.3457V47.9277H321.973V88.7969ZM313.867 42.1172C312.63 42.1172 311.507 41.8893 310.498 41.4336C309.489 40.9779 308.626 40.3594 307.91 39.5781C306.413 37.9505 305.664 35.9648 305.664 33.6211C305.664 31.3424 306.413 29.3568 307.91 27.6641C309.473 25.9388 311.458 25.0762 313.867 25.0762C316.309 25.0762 318.311 25.9388 319.873 27.6641C321.37 29.3568 322.119 31.3424 322.119 33.6211C322.119 35.9648 321.37 37.9505 319.873 39.5781C318.311 41.2708 316.309 42.1172 313.867 42.1172ZM352.979 31.3262V97.7324H352.588C347.803 97.7324 344.238 96.821 341.895 94.998C339.583 93.1751 338.428 90.2129 338.428 86.1113V53.2988H331.934V49.3926C332.422 48.8717 333.04 48.4811 333.789 48.2207C334.57 47.9603 335.352 47.6836 336.133 47.3906C338.053 46.6745 339.274 45.5026 339.795 43.875C341.52 39.1224 342.871 36.0788 343.848 34.7441C344.824 33.377 345.687 32.2702 346.436 31.4238L352.979 31.3262ZM357.324 91.873C359.961 91.873 361.816 91.0267 362.891 89.334C363.346 88.5853 363.704 87.7389 363.965 86.7949C364.225 85.8184 364.518 84.8418 364.844 83.8652L368.799 85.4277C367.985 89.2038 366.976 91.8079 365.771 93.2402C364.567 94.64 363.314 95.6654 362.012 96.3164C360.742 96.9674 359.18 97.4395 357.324 97.7324V91.873ZM357.324 47.9277H366.113V53.2988H357.324V47.9277ZM388.281 93.3379L373.242 57.5957C371.973 54.7311 370.199 52.9733 367.92 52.3223C367.334 52.1595 366.781 51.9316 366.26 51.6387V47.9277H394.092V51.541C393.669 51.8991 393.164 52.1432 392.578 52.2734C391.992 52.3711 391.423 52.5013 390.869 52.6641C389.535 53.1198 388.867 54.0638 388.867 55.4961C388.867 56.4076 389.193 57.6445 389.844 59.207L395.703 73.7578L388.281 93.3379ZM379.932 109.842C379.932 110.851 380.452 111.355 381.494 111.355C382.568 111.355 383.496 111.062 384.277 110.477C385.091 109.891 385.856 109.077 386.572 108.035C387.777 106.212 389.144 103.283 390.674 99.2461L405.566 60.1348C406.478 57.791 406.934 56.2448 406.934 55.4961C406.934 54.7474 406.738 54.1777 406.348 53.7871C405.957 53.3965 405.452 53.0872 404.834 52.8594C404.248 52.599 403.597 52.3874 402.881 52.2246C402.197 52.0293 401.546 51.8014 400.928 51.541V47.9277H419.092V50.2227C419.092 51.0039 418.831 51.5573 418.311 51.8828C417.822 52.2083 417.236 52.5339 416.553 52.8594C415.869 53.1523 415.169 53.5592 414.453 54.0801C413.737 54.6009 413.167 55.431 412.744 56.5703L395.117 102.469C393.229 107.384 391.016 111.111 388.477 113.65C385.938 116.222 382.78 117.508 379.004 117.508C375.521 117.508 372.786 116.499 370.801 114.48C369.01 112.592 368.115 110.314 368.115 107.645C368.115 104.129 369.564 101.72 372.461 100.418C373.405 100.027 374.382 99.832 375.391 99.832C376.432 99.832 377.327 99.9785 378.076 100.271C378.825 100.597 379.492 101.004 380.078 101.492C381.25 102.566 381.836 103.641 381.836 104.715C381.836 105.822 381.738 106.635 381.543 107.156C381.348 107.677 381.12 108.1 380.859 108.426C380.632 108.784 380.42 109.061 380.225 109.256C380.029 109.451 379.932 109.646 379.932 109.842ZM453.711 74.0996L465.527 39.5781C465.951 38.3086 466.162 37.1367 466.162 36.0625C466.162 34.9883 465.918 34.2233 465.43 33.7676C464.941 33.2793 464.355 32.9538 463.672 32.791C462.988 32.5957 462.272 32.4492 461.523 32.3516C460.775 32.2214 460.14 31.9121 459.619 31.4238V27.6152H479.834V31.2773C479.281 31.668 478.678 31.9772 478.027 32.2051C477.376 32.4004 476.725 32.6445 476.074 32.9375C474.512 33.7188 473.47 34.9069 472.949 36.502L456.738 82.791L453.711 74.0996ZM455.42 86.4043L451.66 97H443.213L421.631 36.4043C420.817 34.1257 419.092 32.6771 416.455 32.0586C415.771 31.8958 415.12 31.6354 414.502 31.2773V27.6152H445.557V31.1797C444.808 31.4727 444.027 31.7168 443.213 31.9121C442.399 32.1074 441.634 32.3516 440.918 32.6445C439.29 33.2956 438.477 34.321 438.477 35.7207C438.477 36.5345 438.932 38.2598 439.844 40.8965L455.42 86.4043ZM517.041 97.7324C512.126 97.7324 508.415 96.6094 505.908 94.3633V65.3594C505.908 61.1927 505.729 58.4909 505.371 57.2539C504.72 54.7799 503.385 53.2988 501.367 52.8105V46.9512C514.095 47.4069 520.459 53.1361 520.459 64.1387V86.0137C520.459 89.9199 521.37 91.873 523.193 91.873C524.691 91.873 525.602 89.8874 525.928 85.916L529.443 86.7949C528.63 92.2962 526.237 95.6979 522.266 97C520.833 97.4883 519.092 97.7324 517.041 97.7324ZM501.562 95.3887C499.707 96.9512 497.266 97.7324 494.238 97.7324C491.243 97.7324 488.753 97.4557 486.768 96.9023C484.782 96.3164 483.073 95.4701 481.641 94.3633C478.548 91.9544 477.002 88.6504 477.002 84.4512C477.002 79.6335 479.248 75.8249 483.74 73.0254C486.963 71.0072 492.904 68.8262 501.562 66.4824V71.6582C495.768 73.9368 492.871 77.9408 492.871 83.6699C492.871 87.4134 493.75 89.9362 495.508 91.2383C496.126 91.6615 497.021 91.873 498.193 91.873C499.365 91.873 500.488 91.4987 501.562 90.75V95.3887ZM491.26 55.9355C493.473 56.9447 494.58 58.4421 494.58 60.4277C494.58 62.9342 493.132 64.5781 490.234 65.3594C489.421 65.5547 488.607 65.6523 487.793 65.6523C485.417 65.6523 483.61 64.985 482.373 63.6504C481.136 62.3158 480.518 60.737 480.518 58.9141C480.518 57.0586 480.876 55.4798 481.592 54.1777C482.308 52.8431 483.366 51.6549 484.766 50.6133C487.793 48.4323 491.878 47.2116 497.021 46.9512V52.8105C494.45 52.9733 492.529 54.015 491.26 55.9355ZM561.279 96.0234C559.131 97.1628 555.908 97.7324 551.611 97.7324C547.314 97.7324 544.027 96.5117 541.748 94.0703C539.469 91.6289 538.33 87.918 538.33 82.9375V56.4238C538.33 54.6986 537.549 53.5267 535.986 52.9082C535.335 52.6478 534.635 52.4362 533.887 52.2734C533.171 52.1107 532.536 51.8014 531.982 51.3457V47.9277H552.832V84.2559C552.832 86.7298 553.223 88.6178 554.004 89.9199C554.818 91.222 555.973 91.873 557.471 91.873C558.968 91.873 560.238 91.5312 561.279 90.8477V96.0234ZM565.674 56.4238C565.674 54.6986 564.893 53.5267 563.33 52.9082C562.679 52.6478 561.979 52.4362 561.23 52.2734C560.514 52.0781 559.847 51.7689 559.229 51.3457V47.9277H580.127V88.6016C580.127 90.2617 580.908 91.401 582.471 92.0195C583.122 92.2799 583.805 92.5078 584.521 92.7031C585.27 92.8659 585.921 93.1589 586.475 93.582V97H565.674V56.4238ZM611.23 88.7969C611.23 90.4896 612.012 91.6452 613.574 92.2637C614.225 92.5241 614.925 92.752 615.674 92.9473C616.423 93.1426 617.122 93.4518 617.773 93.875V97H590.283V93.875C590.902 93.4518 591.585 93.1426 592.334 92.9473C593.083 92.752 593.783 92.5241 594.434 92.2637C595.964 91.6452 596.729 90.4896 596.729 88.7969V34.4512C596.729 32.7259 595.964 31.5378 594.434 30.8867C593.783 30.6263 593.083 30.4147 592.334 30.252C591.585 30.0566 590.902 29.7474 590.283 29.3242V25.9551H611.23V88.7969ZM642.236 31.3262V97.7324H641.846C637.061 97.7324 633.496 96.821 631.152 94.998C628.841 93.1751 627.686 90.2129 627.686 86.1113V53.2988H621.191V49.3926C621.68 48.8717 622.298 48.4811 623.047 48.2207C623.828 47.9603 624.609 47.6836 625.391 47.3906C627.311 46.6745 628.532 45.5026 629.053 43.875C630.778 39.1224 632.129 36.0788 633.105 34.7441C634.082 33.377 634.945 32.2702 635.693 31.4238L642.236 31.3262ZM646.582 91.873C649.219 91.873 651.074 91.0267 652.148 89.334C652.604 88.5853 652.962 87.7389 653.223 86.7949C653.483 85.8184 653.776 84.8418 654.102 83.8652L658.057 85.4277C657.243 89.2038 656.234 91.8079 655.029 93.2402C653.825 94.64 652.572 95.6654 651.27 96.3164C650 96.9674 648.438 97.4395 646.582 97.7324V91.873ZM646.582 47.9277H655.371V53.2988H646.582V47.9277Z" fill="#FFD43C"/>
</svg>
