<svg width="110" height="108" viewBox="0 0 110 108" fill="none" xmlns="http://www.w3.org/2000/svg">
<path d="M65.8609 4.27467C56.7579 0.373346 36.1192 6.12133 28.1889 12.1553C21.5925 17.1743 20.7705 22.7254 17.1437 29.9065C11.7019 40.6813 -4.11079 58.8215 6.69017 72.115C12.9033 79.7619 21.0368 90.0985 28.5834 96.1777C33.8924 100.454 40.0373 103.403 46.9263 103.673C53.4553 103.929 68.4758 106.706 74.0462 103.278C81.8004 98.5064 88.4256 92.2702 96.6297 87.7952C99.5687 86.1922 102.156 80.0915 103.04 77.1445C107.038 63.8163 107.86 44.0336 103.829 30.5968C100.189 18.4635 99.1815 16.4487 87.9514 13.2401C81.5658 11.4156 72.2266 6.38934 65.8609 4.26745" stroke="black" stroke-width="6" stroke-linecap="round"/>
<path d="M35.1022 58.6869C35.2639 59.0997 35.4309 59.6858 35.6031 60.4453C35.8397 61.3049 36.045 61.9888 36.219 62.497C36.4372 62.2863 36.6435 61.9173 36.8379 61.39C36.9483 61.0962 37.0714 60.8349 37.2074 60.6062C37.8994 59.5582 38.68 58.8639 39.549 58.5235C40.4614 58.166 41.5772 58.1674 42.8962 58.5277C44.8813 59.0531 46.1718 60.0761 46.7676 61.5969C47.2358 62.7918 47.2298 64.2477 46.7496 65.9645C46.0733 68.4598 44.5083 70.4137 42.0544 71.8262C41.9326 71.899 41.7413 71.9865 41.4806 72.0886C41.0678 72.2503 40.3494 72.4316 39.3254 72.6323C39.2403 72.415 39.1141 72.1888 38.9468 71.9537C39.0733 71.8289 39.2348 71.6654 39.4312 71.4631C39.6408 71.2306 39.8392 71.0652 40.0262 70.9669C40.6741 70.6378 41.2875 69.9966 41.8662 69.0431C42.4581 68.0594 42.9031 67.0204 43.2012 65.9263C43.4993 64.8322 43.5683 63.9531 43.4084 63.289C43.3961 63.1936 43.371 63.0656 43.3331 62.905C43.2952 62.7444 43.2338 62.5555 43.1486 62.3382C43.0635 62.1209 42.9586 61.949 42.8338 61.8225C42.1713 61.1549 41.5608 60.7801 41.0024 60.6981C40.8466 60.684 40.6482 60.8494 40.4075 61.1943C40.1582 61.5176 39.9826 61.837 39.8807 62.1525C39.0597 64.2786 38.9146 66.4029 39.4455 68.5255C39.6651 69.3416 39.3687 69.8963 38.5563 70.1895C37.9046 70.4449 37.205 70.4183 36.4575 70.1096C35.7016 69.7793 35.196 69.2883 34.9406 68.6365C33.6336 65.3645 31.699 60.4588 29.1369 53.9195C28.9241 53.3763 28.9315 52.9474 29.159 52.6327C29.3998 52.2878 29.7988 51.931 30.3561 51.5623C30.5912 51.395 30.9058 51.3344 31.2998 51.3805C31.6937 51.4266 32.0655 51.5441 32.4152 51.7329C32.7648 51.9217 32.995 52.1573 33.1056 52.4397C33.6078 53.7215 34.1357 55.3566 34.6892 57.3451L35.1022 58.6869ZM50.3221 52.799C50.9248 52.7382 51.3774 52.7739 51.6798 52.9061C52.0039 53.0297 52.2383 53.2762 52.383 53.6455C52.4511 53.8193 52.5078 54.0602 52.5533 54.3682C52.6974 55.4394 52.9501 56.4681 53.3114 57.4543C53.7238 58.5708 54.2976 59.5238 55.033 60.3133C55.291 60.5881 55.5041 60.7803 55.6723 60.8898C55.8538 60.9691 56.0314 60.9747 56.2052 60.9066C56.4224 60.8214 56.6282 60.5153 56.8226 59.988C57.252 58.7172 57.4749 57.5272 57.4914 56.418C57.5079 55.3089 57.3596 54.2268 57.0465 53.1716C56.8478 52.4726 56.7904 52.0064 56.8744 51.773C56.9272 51.6521 57.0472 51.5424 57.2342 51.4441C57.4212 51.3458 57.6994 51.2242 58.0687 51.0795C58.6723 50.8932 59.0955 50.79 59.3383 50.7701C59.6028 50.7416 59.8083 50.7864 59.9548 50.9044C60.1013 51.0225 60.2426 51.2553 60.3788 51.6029L60.9463 53.1473C61.074 53.4732 61.2504 53.9554 61.4755 54.5939C62.1764 56.5747 62.6924 58.0516 63.0235 59.0246C63.2997 59.7935 63.4461 60.8388 63.4627 62.1604C63.4448 62.2426 63.3636 62.3872 63.2192 62.5942C63.0662 62.7794 62.9179 62.9127 62.7744 62.994C62.7309 63.011 62.6076 62.9841 62.4045 62.9134C62.2145 62.8124 62.0657 62.7203 61.958 62.6372C61.6697 62.3492 61.3129 61.9502 60.8875 61.4402L60.3842 60.9232L60.2424 60.7532L60.183 60.8893L59.7893 61.4194C59.6137 61.7388 59.3993 62.0233 59.1463 62.2728C58.7657 62.7727 58.2279 63.1589 57.5327 63.4313C56.6636 63.7718 55.7445 63.8562 54.7751 63.6847C53.7972 63.4914 52.9141 63.0606 52.1259 62.392C50.8766 61.3779 49.9157 60.0127 49.2432 58.2964C48.9027 57.4274 48.5924 56.2834 48.3121 54.8645C48.2279 54.5216 48.3236 54.1583 48.5993 53.7747C48.8316 53.408 49.165 53.1396 49.5995 52.9693C49.8167 52.8842 50.0576 52.8274 50.3221 52.799ZM72.4884 52.4218C72.2581 50.6826 72.0161 49.3615 71.7626 48.4584C71.5222 47.5251 71.46 46.8227 71.576 46.3513C71.692 45.8798 72.0542 45.5249 72.6625 45.2866C73.575 44.9291 74.3836 44.8503 75.0885 45.0503C75.7933 45.2503 76.2862 45.7087 76.5671 46.4257C76.6012 46.5126 76.6475 46.6949 76.7062 46.9726C77.0783 48.8818 77.2738 50.9478 77.2927 53.1708C77.3623 56.8023 77.345 60.4679 77.2407 64.1676C77.194 65.2635 76.928 66.4077 76.4429 67.6002C76.3325 67.894 76.1904 68.075 76.0166 68.1431C75.7559 68.2452 75.4497 68.0394 75.0981 67.5256C74.7379 66.9901 74.4514 66.4508 74.2386 65.9076C73.9918 65.2776 73.8101 64.622 73.6936 63.9409C73.5856 63.2816 73.4809 62.4705 73.3794 61.5079C73.2732 60.5972 73.1827 59.9185 73.1079 59.4716C73.0245 59.0031 72.9488 58.6819 72.8807 58.5081C72.6168 57.8346 72.0739 57.4083 71.2519 57.2291C69.8328 56.9331 68.6086 56.3351 67.5794 55.4352C66.5634 54.5051 65.5709 53.3151 64.602 51.8654C64.5547 51.8087 64.5055 51.7152 64.4545 51.5849C64.3012 51.1938 64.3214 50.7975 64.5149 50.3959C64.7084 49.9943 65.0007 49.7169 65.3917 49.5637C65.6307 49.47 65.8541 49.4326 66.062 49.4514C66.7204 49.4691 67.285 49.5988 67.7556 49.8404C68.2176 50.0603 68.6396 50.4338 69.0215 50.9608C69.3647 51.4529 69.7815 51.9411 70.272 52.4256C70.7626 52.91 71.0551 53.2089 71.1496 53.3222L72.0272 54.2189L72.7441 53.938L72.4884 52.4218Z" fill="black"/>
</svg>
