<svg width="764" height="174" viewBox="0 0 764 174" fill="none" xmlns="http://www.w3.org/2000/svg">
<rect x="19.5" y="22.5" width="739" height="146" rx="59.5" fill="#36B6E9" stroke="#36B6E9" stroke-width="11"/>
<rect x="5.5" y="5.5" width="739" height="146" rx="59.5" fill="white" stroke="white" stroke-width="11"/>
<path d="M69.875 61.675L69.225 57.95C71.325 57.3167 73.4167 57 75.5 57C76.3333 57 77.025 57.025 77.575 57.075C78.1417 57.125 78.725 57.25 79.325 57.45C79.925 57.65 80.4 57.925 80.75 58.275C81.55 59.075 81.95 60.3 81.95 61.95C81.95 63.6 81.4833 64.8167 80.55 65.6C79.6167 66.3833 77.65 67.2833 74.65 68.3V69H81.7V73H68.875V69.875C68.875 68.9417 69.05 68.05 69.4 67.2C69.6167 66.7167 70.1417 66.1333 70.975 65.45C71.425 65.0667 72.025 64.7 72.775 64.35C73.5417 64 74.2583 63.675 74.925 63.375C75.6083 63.0583 76.1583 62.8 76.575 62.6V61.25C75.825 61.1667 75.1333 61.125 74.5 61.125C72.9667 61.125 71.425 61.3083 69.875 61.675ZM84.2902 72.575C83.9236 72.1917 83.7402 71.5083 83.7402 70.525C83.7402 69.5417 83.9236 68.85 84.2902 68.45C84.6569 68.05 85.3736 67.85 86.4402 67.85C87.5236 67.85 88.2486 68.05 88.6152 68.45C88.9819 68.85 89.1652 69.5417 89.1652 70.525C89.1652 71.5083 88.9819 72.1917 88.6152 72.575C88.2486 72.9583 87.5236 73.15 86.4402 73.15C85.3736 73.15 84.6569 72.9583 84.2902 72.575ZM103.915 67.2H99.665V73H94.665V57.375H104.915L104.29 61.375H99.665V63.475H103.915V67.2ZM111.158 60.5V69.725H111.933C112.533 69.725 112.967 69.6667 113.233 69.55C113.517 69.4167 113.658 69.125 113.658 68.675V60.5H118.658V73H116.158L114.708 71.575C113.708 72.775 112.283 73.375 110.433 73.375C108.95 73.375 107.867 73.0583 107.183 72.425C106.5 71.7917 106.158 70.7333 106.158 69.25V60.5H111.158ZM123.654 60.5L124.904 61.75C126.454 60.6667 128.121 60.125 129.904 60.125C131.071 60.125 131.988 60.3833 132.654 60.9C133.321 61.4 133.654 62.1 133.654 63V73H128.654V64.25H127.879C127.313 64.25 126.879 64.3167 126.579 64.45C126.296 64.5667 126.154 64.8167 126.154 65.2V73H121.154V60.5H123.654ZM148.397 73H145.897L144.822 71.95C144.089 72.9 142.781 73.375 140.897 73.375C139.881 73.375 139.006 73.1833 138.272 72.8C137.539 72.4167 136.981 71.8917 136.597 71.225C135.881 69.975 135.522 68.4833 135.522 66.75C135.522 64.6333 135.989 63.0333 136.922 61.95C137.272 61.5333 137.756 61.1917 138.372 60.925C138.989 60.6417 139.706 60.5 140.522 60.5H143.397V56.75L148.397 56.375V73ZM140.897 64.825V69.725H141.672C142.239 69.725 142.656 69.675 142.922 69.575C143.206 69.4583 143.364 69.2083 143.397 68.825V63.775H142.622C142.022 63.775 141.581 63.8417 141.297 63.975C141.031 64.0917 140.897 64.375 140.897 64.825ZM156.25 73L153.75 60.5H158.65L159.675 67.925H159.95L161.525 60.5H165.275L166.675 67.925H166.95L168.15 60.5H173.05L170.55 73H164.4L163.425 67.625H163.225L162.15 73H156.25ZM180.571 60.125C184.571 60.125 186.571 61.5 186.571 64.25V73H184.071L182.646 71.575C182.162 72.1417 181.504 72.5833 180.671 72.9C179.837 73.2167 179.046 73.375 178.296 73.375C177.562 73.375 176.971 73.3167 176.521 73.2C176.071 73.0833 175.629 72.8833 175.196 72.6C174.246 72 173.771 70.8833 173.771 69.25C173.771 66.25 176.037 64.75 180.571 64.75H181.571V63.85C181.037 63.8167 180.596 63.8 180.246 63.8C178.362 63.8 176.746 64.025 175.396 64.475L174.796 60.9C176.462 60.3833 178.387 60.125 180.571 60.125ZM178.821 68.7V69.725H179.846C180.579 69.725 181.046 69.6417 181.246 69.475C181.462 69.3083 181.571 69.0917 181.571 68.825V67.65H180.546C179.946 67.65 179.504 67.7167 179.221 67.85C178.954 67.9667 178.821 68.25 178.821 68.7ZM193.83 56.375V69.425C194.363 69.525 194.772 69.5833 195.055 69.6L194.83 73.275C192.697 73.275 191.288 73.15 190.605 72.9C189.755 72.5833 189.23 72.1833 189.03 71.7C188.897 71.4 188.83 71.05 188.83 70.65V56.75L193.83 56.375ZM201.545 56.375V69.425C202.078 69.525 202.487 69.5833 202.77 69.6L202.545 73.275C200.412 73.275 199.003 73.15 198.32 72.9C197.47 72.5833 196.945 72.1833 196.745 71.7C196.612 71.4 196.545 71.05 196.545 70.65V56.75L201.545 56.375ZM209.135 68.75V69.625C209.635 69.675 210.135 69.7 210.635 69.7C212.185 69.7 213.751 69.45 215.335 68.95L215.935 72.625C214.068 73.125 212.218 73.375 210.385 73.375C208.051 73.375 206.36 72.8333 205.31 71.75C204.276 70.65 203.76 68.9833 203.76 66.75C203.76 64.5167 204.276 62.8583 205.31 61.775C206.36 60.675 208.043 60.125 210.36 60.125C212.693 60.125 214.301 60.4417 215.185 61.075C216.068 61.7083 216.51 62.8917 216.51 64.625C216.51 66.0917 215.976 67.15 214.91 67.8C213.86 68.4333 211.935 68.75 209.135 68.75ZM209.135 64.825V65.85H210.16C210.76 65.85 211.193 65.7917 211.46 65.675C211.743 65.5417 211.885 65.25 211.885 64.8V63.775H210.86C210.26 63.775 209.818 63.8417 209.535 63.975C209.268 64.0917 209.135 64.375 209.135 64.825ZM217.646 63.725V60.5H218.896V58.5L223.896 57.25V60.5H225.621V63.725H223.896V69.425C224.329 69.5083 224.821 69.5667 225.371 69.6L225.146 73.275C222.862 73.275 221.379 73.15 220.696 72.9C219.846 72.6 219.312 72.2 219.096 71.7C218.962 71.4 218.896 71.05 218.896 70.65V63.725H217.646ZM232.862 73L230.362 60.5H235.262L236.287 67.925H236.562L238.137 60.5H241.887L243.287 67.925H243.562L244.762 60.5H249.662L247.162 73H241.012L240.037 67.625H239.837L238.762 73H232.862ZM251.257 73V61.125L256.257 60.5V73H251.257ZM251.532 59.7C251.165 59.4167 250.982 58.9 250.982 58.15C250.982 57.4 251.165 56.875 251.532 56.575C251.915 56.275 252.657 56.125 253.757 56.125C254.874 56.125 255.615 56.275 255.982 56.575C256.365 56.875 256.557 57.4 256.557 58.15C256.557 58.9 256.365 59.4167 255.982 59.7C255.615 59.9833 254.874 60.125 253.757 60.125C252.657 60.125 251.915 59.9833 251.532 59.7ZM258.002 63.725V60.5H259.252V58.5L264.252 57.25V60.5H265.977V63.725H264.252V69.425C264.685 69.5083 265.177 69.5667 265.727 69.6L265.502 73.275C263.219 73.275 261.735 73.15 261.052 72.9C260.202 72.6 259.669 72.2 259.452 71.7C259.319 71.4 259.252 71.05 259.252 70.65V63.725H258.002ZM272.858 65.3V73H267.858V56.75L272.858 56.375V60.95C273.925 60.4 275.108 60.125 276.408 60.125C277.708 60.125 278.692 60.3833 279.358 60.9C280.025 61.4 280.358 62.1 280.358 63V73H275.358V64.25H274.583C273.983 64.25 273.542 64.3167 273.258 64.45C272.992 64.5667 272.858 64.85 272.858 65.3ZM296.486 67.1H291.486V69H297.611V73H286.486V57.375H297.486L296.861 61.375H291.486V63.475H296.486V67.1ZM310.868 61.375H307.243V73H302.243V61.375H298.618V57.375H310.868V61.375ZM320.993 73V67.475H317.243V73H312.243V57.375H317.243V62.9H320.993V57.375H325.993V73H320.993ZM338.188 60.125C342.188 60.125 344.188 61.5 344.188 64.25V73H341.688L340.263 71.575C339.779 72.1417 339.121 72.5833 338.288 72.9C337.454 73.2167 336.663 73.375 335.913 73.375C335.179 73.375 334.588 73.3167 334.138 73.2C333.688 73.0833 333.246 72.8833 332.813 72.6C331.863 72 331.388 70.8833 331.388 69.25C331.388 66.25 333.654 64.75 338.188 64.75H339.188V63.85C338.654 63.8167 338.213 63.8 337.863 63.8C335.979 63.8 334.363 64.025 333.013 64.475L332.413 60.9C334.079 60.3833 336.004 60.125 338.188 60.125ZM336.438 68.7V69.725H337.463C338.196 69.725 338.663 69.6417 338.863 69.475C339.079 69.3083 339.188 69.0917 339.188 68.825V67.65H338.163C337.563 67.65 337.121 67.7167 336.838 67.85C336.571 67.9667 336.438 68.25 336.438 68.7ZM348.947 60.5L350.197 61.75C351.747 60.6667 353.414 60.125 355.197 60.125C356.364 60.125 357.281 60.3833 357.947 60.9C358.614 61.4 358.947 62.1 358.947 63V73H353.947V64.25H353.172C352.606 64.25 352.172 64.3167 351.872 64.45C351.589 64.5667 351.447 64.8167 351.447 65.2V73H346.447V60.5H348.947ZM373.69 73H371.19L370.115 71.95C369.382 72.9 368.074 73.375 366.19 73.375C365.174 73.375 364.299 73.1833 363.565 72.8C362.832 72.4167 362.274 71.8917 361.89 71.225C361.174 69.975 360.815 68.4833 360.815 66.75C360.815 64.6333 361.282 63.0333 362.215 61.95C362.565 61.5333 363.049 61.1917 363.665 60.925C364.282 60.6417 364.999 60.5 365.815 60.5H368.69V56.75L373.69 56.375V73ZM366.19 64.825V69.725H366.965C367.532 69.725 367.949 69.675 368.215 69.575C368.499 69.4583 368.657 69.2083 368.69 68.825V63.775H367.915C367.315 63.775 366.874 63.8417 366.59 63.975C366.324 64.0917 366.19 64.375 366.19 64.825ZM379.943 72.375V56.75L384.943 56.375V60.525C385.577 60.2583 386.402 60.125 387.418 60.125C388.452 60.125 389.335 60.3167 390.068 60.7C390.802 61.0833 391.36 61.6083 391.743 62.275C392.46 63.525 392.818 65.0167 392.818 66.75C392.818 69.1 392.277 70.7917 391.193 71.825C390.11 72.8583 388.468 73.375 386.268 73.375C384.068 73.375 381.96 73.0417 379.943 72.375ZM384.943 64.7V69.725H385.718C386.318 69.725 386.752 69.6667 387.018 69.55C387.302 69.4167 387.443 69.125 387.443 68.675V63.775H386.668C386.302 63.775 386.01 63.7917 385.793 63.825C385.577 63.8583 385.385 63.95 385.218 64.1C385.052 64.2333 384.96 64.4333 384.943 64.7ZM394.812 60.5H397.312L398.687 61.9C399.67 61 400.903 60.4083 402.387 60.125L402.687 64.85C402.287 64.8667 401.762 64.9667 401.112 65.15C400.478 65.3333 400.045 65.5667 399.812 65.85V73H394.812V60.5ZM404.187 73V61.125L409.187 60.5V73H404.187ZM404.462 59.7C404.095 59.4167 403.912 58.9 403.912 58.15C403.912 57.4 404.095 56.875 404.462 56.575C404.845 56.275 405.587 56.125 406.687 56.125C407.803 56.125 408.545 56.275 408.912 56.575C409.295 56.875 409.487 57.4 409.487 58.15C409.487 58.9 409.295 59.4167 408.912 59.7C408.545 59.9833 407.803 60.125 406.687 60.125C405.587 60.125 404.845 59.9833 404.462 59.7ZM424.057 73H421.557L420.482 71.95C419.748 72.9 418.44 73.375 416.557 73.375C415.54 73.375 414.665 73.1833 413.932 72.8C413.198 72.4167 412.64 71.8917 412.257 71.225C411.54 69.975 411.182 68.4833 411.182 66.75C411.182 64.6333 411.648 63.0333 412.582 61.95C412.932 61.5333 413.415 61.1917 414.032 60.925C414.648 60.6417 415.365 60.5 416.182 60.5H419.057V56.75L424.057 56.375V73ZM416.557 64.825V69.725H417.332C417.898 69.725 418.315 69.675 418.582 69.575C418.865 69.4583 419.023 69.2083 419.057 68.825V63.775H418.282C417.682 63.775 417.24 63.8417 416.957 63.975C416.69 64.0917 416.557 64.375 416.557 64.825ZM425.875 76.375L426.525 72.65C427.941 73.1333 429.6 73.375 431.5 73.375C432.066 73.375 432.466 73.3583 432.7 73.325V72.45C431.216 72.45 430.241 72.3917 429.775 72.275C429.325 72.1417 429.025 72.0167 428.875 71.9C428.741 71.7667 428.658 71.6583 428.625 71.575C428.608 71.4917 428.6 71.375 428.6 71.225L429.35 69.075C428.15 68.8583 427.233 68.4083 426.6 67.725C425.983 67.0417 425.675 65.975 425.675 64.525C425.675 63.0583 426.166 61.9583 427.15 61.225C428.133 60.4917 429.733 60.125 431.95 60.125C432.75 60.125 433.458 60.175 434.075 60.275L436.25 58.6L438.875 61.125L437.45 62.8C437.666 63.3833 437.775 64.1333 437.775 65.05C437.775 66.3667 437.441 67.35 436.775 68C436.125 68.6333 434.958 69.0167 433.275 69.15L433.175 69.75C434.975 69.85 436.241 70.125 436.975 70.575C437.725 71.0083 438.1 71.8167 438.1 73C438.1 75.0167 437.125 76.2667 435.175 76.75C434.208 77 432.9 77.125 431.25 77.125C429.616 77.125 427.825 76.875 425.875 76.375ZM430.375 64.5V66.125H431.15C431.75 66.125 432.183 66.0667 432.45 65.95C432.733 65.8167 432.875 65.525 432.875 65.075V63.45H432.1C431.5 63.45 431.058 63.5167 430.775 63.65C430.508 63.7667 430.375 64.05 430.375 64.5ZM444.828 68.75V69.625C445.328 69.675 445.828 69.7 446.328 69.7C447.878 69.7 449.445 69.45 451.028 68.95L451.628 72.625C449.761 73.125 447.911 73.375 446.078 73.375C443.745 73.375 442.053 72.8333 441.003 71.75C439.97 70.65 439.453 68.9833 439.453 66.75C439.453 64.5167 439.97 62.8583 441.003 61.775C442.053 60.675 443.736 60.125 446.053 60.125C448.386 60.125 449.995 60.4417 450.878 61.075C451.761 61.7083 452.203 62.8917 452.203 64.625C452.203 66.0917 451.67 67.15 450.603 67.8C449.553 68.4333 447.628 68.75 444.828 68.75ZM444.828 64.825V65.85H445.853C446.453 65.85 446.886 65.7917 447.153 65.675C447.436 65.5417 447.578 65.25 447.578 64.8V63.775H446.553C445.953 63.775 445.511 63.8417 445.228 63.975C444.961 64.0917 444.828 64.375 444.828 64.825ZM457.099 63.725V60.5H458.349V58.5L463.349 57.25V60.5H465.074V63.725H463.349V69.425C463.782 69.5083 464.274 69.5667 464.824 69.6L464.599 73.275C462.315 73.275 460.832 73.15 460.149 72.9C459.299 72.6 458.765 72.2 458.549 71.7C458.415 71.4 458.349 71.05 458.349 70.65V63.725H457.099ZM468.005 71.75C466.972 70.65 466.455 68.9833 466.455 66.75C466.455 64.5167 466.972 62.8583 468.005 61.775C469.055 60.675 470.747 60.125 473.08 60.125C475.413 60.125 477.097 60.675 478.13 61.775C479.18 62.8583 479.705 64.5167 479.705 66.75C479.705 68.9833 479.18 70.65 478.13 71.75C477.097 72.8333 475.413 73.375 473.08 73.375C470.747 73.375 469.055 72.8333 468.005 71.75ZM471.83 64.825V69.725H472.605C473.205 69.725 473.638 69.6667 473.905 69.55C474.188 69.4167 474.33 69.125 474.33 68.675V63.775H473.555C472.955 63.775 472.513 63.8417 472.23 63.975C471.963 64.0917 471.83 64.375 471.83 64.825ZM485.461 73V57.375H493.561C495.061 57.375 496.128 57.6667 496.761 58.25C497.411 58.8333 497.736 59.6833 497.736 60.8C497.736 61.9167 497.528 62.7833 497.111 63.4C496.711 64 496.169 64.3917 495.486 64.575V64.725C497.503 65.075 498.511 66.45 498.511 68.85C498.511 70.1 498.178 71.1083 497.511 71.875C496.844 72.625 495.819 73 494.436 73H485.461ZM492.411 66.775H490.461V69.325H492.386C493.086 69.325 493.436 68.9 493.436 68.05C493.436 67.2 493.094 66.775 492.411 66.775ZM492.036 60.8H490.461V63.125H492.011C492.644 63.125 492.961 62.7417 492.961 61.975C492.961 61.1917 492.653 60.8 492.036 60.8ZM506.181 60.125C510.181 60.125 512.181 61.5 512.181 64.25V73H509.681L508.256 71.575C507.773 72.1417 507.114 72.5833 506.281 72.9C505.448 73.2167 504.656 73.375 503.906 73.375C503.173 73.375 502.581 73.3167 502.131 73.2C501.681 73.0833 501.239 72.8833 500.806 72.6C499.856 72 499.381 70.8833 499.381 69.25C499.381 66.25 501.648 64.75 506.181 64.75H507.181V63.85C506.648 63.8167 506.206 63.8 505.856 63.8C503.973 63.8 502.356 64.025 501.006 64.475L500.406 60.9C502.073 60.3833 503.998 60.125 506.181 60.125ZM504.431 68.7V69.725H505.456C506.189 69.725 506.656 69.6417 506.856 69.475C507.073 69.3083 507.181 69.0917 507.181 68.825V67.65H506.156C505.556 67.65 505.114 67.7167 504.831 67.85C504.564 67.9667 504.431 68.25 504.431 68.7ZM515.615 61C516.699 60.4167 518.174 60.125 520.04 60.125C521.907 60.125 523.624 60.3833 525.19 60.9L524.615 64.3C523.315 63.9333 522.015 63.75 520.715 63.75C520.315 63.75 519.749 63.7833 519.015 63.85V64.65C521.715 64.65 523.549 65.05 524.515 65.85C524.999 66.25 525.34 66.6917 525.54 67.175C525.74 67.6417 525.84 68.2167 525.84 68.9C525.84 69.5667 525.757 70.1667 525.59 70.7C525.44 71.2333 525.199 71.6583 524.865 71.975C524.549 72.2917 524.215 72.55 523.865 72.75C523.515 72.95 523.057 73.0917 522.49 73.175C521.607 73.3083 520.582 73.375 519.415 73.375C517.349 73.375 515.482 73.1333 513.815 72.65L514.44 69.1C515.84 69.5333 517.357 69.75 518.99 69.75C519.74 69.75 520.424 69.7167 521.04 69.65V68.85C518.374 68.85 516.532 68.5 515.515 67.8C514.515 67.1 514.015 65.9417 514.015 64.325C514.015 62.6917 514.549 61.5833 515.615 61ZM532.475 68.75V69.625C532.975 69.675 533.475 69.7 533.975 69.7C535.525 69.7 537.091 69.45 538.675 68.95L539.275 72.625C537.408 73.125 535.558 73.375 533.725 73.375C531.391 73.375 529.7 72.8333 528.65 71.75C527.616 70.65 527.1 68.9833 527.1 66.75C527.1 64.5167 527.616 62.8583 528.65 61.775C529.7 60.675 531.383 60.125 533.7 60.125C536.033 60.125 537.641 60.4417 538.525 61.075C539.408 61.7083 539.85 62.8917 539.85 64.625C539.85 66.0917 539.316 67.15 538.25 67.8C537.2 68.4333 535.275 68.75 532.475 68.75ZM532.475 64.825V65.85H533.5C534.1 65.85 534.533 65.7917 534.8 65.675C535.083 65.5417 535.225 65.25 535.225 64.8V63.775H534.2C533.6 63.775 533.158 63.8417 532.875 63.975C532.608 64.0917 532.475 64.375 532.475 64.825ZM554.67 69.25L554.97 72.85C554.103 73.2 552.987 73.375 551.62 73.375C549.287 73.375 547.595 72.8333 546.545 71.75C545.512 70.65 544.995 68.9833 544.995 66.75C544.995 64.5167 545.512 62.8583 546.545 61.775C547.595 60.675 549.287 60.125 551.62 60.125C553.07 60.125 554.187 60.3 554.97 60.65L554.37 64.05C553.487 63.8667 552.787 63.775 552.27 63.775C551.003 63.775 550.37 64.2167 550.37 65.1V69.575C550.853 69.675 551.47 69.725 552.22 69.725C552.987 69.725 553.803 69.5667 554.67 69.25ZM561.97 65.3V73H556.97V56.75L561.97 56.375V60.95C563.036 60.4 564.22 60.125 565.52 60.125C566.82 60.125 567.803 60.3833 568.47 60.9C569.136 61.4 569.47 62.1 569.47 63V73H564.47V64.25H563.695C563.095 64.25 562.653 64.3167 562.37 64.45C562.103 64.5667 561.97 64.85 561.97 65.3ZM577.763 60.125C581.763 60.125 583.763 61.5 583.763 64.25V73H581.263L579.838 71.575C579.355 72.1417 578.696 72.5833 577.863 72.9C577.03 73.2167 576.238 73.375 575.488 73.375C574.755 73.375 574.163 73.3167 573.713 73.2C573.263 73.0833 572.821 72.8833 572.388 72.6C571.438 72 570.963 70.8833 570.963 69.25C570.963 66.25 573.23 64.75 577.763 64.75H578.763V63.85C578.23 63.8167 577.788 63.8 577.438 63.8C575.555 63.8 573.938 64.025 572.588 64.475L571.988 60.9C573.655 60.3833 575.58 60.125 577.763 60.125ZM576.013 68.7V69.725H577.038C577.771 69.725 578.238 69.6417 578.438 69.475C578.655 69.3083 578.763 69.0917 578.763 68.825V67.65H577.738C577.138 67.65 576.696 67.7167 576.413 67.85C576.146 67.9667 576.013 68.25 576.013 68.7ZM586.022 73V61.125L591.022 60.5V73H586.022ZM586.297 59.7C585.931 59.4167 585.747 58.9 585.747 58.15C585.747 57.4 585.931 56.875 586.297 56.575C586.681 56.275 587.422 56.125 588.522 56.125C589.639 56.125 590.381 56.275 590.747 56.575C591.131 56.875 591.322 57.4 591.322 58.15C591.322 58.9 591.131 59.4167 590.747 59.7C590.381 59.9833 589.639 60.125 588.522 60.125C587.422 60.125 586.681 59.9833 586.297 59.7ZM596.018 60.5L597.268 61.75C598.818 60.6667 600.484 60.125 602.268 60.125C603.434 60.125 604.351 60.3833 605.018 60.9C605.684 61.4 606.018 62.1 606.018 63V73H601.018V64.25H600.243C599.676 64.25 599.243 64.3167 598.943 64.45C598.659 64.5667 598.518 64.8167 598.518 65.2V73H593.518V60.5H596.018ZM611.396 63.725V60.5H612.646V58.5L617.646 57.25V60.5H619.371V63.725H617.646V69.425C618.079 69.5083 618.571 69.5667 619.121 69.6L618.896 73.275C616.612 73.275 615.129 73.15 614.446 72.9C613.596 72.6 613.062 72.2 612.846 71.7C612.712 71.4 612.646 71.05 612.646 70.65V63.725H611.396ZM626.252 65.3V73H621.252V56.75L626.252 56.375V60.95C627.319 60.4 628.502 60.125 629.802 60.125C631.102 60.125 632.085 60.3833 632.752 60.9C633.419 61.4 633.752 62.1 633.752 63V73H628.752V64.25H627.977C627.377 64.25 626.935 64.3167 626.652 64.45C626.385 64.5667 626.252 64.85 626.252 65.3ZM636.12 60.5H638.62L639.995 61.9C640.978 61 642.212 60.4083 643.695 60.125L643.995 64.85C643.595 64.8667 643.07 64.9667 642.42 65.15C641.787 65.3333 641.353 65.5667 641.12 65.85V73H636.12V60.5ZM646.545 71.75C645.512 70.65 644.995 68.9833 644.995 66.75C644.995 64.5167 645.512 62.8583 646.545 61.775C647.595 60.675 649.287 60.125 651.62 60.125C653.953 60.125 655.637 60.675 656.67 61.775C657.72 62.8583 658.245 64.5167 658.245 66.75C658.245 68.9833 657.72 70.65 656.67 71.75C655.637 72.8333 653.953 73.375 651.62 73.375C649.287 73.375 647.595 72.8333 646.545 71.75ZM650.37 64.825V69.725H651.145C651.745 69.725 652.178 69.6667 652.445 69.55C652.728 69.4167 652.87 69.125 652.87 68.675V63.775H652.095C651.495 63.775 651.053 63.8417 650.77 63.975C650.503 64.0917 650.37 64.375 650.37 64.825ZM664.991 60.5V69.725H665.766C666.366 69.725 666.8 69.6667 667.066 69.55C667.35 69.4167 667.491 69.125 667.491 68.675V60.5H672.491V73H669.991L668.541 71.575C667.541 72.775 666.116 73.375 664.266 73.375C662.783 73.375 661.7 73.0583 661.016 72.425C660.333 71.7917 659.991 70.7333 659.991 69.25V60.5H664.991ZM674.312 76.375L674.962 72.65C676.379 73.1333 678.037 73.375 679.937 73.375C680.504 73.375 680.904 73.3583 681.137 73.325V72.45C679.654 72.45 678.679 72.3917 678.212 72.275C677.762 72.1417 677.462 72.0167 677.312 71.9C677.179 71.7667 677.096 71.6583 677.062 71.575C677.046 71.4917 677.037 71.375 677.037 71.225L677.787 69.075C676.587 68.8583 675.671 68.4083 675.037 67.725C674.421 67.0417 674.112 65.975 674.112 64.525C674.112 63.0583 674.604 61.9583 675.587 61.225C676.571 60.4917 678.171 60.125 680.387 60.125C681.187 60.125 681.896 60.175 682.512 60.275L684.687 58.6L687.312 61.125L685.887 62.8C686.104 63.3833 686.212 64.1333 686.212 65.05C686.212 66.3667 685.879 67.35 685.212 68C684.562 68.6333 683.396 69.0167 681.712 69.15L681.612 69.75C683.412 69.85 684.679 70.125 685.412 70.575C686.162 71.0083 686.537 71.8167 686.537 73C686.537 75.0167 685.562 76.2667 683.612 76.75C682.646 77 681.337 77.125 679.687 77.125C678.054 77.125 676.262 76.875 674.312 76.375ZM678.812 64.5V66.125H679.587C680.187 66.125 680.621 66.0667 680.887 65.95C681.171 65.8167 681.312 65.525 681.312 65.075V63.45H680.537C679.937 63.45 679.496 63.5167 679.212 63.65C678.946 63.7667 678.812 64.05 678.812 64.5ZM693.391 65.3V73H688.391V56.75L693.391 56.375V60.95C694.457 60.4 695.641 60.125 696.941 60.125C698.241 60.125 699.224 60.3833 699.891 60.9C700.557 61.4 700.891 62.1 700.891 63V73H695.891V64.25H695.116C694.516 64.25 694.074 64.3167 693.791 64.45C693.524 64.5667 693.391 64.85 693.391 65.3ZM68.625 99.725L69.325 95.6C70.8583 95.9833 72.2333 96.175 73.45 96.175C74.6833 96.175 75.675 96.125 76.425 96.025V94.775L74.175 94.575C72.1417 94.3917 70.7417 93.9083 69.975 93.125C69.225 92.325 68.85 91.15 68.85 89.6C68.85 87.4667 69.3083 86 70.225 85.2C71.1583 84.4 72.7333 84 74.95 84C77.1667 84 79.1667 84.2083 80.95 84.625L80.325 88.625C78.775 88.375 77.5333 88.25 76.6 88.25C75.6667 88.25 74.875 88.2917 74.225 88.375V89.6L76.025 89.775C78.2083 89.9917 79.7167 90.5167 80.55 91.35C81.3833 92.1667 81.8 93.3083 81.8 94.775C81.8 95.825 81.6583 96.7167 81.375 97.45C81.0917 98.1667 80.75 98.7167 80.35 99.1C79.9667 99.4667 79.4167 99.75 78.7 99.95C77.9833 100.15 77.35 100.267 76.8 100.3C76.2667 100.35 75.55 100.375 74.65 100.375C72.4833 100.375 70.475 100.158 68.625 99.725ZM85.2287 98.7L82.4287 87.5H87.4287L88.8037 95.625H89.0537L90.4287 87.5H95.4287L92.3037 100C91.837 101.633 91.2537 102.725 90.5537 103.275C89.8537 103.842 88.8454 104.125 87.5287 104.125H82.6787V100.875L85.0287 100.425C86.2287 100.158 87.012 99.8583 87.3787 99.525C87.5787 99.3417 87.7454 99.1167 87.8787 98.85L87.8537 98.7H85.2287ZM99.167 87.5L100.417 88.75C101.967 87.6667 103.634 87.125 105.417 87.125C106.584 87.125 107.5 87.3833 108.167 87.9C108.834 88.4 109.167 89.1 109.167 90V100H104.167V91.25H103.392C102.825 91.25 102.392 91.3167 102.092 91.45C101.809 91.5667 101.667 91.8167 101.667 92.2V100H96.667V87.5H99.167ZM117.46 87.125C121.46 87.125 123.46 88.5 123.46 91.25V100H120.96L119.535 98.575C119.052 99.1417 118.393 99.5833 117.56 99.9C116.727 100.217 115.935 100.375 115.185 100.375C114.452 100.375 113.86 100.317 113.41 100.2C112.96 100.083 112.518 99.8833 112.085 99.6C111.135 99 110.66 97.8833 110.66 96.25C110.66 93.25 112.927 91.75 117.46 91.75H118.46V90.85C117.927 90.8167 117.485 90.8 117.135 90.8C115.252 90.8 113.635 91.025 112.285 91.475L111.685 87.9C113.352 87.3833 115.277 87.125 117.46 87.125ZM115.71 95.7V96.725H116.735C117.468 96.725 117.935 96.6417 118.135 96.475C118.352 96.3083 118.46 96.0917 118.46 95.825V94.65H117.435C116.835 94.65 116.393 94.7167 116.11 94.85C115.843 94.9667 115.71 95.25 115.71 95.7ZM125.72 87.5H128.22L129.145 88.75C129.878 87.6667 131.236 87.125 133.22 87.125C134.236 87.125 135.111 87.3167 135.845 87.7C136.578 88.0833 137.136 88.6083 137.52 89.275C138.236 90.525 138.595 92.0167 138.595 93.75C138.595 95.8667 138.136 97.4667 137.22 98.55C136.853 98.9667 136.361 99.3167 135.745 99.6C135.128 99.8667 134.411 100 133.595 100H130.72V103.75L125.72 104.125V87.5ZM130.72 91.7V96.725H131.495C132.095 96.725 132.528 96.6667 132.795 96.55C133.078 96.4167 133.22 96.125 133.22 95.675V90.775H132.445C132.078 90.775 131.786 90.7917 131.57 90.825C131.353 90.8583 131.161 90.95 130.995 91.1C130.828 91.2333 130.736 91.4333 130.72 91.7ZM141.763 88C142.846 87.4167 144.321 87.125 146.188 87.125C148.055 87.125 149.771 87.3833 151.338 87.9L150.763 91.3C149.463 90.9333 148.163 90.75 146.863 90.75C146.463 90.75 145.896 90.7833 145.163 90.85V91.65C147.863 91.65 149.696 92.05 150.663 92.85C151.146 93.25 151.488 93.6917 151.688 94.175C151.888 94.6417 151.988 95.2167 151.988 95.9C151.988 96.5667 151.905 97.1667 151.738 97.7C151.588 98.2333 151.346 98.6583 151.013 98.975C150.696 99.2917 150.363 99.55 150.013 99.75C149.663 99.95 149.205 100.092 148.638 100.175C147.755 100.308 146.73 100.375 145.563 100.375C143.496 100.375 141.63 100.133 139.963 99.65L140.588 96.1C141.988 96.5333 143.505 96.75 145.138 96.75C145.888 96.75 146.571 96.7167 147.188 96.65V95.85C144.521 95.85 142.68 95.5 141.663 94.8C140.663 94.1 140.163 92.9417 140.163 91.325C140.163 89.6917 140.696 88.5833 141.763 88ZM158.622 95.75V96.625C159.122 96.675 159.622 96.7 160.122 96.7C161.672 96.7 163.239 96.45 164.822 95.95L165.422 99.625C163.555 100.125 161.705 100.375 159.872 100.375C157.539 100.375 155.847 99.8333 154.797 98.75C153.764 97.65 153.247 95.9833 153.247 93.75C153.247 91.5167 153.764 89.8583 154.797 88.775C155.847 87.675 157.53 87.125 159.847 87.125C162.18 87.125 163.789 87.4417 164.672 88.075C165.555 88.7083 165.997 89.8917 165.997 91.625C165.997 93.0917 165.464 94.15 164.397 94.8C163.347 95.4333 161.422 95.75 158.622 95.75ZM158.622 91.825V92.85H159.647C160.247 92.85 160.68 92.7917 160.947 92.675C161.23 92.5417 161.372 92.25 161.372 91.8V90.775H160.347C159.747 90.775 159.305 90.8417 159.022 90.975C158.755 91.0917 158.622 91.375 158.622 91.825ZM176.133 96.225H172.883V100H167.883V84.375H175.758C179.341 84.375 181.133 86.3 181.133 90.15C181.133 92.2667 180.666 93.8333 179.733 94.85C179.383 95.2333 178.899 95.5583 178.283 95.825C177.666 96.0917 176.949 96.225 176.133 96.225ZM172.883 88.375V92.225H174.033C174.633 92.225 175.066 92.1667 175.333 92.05C175.616 91.9167 175.758 91.625 175.758 91.175V89.425C175.758 88.975 175.616 88.6917 175.333 88.575C175.066 88.4417 174.633 88.375 174.033 88.375H172.883ZM182.629 87.5H185.129L186.504 88.9C187.487 88 188.721 87.4083 190.204 87.125L190.504 91.85C190.104 91.8667 189.579 91.9667 188.929 92.15C188.296 92.3333 187.862 92.5667 187.629 92.85V100H182.629V87.5ZM193.054 98.75C192.021 97.65 191.504 95.9833 191.504 93.75C191.504 91.5167 192.021 89.8583 193.054 88.775C194.104 87.675 195.796 87.125 198.129 87.125C200.462 87.125 202.146 87.675 203.179 88.775C204.229 89.8583 204.754 91.5167 204.754 93.75C204.754 95.9833 204.229 97.65 203.179 98.75C202.146 99.8333 200.462 100.375 198.129 100.375C195.796 100.375 194.104 99.8333 193.054 98.75ZM196.879 91.825V96.725H197.654C198.254 96.725 198.687 96.6667 198.954 96.55C199.237 96.4167 199.379 96.125 199.379 95.675V90.775H198.604C198.004 90.775 197.562 90.8417 197.279 90.975C197.012 91.0917 196.879 91.375 196.879 91.825ZM206 90.725V87.5H207.25V85.5L212.25 84.25V87.5H213.975V90.725H212.25V96.425C212.683 96.5083 213.175 96.5667 213.725 96.6L213.5 100.275C211.217 100.275 209.733 100.15 209.05 99.9C208.2 99.6 207.667 99.2 207.45 98.7C207.317 98.4 207.25 98.05 207.25 97.65V90.725H206ZM216.906 98.75C215.873 97.65 215.356 95.9833 215.356 93.75C215.356 91.5167 215.873 89.8583 216.906 88.775C217.956 87.675 219.648 87.125 221.981 87.125C224.315 87.125 225.998 87.675 227.031 88.775C228.081 89.8583 228.606 91.5167 228.606 93.75C228.606 95.9833 228.081 97.65 227.031 98.75C225.998 99.8333 224.315 100.375 221.981 100.375C219.648 100.375 217.956 99.8333 216.906 98.75ZM220.731 91.825V96.725H221.506C222.106 96.725 222.54 96.6667 222.806 96.55C223.09 96.4167 223.231 96.125 223.231 95.675V90.775H222.456C221.856 90.775 221.415 90.8417 221.131 90.975C220.865 91.0917 220.731 91.375 220.731 91.825ZM239.778 96.25L240.078 99.85C239.211 100.2 238.094 100.375 236.728 100.375C234.394 100.375 232.703 99.8333 231.653 98.75C230.619 97.65 230.103 95.9833 230.103 93.75C230.103 91.5167 230.619 89.8583 231.653 88.775C232.703 87.675 234.394 87.125 236.728 87.125C238.178 87.125 239.294 87.3 240.078 87.65L239.478 91.05C238.594 90.8667 237.894 90.775 237.378 90.775C236.111 90.775 235.478 91.2167 235.478 92.1V96.575C235.961 96.675 236.578 96.725 237.328 96.725C238.094 96.725 238.911 96.5667 239.778 96.25ZM243.127 98.75C242.094 97.65 241.577 95.9833 241.577 93.75C241.577 91.5167 242.094 89.8583 243.127 88.775C244.177 87.675 245.869 87.125 248.202 87.125C250.535 87.125 252.219 87.675 253.252 88.775C254.302 89.8583 254.827 91.5167 254.827 93.75C254.827 95.9833 254.302 97.65 253.252 98.75C252.219 99.8333 250.535 100.375 248.202 100.375C245.869 100.375 244.177 99.8333 243.127 98.75ZM246.952 91.825V96.725H247.727C248.327 96.725 248.76 96.6667 249.027 96.55C249.31 96.4167 249.452 96.125 249.452 95.675V90.775H248.677C248.077 90.775 247.635 90.8417 247.352 90.975C247.085 91.0917 246.952 91.375 246.952 91.825ZM261.823 83.375V96.425C262.357 96.525 262.765 96.5833 263.048 96.6L262.823 100.275C260.69 100.275 259.282 100.15 258.598 99.9C257.748 99.5833 257.223 99.1833 257.023 98.7C256.89 98.4 256.823 98.05 256.823 97.65V83.75L261.823 83.375ZM269.348 98.75C268.315 97.65 267.798 95.9833 267.798 93.75C267.798 91.5167 268.315 89.8583 269.348 88.775C270.398 87.675 272.09 87.125 274.423 87.125C276.756 87.125 278.44 87.675 279.473 88.775C280.523 89.8583 281.048 91.5167 281.048 93.75C281.048 95.9833 280.523 97.65 279.473 98.75C278.44 99.8333 276.756 100.375 274.423 100.375C272.09 100.375 270.398 99.8333 269.348 98.75ZM273.173 91.825V96.725H273.948C274.548 96.725 274.981 96.6667 275.248 96.55C275.531 96.4167 275.673 96.125 275.673 95.675V90.775H274.898C274.298 90.775 273.856 90.8417 273.573 90.975C273.306 91.0917 273.173 91.375 273.173 91.825ZM283.044 87.5H285.544L286.919 88.9C287.902 88 289.136 87.4083 290.619 87.125L290.919 91.85C290.519 91.8667 289.994 91.9667 289.344 92.15C288.711 92.3333 288.277 92.5667 288.044 92.85V100H283.044V87.5ZM296.179 100V84.375H304.279C305.779 84.375 306.845 84.6667 307.479 85.25C308.129 85.8333 308.454 86.6833 308.454 87.8C308.454 88.9167 308.245 89.7833 307.829 90.4C307.429 91 306.887 91.3917 306.204 91.575V91.725C308.22 92.075 309.229 93.45 309.229 95.85C309.229 97.1 308.895 98.1083 308.229 98.875C307.562 99.625 306.537 100 305.154 100H296.179ZM303.129 93.775H301.179V96.325H303.104C303.804 96.325 304.154 95.9 304.154 95.05C304.154 94.2 303.812 93.775 303.129 93.775ZM302.754 87.8H301.179V90.125H302.729C303.362 90.125 303.679 89.7417 303.679 88.975C303.679 88.1917 303.37 87.8 302.754 87.8ZM315.724 87.5V96.725H316.499C317.099 96.725 317.532 96.6667 317.799 96.55C318.082 96.4167 318.224 96.125 318.224 95.675V87.5H323.224V100H320.724L319.274 98.575C318.274 99.775 316.849 100.375 314.999 100.375C313.515 100.375 312.432 100.058 311.749 99.425C311.065 98.7917 310.724 97.7333 310.724 96.25V87.5H315.724ZM328.22 87.5L329.47 88.75C331.02 87.6667 332.686 87.125 334.47 87.125C335.636 87.125 336.553 87.3833 337.22 87.9C337.886 88.4 338.22 89.1 338.22 90V100H333.22V91.25H332.445C331.878 91.25 331.445 91.3167 331.145 91.45C330.861 91.5667 330.72 91.8167 330.72 92.2V100H325.72V87.5H328.22ZM339.913 103.375L340.563 99.65C341.98 100.133 343.638 100.375 345.538 100.375C346.105 100.375 346.505 100.358 346.738 100.325V99.45C345.255 99.45 344.28 99.3917 343.813 99.275C343.363 99.1417 343.063 99.0167 342.913 98.9C342.78 98.7667 342.696 98.6583 342.663 98.575C342.646 98.4917 342.638 98.375 342.638 98.225L343.388 96.075C342.188 95.8583 341.271 95.4083 340.638 94.725C340.021 94.0417 339.713 92.975 339.713 91.525C339.713 90.0583 340.205 88.9583 341.188 88.225C342.171 87.4917 343.771 87.125 345.988 87.125C346.788 87.125 347.496 87.175 348.113 87.275L350.288 85.6L352.913 88.125L351.488 89.8C351.705 90.3833 351.813 91.1333 351.813 92.05C351.813 93.3667 351.48 94.35 350.813 95C350.163 95.6333 348.996 96.0167 347.313 96.15L347.213 96.75C349.013 96.85 350.28 97.125 351.013 97.575C351.763 98.0083 352.138 98.8167 352.138 100C352.138 102.017 351.163 103.267 349.213 103.75C348.246 104 346.938 104.125 345.288 104.125C343.655 104.125 341.863 103.875 339.913 103.375ZM344.413 91.5V93.125H345.188C345.788 93.125 346.221 93.0667 346.488 92.95C346.771 92.8167 346.913 92.525 346.913 92.075V90.45H346.138C345.538 90.45 345.096 90.5167 344.813 90.65C344.546 90.7667 344.413 91.05 344.413 91.5ZM358.866 95.75V96.625C359.366 96.675 359.866 96.7 360.366 96.7C361.916 96.7 363.483 96.45 365.066 95.95L365.666 99.625C363.8 100.125 361.95 100.375 360.116 100.375C357.783 100.375 356.091 99.8333 355.041 98.75C354.008 97.65 353.491 95.9833 353.491 93.75C353.491 91.5167 354.008 89.8583 355.041 88.775C356.091 87.675 357.775 87.125 360.091 87.125C362.425 87.125 364.033 87.4417 364.916 88.075C365.8 88.7083 366.241 89.8917 366.241 91.625C366.241 93.0917 365.708 94.15 364.641 94.8C363.591 95.4333 361.666 95.75 358.866 95.75ZM358.866 91.825V92.85H359.891C360.491 92.85 360.925 92.7917 361.191 92.675C361.475 92.5417 361.616 92.25 361.616 91.8V90.775H360.591C359.991 90.775 359.55 90.8417 359.266 90.975C359 91.0917 358.866 91.375 358.866 91.825ZM373.002 95.75V96.625C373.502 96.675 374.002 96.7 374.502 96.7C376.052 96.7 377.619 96.45 379.202 95.95L379.802 99.625C377.935 100.125 376.085 100.375 374.252 100.375C371.919 100.375 370.227 99.8333 369.177 98.75C368.144 97.65 367.627 95.9833 367.627 93.75C367.627 91.5167 368.144 89.8583 369.177 88.775C370.227 87.675 371.91 87.125 374.227 87.125C376.56 87.125 378.169 87.4417 379.052 88.075C379.935 88.7083 380.377 89.8917 380.377 91.625C380.377 93.0917 379.844 94.15 378.777 94.8C377.727 95.4333 375.802 95.75 373.002 95.75ZM373.002 91.825V92.85H374.027C374.627 92.85 375.06 92.7917 375.327 92.675C375.61 92.5417 375.752 92.25 375.752 91.8V90.775H374.727C374.127 90.775 373.685 90.8417 373.402 90.975C373.135 91.0917 373.002 91.375 373.002 91.825ZM382.313 99.575C381.946 99.1917 381.763 98.5083 381.763 97.525C381.763 96.5417 381.946 95.85 382.313 95.45C382.679 95.05 383.396 94.85 384.463 94.85C385.546 94.85 386.271 95.05 386.638 95.45C387.004 95.85 387.188 96.5417 387.188 97.525C387.188 98.5083 387.004 99.1917 386.638 99.575C386.271 99.9583 385.546 100.15 384.463 100.15C383.396 100.15 382.679 99.9583 382.313 99.575ZM393.803 95.75V96.625C394.303 96.675 394.803 96.7 395.303 96.7C396.853 96.7 398.419 96.45 400.003 95.95L400.603 99.625C398.736 100.125 396.886 100.375 395.053 100.375C392.719 100.375 391.028 99.8333 389.978 98.75C388.944 97.65 388.428 95.9833 388.428 93.75C388.428 91.5167 388.944 89.8583 389.978 88.775C391.028 87.675 392.711 87.125 395.028 87.125C397.361 87.125 398.969 87.4417 399.853 88.075C400.736 88.7083 401.178 89.8917 401.178 91.625C401.178 93.0917 400.644 94.15 399.578 94.8C398.528 95.4333 396.603 95.75 393.803 95.75ZM393.803 91.825V92.85H394.828C395.428 92.85 395.861 92.7917 396.128 92.675C396.411 92.5417 396.553 92.25 396.553 91.8V90.775H395.528C394.928 90.775 394.486 90.8417 394.203 90.975C393.936 91.0917 393.803 91.375 393.803 91.825ZM407.138 87.5L408.538 90.6H408.688L409.988 87.5H415.188L412.063 93.9L415.313 100H410.113L408.563 96.625H408.438L407.013 100H401.813L405.063 93.55L401.938 87.5H407.138ZM425.739 96.25L426.039 99.85C425.173 100.2 424.056 100.375 422.689 100.375C420.356 100.375 418.664 99.8333 417.614 98.75C416.581 97.65 416.064 95.9833 416.064 93.75C416.064 91.5167 416.581 89.8583 417.614 88.775C418.664 87.675 420.356 87.125 422.689 87.125C424.139 87.125 425.256 87.3 426.039 87.65L425.439 91.05C424.556 90.8667 423.856 90.775 423.339 90.775C422.073 90.775 421.439 91.2167 421.439 92.1V96.575C421.923 96.675 422.539 96.725 423.289 96.725C424.056 96.725 424.873 96.5667 425.739 96.25ZM433.039 92.3V100H428.039V83.75L433.039 83.375V87.95C434.106 87.4 435.289 87.125 436.589 87.125C437.889 87.125 438.872 87.3833 439.539 87.9C440.206 88.4 440.539 89.1 440.539 90V100H435.539V91.25H434.764C434.164 91.25 433.722 91.3167 433.439 91.45C433.172 91.5667 433.039 91.85 433.039 92.3ZM448.832 87.125C452.832 87.125 454.832 88.5 454.832 91.25V100H452.332L450.907 98.575C450.424 99.1417 449.766 99.5833 448.932 99.9C448.099 100.217 447.307 100.375 446.557 100.375C445.824 100.375 445.232 100.317 444.782 100.2C444.332 100.083 443.891 99.8833 443.457 99.6C442.507 99 442.032 97.8833 442.032 96.25C442.032 93.25 444.299 91.75 448.832 91.75H449.832V90.85C449.299 90.8167 448.857 90.8 448.507 90.8C446.624 90.8 445.007 91.025 443.657 91.475L443.057 87.9C444.724 87.3833 446.649 87.125 448.832 87.125ZM447.082 95.7V96.725H448.107C448.841 96.725 449.307 96.6417 449.507 96.475C449.724 96.3083 449.832 96.0917 449.832 95.825V94.65H448.807C448.207 94.65 447.766 94.7167 447.482 94.85C447.216 94.9667 447.082 95.25 447.082 95.7ZM459.592 87.5L460.842 88.75C462.392 87.6667 464.058 87.125 465.842 87.125C467.008 87.125 467.925 87.3833 468.592 87.9C469.258 88.4 469.592 89.1 469.592 90V100H464.592V91.25H463.817C463.25 91.25 462.817 91.3167 462.517 91.45C462.233 91.5667 462.092 91.8167 462.092 92.2V100H457.092V87.5H459.592ZM471.285 103.375L471.935 99.65C473.352 100.133 475.01 100.375 476.91 100.375C477.477 100.375 477.877 100.358 478.11 100.325V99.45C476.627 99.45 475.652 99.3917 475.185 99.275C474.735 99.1417 474.435 99.0167 474.285 98.9C474.152 98.7667 474.068 98.6583 474.035 98.575C474.018 98.4917 474.01 98.375 474.01 98.225L474.76 96.075C473.56 95.8583 472.643 95.4083 472.01 94.725C471.393 94.0417 471.085 92.975 471.085 91.525C471.085 90.0583 471.577 88.9583 472.56 88.225C473.543 87.4917 475.143 87.125 477.36 87.125C478.16 87.125 478.868 87.175 479.485 87.275L481.66 85.6L484.285 88.125L482.86 89.8C483.077 90.3833 483.185 91.1333 483.185 92.05C483.185 93.3667 482.852 94.35 482.185 95C481.535 95.6333 480.368 96.0167 478.685 96.15L478.585 96.75C480.385 96.85 481.652 97.125 482.385 97.575C483.135 98.0083 483.51 98.8167 483.51 100C483.51 102.017 482.535 103.267 480.585 103.75C479.618 104 478.31 104.125 476.66 104.125C475.027 104.125 473.235 103.875 471.285 103.375ZM475.785 91.5V93.125H476.56C477.16 93.125 477.593 93.0667 477.86 92.95C478.143 92.8167 478.285 92.525 478.285 92.075V90.45H477.51C476.91 90.45 476.468 90.5167 476.185 90.65C475.918 90.7667 475.785 91.05 475.785 91.5ZM490.238 95.75V96.625C490.738 96.675 491.238 96.7 491.738 96.7C493.288 96.7 494.855 96.45 496.438 95.95L497.038 99.625C495.172 100.125 493.322 100.375 491.488 100.375C489.155 100.375 487.463 99.8333 486.413 98.75C485.38 97.65 484.863 95.9833 484.863 93.75C484.863 91.5167 485.38 89.8583 486.413 88.775C487.463 87.675 489.147 87.125 491.463 87.125C493.797 87.125 495.405 87.4417 496.288 88.075C497.172 88.7083 497.613 89.8917 497.613 91.625C497.613 93.0917 497.08 94.15 496.013 94.8C494.963 95.4333 493.038 95.75 490.238 95.75ZM490.238 91.825V92.85H491.263C491.863 92.85 492.297 92.7917 492.563 92.675C492.847 92.5417 492.988 92.25 492.988 91.8V90.775H491.963C491.363 90.775 490.922 90.8417 490.638 90.975C490.372 91.0917 490.238 91.375 490.238 91.825Z" fill="#36B6E9"/>
</svg>
