<svg width="812" height="301" viewBox="0 0 812 301" fill="none" xmlns="http://www.w3.org/2000/svg">
<path d="M240.637 19.8145C206.559 19.3059 172.581 17.082 138.472 17.082C104.856 17.082 71.2397 17.082 37.6234 17.082C32.2795 17.082 27.3548 17.9929 22.0382 17.9929C16.0294 17.9929 14.4838 20.9706 12.9299 26.7975C11.5921 31.8142 11.5551 37.0921 11.1082 42.231C10.6287 47.7461 8.40876 52.8375 7.46493 58.2717C3.8501 79.0843 5.29116 100.269 5.64328 121.22C5.77535 129.078 8.17596 135.713 10.1974 143.181C13.8884 156.817 16.4632 171.97 14.7515 186.091C12.9596 200.874 5.23501 214.33 8.52756 229.558C10.2944 237.729 13.4455 245.495 16.5226 253.239C18.5667 258.384 22.1989 264.71 22.7972 270.393C22.8559 270.951 20.4755 274.016 20.0141 274.846C18.7754 277.076 16.5732 277.554 16.5732 280.766C16.5732 284.61 73.6737 284.733 80.7359 284.157C90.5208 283.358 100.38 284.22 110.186 283.448C118.079 282.827 125.892 282.37 133.817 282.689C142.009 283.02 150.362 284.5 158.561 283.55C166.406 282.64 173.631 280.374 181.635 280.311C187.214 280.267 192.662 281.222 198.182 281.222C204.53 281.222 210.768 282.133 216.955 282.133C225.76 282.133 234.564 282.133 243.369 282.133" stroke="white" stroke-width="10" stroke-linecap="round"/>
<path d="M570.732 19.8145C604.81 19.3059 638.788 17.082 672.897 17.082C706.513 17.082 740.129 17.082 773.746 17.082C779.09 17.082 784.014 17.9929 789.331 17.9929C795.34 17.9929 796.885 20.9706 798.439 26.7975C799.777 31.8142 799.814 37.0921 800.261 42.231C800.74 47.7461 802.96 52.8375 803.904 58.2717C807.519 79.0843 806.078 100.269 805.726 121.22C805.594 129.078 803.193 135.713 801.172 143.181C797.481 156.817 794.906 171.97 796.618 186.091C798.41 200.874 806.134 214.33 802.842 229.558C801.075 237.729 797.924 245.495 794.847 253.239C792.802 258.384 789.17 264.71 788.572 270.393C788.513 270.951 790.894 274.016 791.355 274.846C792.594 277.076 794.796 277.554 794.796 280.766C794.796 284.61 737.695 284.733 730.633 284.157C720.848 283.358 710.989 284.22 701.183 283.448C693.29 282.827 685.478 282.37 677.552 282.689C669.36 283.02 661.007 284.5 652.808 283.55C644.963 282.64 637.738 280.374 629.734 280.311C624.155 280.267 618.707 281.222 613.187 281.222C606.839 281.222 600.601 282.133 594.414 282.133C585.609 282.133 576.805 282.133 568 282.133" stroke="white" stroke-width="10" stroke-linecap="round"/>
<path d="M296 0L300.939 15.2016H316.923L303.992 24.5967L308.931 39.7984L296 30.4033L283.069 39.7984L288.008 24.5967L275.077 15.2016H291.061L296 0Z" fill="#F41917"/>
<path d="M351 0L355.939 15.2016H371.923L358.992 24.5967L363.931 39.7984L351 30.4033L338.069 39.7984L343.008 24.5967L330.077 15.2016H346.061L351 0Z" fill="#F41917"/>
<path d="M406 0L410.939 15.2016H426.923L413.992 24.5967L418.931 39.7984L406 30.4033L393.069 39.7984L398.008 24.5967L385.077 15.2016H401.061L406 0Z" fill="#F41917"/>
<path d="M461 0L465.939 15.2016H481.923L468.992 24.5967L473.931 39.7984L461 30.4033L448.069 39.7984L453.008 24.5967L440.077 15.2016H456.061L461 0Z" fill="#F41917"/>
<path d="M516 0L520.939 15.2016H536.923L523.992 24.5967L528.931 39.7984L516 30.4033L503.069 39.7984L508.008 24.5967L495.077 15.2016H511.061L516 0Z" fill="#F41917"/>
<path d="M336.374 263.308C338.556 260.217 349.448 258.213 351.938 261.415C356.718 267.561 343.452 270.567 340.16 273.53C339.045 274.533 331.677 285.792 335.617 286.023C338.422 286.188 341.308 286.023 344.114 286.023C349.022 286.023 352.788 287.497 357.575 288.295" stroke="#F41917" stroke-width="8" stroke-linecap="round"/>
<path d="M407.906 263.308C410.088 260.217 420.98 258.213 423.47 261.415C428.25 267.561 414.985 270.567 411.692 273.53C410.577 274.533 403.209 285.792 407.149 286.023C409.954 286.188 412.841 286.023 415.646 286.023C420.554 286.023 424.32 287.497 429.107 288.295" stroke="#F41917" stroke-width="8" stroke-linecap="round"/>
<path d="M372.339 264.736C374.14 261.935 374.865 261.436 377.261 259.52C384.123 259.52 389.562 262.628 391.816 269.952C393.463 275.305 395.181 284.238 388.198 286.778C384.336 288.182 381.796 289.978 377.976 287.829C374.531 285.892 371.935 281.43 370.068 278.07C369.689 277.388 370.115 269.931 370.825 269.363C371.619 268.727 371.601 265.885 372.339 264.736Z" stroke="#F41917" stroke-width="8" stroke-linecap="round"/>
<path d="M440.847 256.062C440.847 263.533 440.377 270.968 440.827 278.399C440.923 279.974 441.116 281.47 441.224 283.04C441.306 284.227 441.397 287.613 442.355 288.476C443.296 289.323 447.423 288.005 448.465 287.92C450.142 287.783 451.578 288.198 453.206 288.198C456.038 288.198 458.751 287.841 461.557 287.841" stroke="#F41917" stroke-width="8" stroke-linecap="round"/>
<path d="M454.772 272.129C454.772 275.591 455.676 279.099 455.844 282.583C455.966 285.113 455.794 288.191 456.835 290.577C457.574 292.27 457.986 294.899 457.986 296.766" stroke="#F41917" stroke-width="8" stroke-linecap="round"/>
<path d="M75.7666 90.8242C78.4468 109.697 82.9703 128.955 80.2695 147.861" stroke="#F41917" stroke-width="8" stroke-linecap="round"/>
<path d="M50.2505 93.829C65.0976 93.829 79.7388 93.3078 94.5288 92.4114C102.674 91.9178 109.844 88.4442 117.794 86.3242" stroke="#F41917" stroke-width="8" stroke-linecap="round"/>
<path d="M129.801 98.3281C129.106 110.84 125.298 123.267 125.298 135.852" stroke="#F41917" stroke-width="8" stroke-linecap="round"/>
<path d="M129.801 96.8281C135.756 96.8281 138.894 109.177 140.975 113.339C144.841 121.07 150.507 128.637 155.318 135.853" stroke="#F41917" stroke-width="8" stroke-linecap="round"/>
<path d="M119.294 128.348C124.5 124.183 136.951 123.05 143.31 122.344" stroke="#F41917" stroke-width="8" stroke-linecap="round"/>
<path d="M185.337 96.8281C181.414 110.379 174.83 124.433 174.83 138.855" stroke="#F41917" stroke-width="8" stroke-linecap="round"/>
<path d="M161.321 81.8203C163.119 91.7096 170.028 102.301 173.996 111.339C176.908 117.971 183.836 125.559 183.836 132.853" stroke="#F41917" stroke-width="8" stroke-linecap="round"/>
<path d="M688.158 90.8242C673.339 92.0592 665.756 99.5539 661.891 111.921C659.595 119.268 663.776 138.855 673.982 138.855C686.791 138.855 710.755 135.98 704.335 116.007C701.709 107.836 694.032 99.0145 686.657 95.3271" stroke="#F41917" stroke-width="8" stroke-linecap="round"/>
<path d="M104.285 198.895C83.6531 198.895 91.8867 218.965 101.283 228.914C112.649 240.948 77.2627 252.919 72.7646 243.923" stroke="#F41917" stroke-width="8" stroke-linecap="round"/>
<path d="M128.3 200.395C128.3 211.086 123.901 232.136 134.971 237.168C159.271 248.214 158.319 222.45 158.319 206.398" stroke="#F41917" stroke-width="8" stroke-linecap="round"/>
<path d="M174.83 201.895C174.83 213.467 174.107 229.744 177.832 240.919" stroke="#F41917" stroke-width="8" stroke-linecap="round"/>
<path d="M174.83 200.394C182.345 193.714 190.29 198.031 194.009 206.398C198.305 216.064 184.79 217.998 182.335 222.908" stroke="#F41917" stroke-width="8" stroke-linecap="round"/>
<path d="M209.352 203.398C210.706 207.63 214.132 237.921 212.354 237.921" stroke="#F41917" stroke-width="8" stroke-linecap="round"/>
<path d="M207.851 206.398C208.599 192.935 230.008 192.765 233.284 204.23C235.415 211.687 223.782 217.194 218.358 219.907" stroke="#F41917" stroke-width="8" stroke-linecap="round"/>
<path d="M252.88 195.891C257.727 198.314 254.381 227.455 254.381 234.916" stroke="#F41917" stroke-width="8" stroke-linecap="round"/>
<path d="M272.393 198.895C274.238 209.761 272.825 223.351 286.402 216.24C291.838 213.392 292.755 192.58 291.822 198.645C290.304 208.51 286.139 218.596 285.901 228.581C285.74 235.37 286.739 244.168 282.899 249.928" stroke="#F41917" stroke-width="8" stroke-linecap="round"/>
<path d="M614.611 201.896C620.598 201.266 628.918 196.617 631.122 190.556C632.203 187.582 634.644 178.429 634.124 181.55C631.291 198.548 636.51 218.752 631.122 234.918" stroke="#F41917" stroke-width="8" stroke-linecap="round"/>
<path d="M613.11 243.922C623.705 243.922 634.119 243.922 644.631 243.922" stroke="#F41917" stroke-width="8" stroke-linecap="round"/>
<path d="M664.143 186.888C664.143 199.608 664.302 212.86 666.394 225.413C667.177 230.11 664.616 244.234 664.06 239.505C662.925 229.857 663.8 221.319 664.143 212.071C664.412 204.804 661.299 193.289 664.477 187.222C671.218 174.352 677.805 185.81 682.905 189.89C689.066 194.819 680.306 206.915 676.985 210.237C671.056 216.165 679.762 210.904 685.156 210.904C691.173 210.904 695.663 212.702 695.663 219.159C695.663 231.483 678.194 237.921 668.646 237.921" stroke="#F41917" stroke-width="8" stroke-linecap="round"/>
</svg>
