<svg width="764" height="174" viewBox="0 0 764 174" fill="none" xmlns="http://www.w3.org/2000/svg">
<rect x="19.5" y="22.5" width="739" height="146" rx="59.5" fill="#36B6E9" stroke="#36B6E9" stroke-width="11"/>
<rect x="5.5" y="5.5" width="739" height="146" rx="59.5" fill="white" stroke="white" stroke-width="11"/>
<path d="M76.725 76.875V75.25C76.225 75.1667 75.4167 75.125 74.3 75.125C73.1833 75.125 71.7917 75.3 70.125 75.65L69.475 71.95C71.5083 71.3167 73.475 71 75.375 71C77.0083 71 78.1917 71.1 78.925 71.3C79.6583 71.5 80.2 71.7417 80.55 72.025C81.3167 72.675 81.7 73.6583 81.7 74.975C81.7 76.6417 81.0083 77.8417 79.625 78.575V78.7C81.275 79.3833 82.1 80.625 82.1 82.425C82.1 83.3083 81.9583 84.0667 81.675 84.7C81.4083 85.3167 81.0667 85.8 80.65 86.15C80.2333 86.4833 79.6833 86.75 79 86.95C77.9833 87.2333 76.55 87.375 74.7 87.375C72.8667 87.375 71.025 87.1583 69.175 86.725L69.875 82.6C71.4583 82.9833 72.8 83.175 73.9 83.175C75 83.175 75.9417 83.125 76.725 83.025V81.425L72.425 81V77.375L76.725 76.875ZM84.2902 86.575C83.9236 86.1917 83.7402 85.5083 83.7402 84.525C83.7402 83.5417 83.9236 82.85 84.2902 82.45C84.6569 82.05 85.3736 81.85 86.4402 81.85C87.5236 81.85 88.2486 82.05 88.6152 82.45C88.9819 82.85 89.1652 83.5417 89.1652 84.525C89.1652 85.5083 88.9819 86.1917 88.6152 86.575C88.2486 86.9583 87.5236 87.15 86.4402 87.15C85.3736 87.15 84.6569 86.9583 84.2902 86.575ZM94.04 86.725L94.74 82.6C96.2734 82.9833 97.6484 83.175 98.865 83.175C100.098 83.175 101.09 83.125 101.84 83.025V81.775L99.59 81.575C97.5567 81.3917 96.1567 80.9083 95.39 80.125C94.64 79.325 94.265 78.15 94.265 76.6C94.265 74.4667 94.7234 73 95.64 72.2C96.5734 71.4 98.1484 71 100.365 71C102.582 71 104.582 71.2083 106.365 71.625L105.74 75.625C104.19 75.375 102.948 75.25 102.015 75.25C101.082 75.25 100.29 75.2917 99.64 75.375V76.6L101.44 76.775C103.623 76.9917 105.132 77.5167 105.965 78.35C106.798 79.1667 107.215 80.3083 107.215 81.775C107.215 82.825 107.073 83.7167 106.79 84.45C106.507 85.1667 106.165 85.7167 105.765 86.1C105.382 86.4667 104.832 86.75 104.115 86.95C103.398 87.15 102.765 87.2667 102.215 87.3C101.682 87.35 100.965 87.375 100.065 87.375C97.8984 87.375 95.89 87.1583 94.04 86.725ZM110.694 87L108.194 74.5H113.094L114.119 81.925H114.394L115.969 74.5H119.719L121.119 81.925H121.394L122.594 74.5H127.494L124.994 87H118.844L117.869 81.625H117.669L116.594 87H110.694ZM135.014 74.125C139.014 74.125 141.014 75.5 141.014 78.25V87H138.514L137.089 85.575C136.606 86.1417 135.947 86.5833 135.114 86.9C134.281 87.2167 133.489 87.375 132.739 87.375C132.006 87.375 131.414 87.3167 130.964 87.2C130.514 87.0833 130.072 86.8833 129.639 86.6C128.689 86 128.214 84.8833 128.214 83.25C128.214 80.25 130.481 78.75 135.014 78.75H136.014V77.85C135.481 77.8167 135.039 77.8 134.689 77.8C132.806 77.8 131.189 78.025 129.839 78.475L129.239 74.9C130.906 74.3833 132.831 74.125 135.014 74.125ZM133.264 82.7V83.725H134.289C135.022 83.725 135.489 83.6417 135.689 83.475C135.906 83.3083 136.014 83.0917 136.014 82.825V81.65H134.989C134.389 81.65 133.947 81.7167 133.664 81.85C133.397 81.9667 133.264 82.25 133.264 82.7ZM143.273 74.5H145.773L146.698 75.75C147.432 74.6667 148.79 74.125 150.773 74.125C151.79 74.125 152.665 74.3167 153.398 74.7C154.132 75.0833 154.69 75.6083 155.073 76.275C155.79 77.525 156.148 79.0167 156.148 80.75C156.148 82.8667 155.69 84.4667 154.773 85.55C154.407 85.9667 153.915 86.3167 153.298 86.6C152.682 86.8667 151.965 87 151.148 87H148.273V90.75L143.273 91.125V74.5ZM148.273 78.7V83.725H149.048C149.648 83.725 150.082 83.6667 150.348 83.55C150.632 83.4167 150.773 83.125 150.773 82.675V77.775H149.998C149.632 77.775 149.34 77.7917 149.123 77.825C148.907 77.8583 148.715 77.95 148.548 78.1C148.382 78.2333 148.29 78.4333 148.273 78.7ZM171.901 81.1H166.901V83H173.026V87H161.901V71.375H172.901L172.276 75.375H166.901V77.475H171.901V81.1ZM174.408 77.725V74.5H175.658V72.5L180.658 71.25V74.5H182.383V77.725H180.658V83.425C181.092 83.5083 181.583 83.5667 182.133 83.6L181.908 87.275C179.625 87.275 178.142 87.15 177.458 86.9C176.608 86.6 176.075 86.2 175.858 85.7C175.725 85.4 175.658 85.05 175.658 84.65V77.725H174.408ZM189.265 79.3V87H184.265V70.75L189.265 70.375V74.95C190.331 74.4 191.515 74.125 192.815 74.125C194.115 74.125 195.098 74.3833 195.765 74.9C196.431 75.4 196.765 76.1 196.765 77V87H191.765V78.25H190.99C190.39 78.25 189.948 78.3167 189.665 78.45C189.398 78.5667 189.265 78.85 189.265 79.3ZM208.643 73.45V74.5H210.143V77.75H208.643V87H203.643V77.75H202.393V74.5H203.643L203.818 73C204.051 71.0833 205.518 70.125 208.218 70.125C208.918 70.125 209.834 70.2083 210.968 70.375L210.693 73.65L208.643 73.45ZM212.658 85.75C211.625 84.65 211.108 82.9833 211.108 80.75C211.108 78.5167 211.625 76.8583 212.658 75.775C213.708 74.675 215.4 74.125 217.733 74.125C220.067 74.125 221.75 74.675 222.783 75.775C223.833 76.8583 224.358 78.5167 224.358 80.75C224.358 82.9833 223.833 84.65 222.783 85.75C221.75 86.8333 220.067 87.375 217.733 87.375C215.4 87.375 213.708 86.8333 212.658 85.75ZM216.483 78.825V83.725H217.258C217.858 83.725 218.292 83.6667 218.558 83.55C218.842 83.4167 218.983 83.125 218.983 82.675V77.775H218.208C217.608 77.775 217.167 77.8417 216.883 77.975C216.617 78.0917 216.483 78.375 216.483 78.825ZM226.354 74.5H228.854L230.229 75.9C231.213 75 232.446 74.4083 233.929 74.125L234.229 78.85C233.829 78.8667 233.304 78.9667 232.654 79.15C232.021 79.3333 231.588 79.5667 231.354 79.85V87H226.354V74.5ZM243.864 69.05H247.039L246.964 71.05C248.298 71.1333 249.464 71.2667 250.464 71.45L249.739 75.325H245.989C245.406 75.325 245.014 75.4167 244.814 75.6C244.631 75.7833 244.531 76.1333 244.514 76.65L246.089 76.825C248.006 77.0417 249.323 77.5333 250.039 78.3C250.773 79.0667 251.139 80.0583 251.139 81.275C251.139 82.4917 251.014 83.4667 250.764 84.2C250.514 84.9167 250.156 85.4667 249.689 85.85C248.839 86.5 247.723 86.875 246.339 86.975L246.264 89.5H243.039L243.139 86.975C241.556 86.8583 240.214 86.6583 239.114 86.375L239.839 82.4C241.223 82.7667 242.673 82.95 244.189 82.95C244.823 82.95 245.414 82.9167 245.964 82.85V81.8L244.414 81.625C242.414 81.425 241.081 80.8417 240.414 79.875C239.831 79.025 239.539 77.9167 239.539 76.55C239.539 74.75 239.906 73.4417 240.639 72.625C241.389 71.8083 242.439 71.3083 243.789 71.125L243.864 69.05ZM253.259 87V71.375H261.359C262.859 71.375 263.925 71.6667 264.559 72.25C265.209 72.8333 265.534 73.6833 265.534 74.8C265.534 75.9167 265.325 76.7833 264.909 77.4C264.509 78 263.967 78.3917 263.284 78.575V78.725C265.3 79.075 266.309 80.45 266.309 82.85C266.309 84.1 265.975 85.1083 265.309 85.875C264.642 86.625 263.617 87 262.234 87H253.259ZM260.209 80.775H258.259V83.325H260.184C260.884 83.325 261.234 82.9 261.234 82.05C261.234 81.2 260.892 80.775 260.209 80.775ZM259.834 74.8H258.259V77.125H259.809C260.442 77.125 260.759 76.7417 260.759 75.975C260.759 75.1917 260.45 74.8 259.834 74.8ZM278.054 87H268.054V71.375H273.054V83H278.054V87ZM284.056 71.375V83.1H285.831C286.464 83.1 286.897 83.025 287.131 82.875C287.364 82.7083 287.481 82.3417 287.481 81.775V71.375H292.481V80.15C292.481 81.5667 292.389 82.7083 292.206 83.575C292.022 84.4417 291.681 85.175 291.181 85.775C290.681 86.375 289.997 86.7917 289.131 87.025C288.264 87.2583 287.139 87.375 285.756 87.375C284.372 87.375 283.247 87.2583 282.381 87.025C281.531 86.7917 280.856 86.375 280.356 85.775C279.856 85.175 279.514 84.4417 279.331 83.575C279.147 82.7083 279.056 81.5667 279.056 80.15V71.375H284.056ZM304.616 81.1H299.616V83H305.741V87H294.616V71.375H305.616L304.991 75.375H299.616V77.475H304.616V81.1ZM316.383 74.5V83.725H317.158C317.758 83.725 318.191 83.6667 318.458 83.55C318.741 83.4167 318.883 83.125 318.883 82.675V74.5H323.883V87H321.383L319.933 85.575C318.933 86.775 317.508 87.375 315.658 87.375C314.174 87.375 313.091 87.0583 312.408 86.425C311.724 85.7917 311.383 84.7333 311.383 83.25V74.5H316.383ZM327.554 75C328.637 74.4167 330.112 74.125 331.979 74.125C333.846 74.125 335.562 74.3833 337.129 74.9L336.554 78.3C335.254 77.9333 333.954 77.75 332.654 77.75C332.254 77.75 331.687 77.7833 330.954 77.85V78.65C333.654 78.65 335.487 79.05 336.454 79.85C336.937 80.25 337.279 80.6917 337.479 81.175C337.679 81.6417 337.779 82.2167 337.779 82.9C337.779 83.5667 337.696 84.1667 337.529 84.7C337.379 85.2333 337.137 85.6583 336.804 85.975C336.487 86.2917 336.154 86.55 335.804 86.75C335.454 86.95 334.996 87.0917 334.429 87.175C333.546 87.3083 332.521 87.375 331.354 87.375C329.287 87.375 327.421 87.1333 325.754 86.65L326.379 83.1C327.779 83.5333 329.296 83.75 330.929 83.75C331.679 83.75 332.362 83.7167 332.979 83.65V82.85C330.312 82.85 328.471 82.5 327.454 81.8C326.454 81.1 325.954 79.9417 325.954 78.325C325.954 76.6917 326.487 75.5833 327.554 75ZM339.538 87V75.125L344.538 74.5V87H339.538ZM339.813 73.7C339.446 73.4167 339.263 72.9 339.263 72.15C339.263 71.4 339.446 70.875 339.813 70.575C340.196 70.275 340.938 70.125 342.038 70.125C343.155 70.125 343.896 70.275 344.263 70.575C344.646 70.875 344.838 71.4 344.838 72.15C344.838 72.9 344.646 73.4167 344.263 73.7C343.896 73.9833 343.155 74.125 342.038 74.125C340.938 74.125 340.196 73.9833 339.813 73.7ZM349.533 74.5L350.783 75.75C352.333 74.6667 354 74.125 355.783 74.125C356.95 74.125 357.867 74.3833 358.533 74.9C359.2 75.4 359.533 76.1 359.533 77V87H354.533V78.25H353.758C353.192 78.25 352.758 78.3167 352.458 78.45C352.175 78.5667 352.033 78.8167 352.033 79.2V87H347.033V74.5H349.533ZM361.226 90.375L361.876 86.65C363.293 87.1333 364.951 87.375 366.851 87.375C367.418 87.375 367.818 87.3583 368.051 87.325V86.45C366.568 86.45 365.593 86.3917 365.126 86.275C364.676 86.1417 364.376 86.0167 364.226 85.9C364.093 85.7667 364.01 85.6583 363.976 85.575C363.96 85.4917 363.951 85.375 363.951 85.225L364.701 83.075C363.501 82.8583 362.585 82.4083 361.951 81.725C361.335 81.0417 361.026 79.975 361.026 78.525C361.026 77.0583 361.518 75.9583 362.501 75.225C363.485 74.4917 365.085 74.125 367.301 74.125C368.101 74.125 368.81 74.175 369.426 74.275L371.601 72.6L374.226 75.125L372.801 76.8C373.018 77.3833 373.126 78.1333 373.126 79.05C373.126 80.3667 372.793 81.35 372.126 82C371.476 82.6333 370.31 83.0167 368.626 83.15L368.526 83.75C370.326 83.85 371.593 84.125 372.326 84.575C373.076 85.0083 373.451 85.8167 373.451 87C373.451 89.0167 372.476 90.2667 370.526 90.75C369.56 91 368.251 91.125 366.601 91.125C364.968 91.125 363.176 90.875 361.226 90.375ZM365.726 78.5V80.125H366.501C367.101 80.125 367.535 80.0667 367.801 79.95C368.085 79.8167 368.226 79.525 368.226 79.075V77.45H367.451C366.851 77.45 366.41 77.5167 366.126 77.65C365.86 77.7667 365.726 78.05 365.726 78.5ZM383.814 74.5V83.725H384.589C385.189 83.725 385.623 83.6667 385.889 83.55C386.173 83.4167 386.314 83.125 386.314 82.675V74.5H391.314V87H388.814L387.364 85.575C386.364 86.775 384.939 87.375 383.089 87.375C381.606 87.375 380.523 87.0583 379.839 86.425C379.156 85.7917 378.814 84.7333 378.814 83.25V74.5H383.814ZM396.311 74.5L397.561 75.75C399.111 74.6667 400.777 74.125 402.561 74.125C403.727 74.125 404.644 74.3833 405.311 74.9C405.977 75.4 406.311 76.1 406.311 77V87H401.311V78.25H400.536C399.969 78.25 399.536 78.3167 399.236 78.45C398.952 78.5667 398.811 78.8167 398.811 79.2V87H393.811V74.5H396.311ZM408.679 87V75.125L413.679 74.5V87H408.679ZM408.954 73.7C408.587 73.4167 408.404 72.9 408.404 72.15C408.404 71.4 408.587 70.875 408.954 70.575C409.337 70.275 410.079 70.125 411.179 70.125C412.295 70.125 413.037 70.275 413.404 70.575C413.787 70.875 413.979 71.4 413.979 72.15C413.979 72.9 413.787 73.4167 413.404 73.7C413.037 73.9833 412.295 74.125 411.179 74.125C410.079 74.125 409.337 73.9833 408.954 73.7ZM417.349 75C418.432 74.4167 419.907 74.125 421.774 74.125C423.64 74.125 425.357 74.3833 426.924 74.9L426.349 78.3C425.049 77.9333 423.749 77.75 422.449 77.75C422.049 77.75 421.482 77.7833 420.749 77.85V78.65C423.449 78.65 425.282 79.05 426.249 79.85C426.732 80.25 427.074 80.6917 427.274 81.175C427.474 81.6417 427.574 82.2167 427.574 82.9C427.574 83.5667 427.49 84.1667 427.324 84.7C427.174 85.2333 426.932 85.6583 426.599 85.975C426.282 86.2917 425.949 86.55 425.599 86.75C425.249 86.95 424.79 87.0917 424.224 87.175C423.34 87.3083 422.315 87.375 421.149 87.375C419.082 87.375 417.215 87.1333 415.549 86.65L416.174 83.1C417.574 83.5333 419.09 83.75 420.724 83.75C421.474 83.75 422.157 83.7167 422.774 83.65V82.85C420.107 82.85 418.265 82.5 417.249 81.8C416.249 81.1 415.749 79.9417 415.749 78.325C415.749 76.6917 416.282 75.5833 417.349 75ZM430.933 87L428.433 74.5H433.333L434.358 81.925H434.633L436.208 74.5H439.958L441.358 81.925H441.633L442.833 74.5H447.733L445.233 87H439.083L438.108 81.625H437.908L436.833 87H430.933ZM455.253 74.125C459.253 74.125 461.253 75.5 461.253 78.25V87H458.753L457.328 85.575C456.845 86.1417 456.186 86.5833 455.353 86.9C454.52 87.2167 453.728 87.375 452.978 87.375C452.245 87.375 451.653 87.3167 451.203 87.2C450.753 87.0833 450.311 86.8833 449.878 86.6C448.928 86 448.453 84.8833 448.453 83.25C448.453 80.25 450.72 78.75 455.253 78.75H456.253V77.85C455.72 77.8167 455.278 77.8 454.928 77.8C453.045 77.8 451.428 78.025 450.078 78.475L449.478 74.9C451.145 74.3833 453.07 74.125 455.253 74.125ZM453.503 82.7V83.725H454.528C455.261 83.725 455.728 83.6417 455.928 83.475C456.145 83.3083 456.253 83.0917 456.253 82.825V81.65H455.228C454.628 81.65 454.186 81.7167 453.903 81.85C453.636 81.9667 453.503 82.25 453.503 82.7ZM463.513 74.5H466.013L466.938 75.75C467.671 74.6667 469.029 74.125 471.013 74.125C472.029 74.125 472.904 74.3167 473.638 74.7C474.371 75.0833 474.929 75.6083 475.313 76.275C476.029 77.525 476.388 79.0167 476.388 80.75C476.388 82.8667 475.929 84.4667 475.013 85.55C474.646 85.9667 474.154 86.3167 473.538 86.6C472.921 86.8667 472.204 87 471.388 87H468.513V90.75L463.513 91.125V74.5ZM468.513 78.7V83.725H469.288C469.888 83.725 470.321 83.6667 470.588 83.55C470.871 83.4167 471.013 83.125 471.013 82.675V77.775H470.238C469.871 77.775 469.579 77.7917 469.363 77.825C469.146 77.8583 468.954 77.95 468.788 78.1C468.621 78.2333 468.529 78.4333 468.513 78.7Z" fill="#36B6E9"/>
</svg>
