<svg width="549" height="138" viewBox="0 0 549 138" fill="none" xmlns="http://www.w3.org/2000/svg">
<path d="M1.46484 26.8828C5.66406 27.3711 7.99154 27.6152 8.44727 27.6152H18.8477V32.5469C13.8021 33.0352 10.5469 35.5742 9.08203 40.1641C8.69141 41.4661 8.30078 42.7357 7.91016 43.9727C6.90104 47.2279 5.76172 49.3763 4.49219 50.418H1.46484V26.8828ZM39.4531 84.8906C39.4531 88.5365 40.2669 90.7826 41.8945 91.6289C42.6432 91.987 43.4896 92.2311 44.4336 92.3613C45.4102 92.4915 46.4193 92.8333 47.4609 93.3867V97H15.0391V93.3867C16.0807 93.0286 17.0898 92.7357 18.0664 92.5078C19.043 92.2474 19.9219 91.9219 20.7031 91.5312C22.3633 90.6198 23.1934 89.1387 23.1934 87.0879V27.6152H39.4531V84.8906ZM54.1992 27.6152C54.6549 27.6152 56.9824 27.3711 61.1816 26.8828V50.418H58.1543C56.8848 49.3763 55.8919 47.7324 55.1758 45.4863C54.4922 43.2402 53.9388 41.4824 53.5156 40.2129C53.0924 38.9108 52.5065 37.7227 51.7578 36.6484C50.0977 34.2721 47.4447 32.9049 43.7988 32.5469V27.6152H54.1992ZM85.3516 52.8105C81.4128 54.2428 79.4434 60.7695 79.4434 72.3906C79.4434 78.1198 79.8828 82.5957 80.7617 85.8184C81.6732 89.0085 83.2031 91.0267 85.3516 91.873V97.7324C78.8737 97.2116 73.5352 94.6074 69.3359 89.9199C65.1042 85.1999 62.9883 79.4056 62.9883 72.5371C62.9883 65.7988 65.1042 59.9883 69.3359 55.1055C73.6654 50.1901 79.0039 47.472 85.3516 46.9512V52.8105ZM95.6543 72.3906C95.6543 60.7695 93.6686 54.2428 89.6973 52.8105V46.9512C96.1426 47.472 101.481 50.1901 105.713 55.1055C109.945 59.9883 112.061 65.7988 112.061 72.5371C112.061 79.4056 109.945 85.1999 105.713 89.9199C101.514 94.6074 96.1751 97.2116 89.6973 97.7324V91.873C91.8457 91.0592 93.3757 89.0573 94.2871 85.8672C95.1986 82.6445 95.6543 78.1523 95.6543 72.3906ZM142.09 66.2871L150.146 59.207C151.351 58.1654 152.246 57.319 152.832 56.668C153.451 56.0169 153.76 55.3822 153.76 54.7637C153.76 54.1452 153.564 53.7057 153.174 53.4453C152.816 53.1523 152.36 52.9245 151.807 52.7617C151.253 52.599 150.651 52.4362 150 52.2734C149.349 52.0781 148.763 51.7689 148.242 51.3457V47.9277H170.654V50.418C170.654 51.1667 169.857 51.9316 168.262 52.7129C164.746 54.4707 162.581 55.7077 161.768 56.4238L152.881 64.2363L166.357 86.6484C167.985 89.513 170.02 91.5312 172.461 92.7031C173.014 92.9961 173.568 93.3867 174.121 93.875V97H148.438L148.389 93.6797C148.389 93.224 148.844 92.9147 149.756 92.752C150.7 92.5566 151.383 92.3939 151.807 92.2637C152.262 92.1335 152.49 91.9219 152.49 91.6289C152.067 90.5221 151.139 88.7155 149.707 86.209C148.275 83.6699 147.266 81.8796 146.68 80.8379L142.09 73.123V66.2871ZM123.193 36.5996C123.193 33.6374 122.754 31.8958 121.875 31.375C121.289 30.9844 120.394 30.6589 119.189 30.3984C118.018 30.1055 117.236 29.7474 116.846 29.3242V25.9551H137.744L137.695 88.2109C137.695 89.9688 138.395 91.2057 139.795 91.9219C140.413 92.2148 141.113 92.4915 141.895 92.752C142.676 92.9798 143.457 93.2891 144.238 93.6797V97H116.309V93.875C117.025 93.4518 117.79 93.1426 118.604 92.9473C119.417 92.7194 120.166 92.459 120.85 92.166C122.412 91.4824 123.193 90.1641 123.193 88.2109V36.5996ZM201.904 91.873C208.447 91.5475 212.842 87.9342 215.088 81.0332L219.58 83.084C217.139 92.0358 211.247 96.9186 201.904 97.7324V91.873ZM200.439 46.9512C207.145 47.4395 212.174 50.1087 215.527 54.959C218.522 59.2559 220.02 65.0013 220.02 72.1953H194.873V67.2148H204.98C204.98 63.0482 204.655 59.7604 204.004 57.3516C203.385 54.9102 202.197 53.3965 200.439 52.8105V46.9512ZM197.559 97.7324C190.495 97.179 184.798 94.4284 180.469 89.4805C176.432 84.8906 174.414 79.2428 174.414 72.5371C174.414 65.5059 176.449 59.5977 180.518 54.8125C184.554 50.0273 189.746 47.4069 196.094 46.9512V52.8105C193.945 53.5592 192.432 55.5775 191.553 58.8652C190.706 62.153 190.283 65.8639 190.283 69.998C190.283 74.0996 190.381 77.1758 190.576 79.2266C190.804 81.2448 191.195 83.0677 191.748 84.6953C192.887 88.1133 194.824 90.5059 197.559 91.873V97.7324ZM251.709 50.0762C254.281 47.9928 256.934 46.9512 259.668 46.9512C262.402 46.9512 264.632 47.2604 266.357 47.8789C268.115 48.4974 269.596 49.4089 270.801 50.6133C273.372 53.1849 274.658 56.7819 274.658 61.4043V86.7461C274.658 90.0013 275.391 91.8405 276.855 92.2637C277.311 92.3939 277.767 92.5078 278.223 92.6055C279.492 92.8659 280.42 93.2891 281.006 93.875V97H257.812V93.582C257.812 92.8659 258.073 92.2799 258.594 91.8242C259.147 91.3685 259.538 90.9779 259.766 90.6523C260.026 90.2943 260.156 89.7409 260.156 88.9922V61.8926C260.156 58.5397 259.928 56.3913 259.473 55.4473C258.691 53.6895 257.471 52.8105 255.811 52.8105C254.15 52.8105 252.783 53.2174 251.709 54.0312V50.0762ZM247.363 86.7461C247.363 89.9688 248.047 91.8079 249.414 92.2637C249.837 92.3939 250.277 92.5078 250.732 92.6055C251.937 92.8659 252.832 93.2891 253.418 93.875V97H226.514V93.875C227.067 93.4518 227.702 93.1426 228.418 92.9473C229.167 92.752 229.867 92.5241 230.518 92.2637C232.08 91.6452 232.861 90.4896 232.861 88.7969V58.6211C232.861 56.3099 232.324 54.6335 231.25 53.5918C230.404 52.7454 228.825 51.9967 226.514 51.3457V47.9277H247.363V86.7461ZM308.301 52.8105C304.362 54.2428 302.393 60.7695 302.393 72.3906C302.393 78.1198 302.832 82.5957 303.711 85.8184C304.622 89.0085 306.152 91.0267 308.301 91.873V97.7324C301.823 97.2116 296.484 94.6074 292.285 89.9199C288.053 85.1999 285.938 79.4056 285.938 72.5371C285.938 65.7988 288.053 59.9883 292.285 55.1055C296.615 50.1901 301.953 47.472 308.301 46.9512V52.8105ZM318.604 72.3906C318.604 60.7695 316.618 54.2428 312.646 52.8105V46.9512C319.092 47.472 324.43 50.1901 328.662 55.1055C332.894 59.9883 335.01 65.7988 335.01 72.5371C335.01 79.4056 332.894 85.1999 328.662 89.9199C324.463 94.6074 319.124 97.2116 312.646 97.7324V91.873C314.795 91.0592 316.325 89.0573 317.236 85.8672C318.148 82.6445 318.604 78.1523 318.604 72.3906ZM364.844 49.5879C367.122 47.8301 369.906 46.9512 373.193 46.9512C378.011 46.9512 381.527 48.0417 383.74 50.2227C385.954 52.3711 387.061 55.7565 387.061 60.3789V88.7969C387.061 90.4896 387.646 91.6289 388.818 92.2148C389.339 92.4753 389.893 92.7194 390.479 92.9473C391.097 93.1426 391.683 93.4518 392.236 93.875V97H372.51V62.0879C372.51 58.8652 372.298 56.7168 371.875 55.6426C371.061 53.7546 369.727 52.8105 367.871 52.8105C366.764 52.8105 365.755 53.1523 364.844 53.8359V49.5879ZM391.455 48.9531C393.799 47.6185 396.322 46.9512 399.023 46.9512C401.758 46.9512 403.988 47.2604 405.713 47.8789C407.438 48.4974 408.87 49.474 410.01 50.8086C412.321 53.5104 413.477 57.6934 413.477 63.3574V86.5508C413.477 88.8945 413.721 90.3919 414.209 91.043C414.73 91.6615 415.202 92.0521 415.625 92.2148C416.048 92.3451 416.504 92.459 416.992 92.5566C418.164 92.8171 419.092 93.2565 419.775 93.875V97H398.975V62.0879C398.975 58.7676 398.763 56.6029 398.34 55.5938C397.624 53.7383 396.305 52.8105 394.385 52.8105C393.343 52.8105 392.367 53.1198 391.455 53.7383V48.9531ZM345.947 58.6211C345.947 56.1797 345.687 54.6497 345.166 54.0312C344.645 53.4128 344.173 53.0547 343.75 52.957C343.327 52.8268 342.887 52.7292 342.432 52.6641C341.195 52.4362 340.316 51.9967 339.795 51.3457V47.9277H360.498V88.2109C360.498 89.9688 361.296 91.2383 362.891 92.0195C363.607 92.3451 364.404 92.638 365.283 92.8984C366.195 93.1589 367.106 93.4844 368.018 93.875V97H339.111V93.875C339.827 93.4518 340.576 93.1426 341.357 92.9473C342.171 92.7194 342.92 92.459 343.604 92.166C345.166 91.4824 345.947 90.1641 345.947 88.2109V58.6211ZM444.336 88.7969C444.336 90.4896 445.117 91.6452 446.68 92.2637C447.331 92.5241 448.031 92.752 448.779 92.9473C449.528 93.1426 450.228 93.4518 450.879 93.875V97H423.389V93.875C424.007 93.4518 424.691 93.1426 425.439 92.9473C426.188 92.752 426.888 92.5241 427.539 92.2637C429.069 91.6452 429.834 90.4896 429.834 88.7969V56.4238C429.834 54.666 429.069 53.5104 427.539 52.957C426.888 52.6966 426.188 52.485 425.439 52.3223C424.691 52.127 424.007 51.8014 423.389 51.3457V47.9277H444.336V88.7969ZM436.23 42.1172C434.993 42.1172 433.87 41.8893 432.861 41.4336C431.852 40.9779 430.99 40.3594 430.273 39.5781C428.776 37.9505 428.027 35.9648 428.027 33.6211C428.027 31.3424 428.776 29.3568 430.273 27.6641C431.836 25.9388 433.822 25.0762 436.23 25.0762C438.672 25.0762 440.674 25.9388 442.236 27.6641C443.734 29.3568 444.482 31.3424 444.482 33.6211C444.482 35.9648 443.734 37.9505 442.236 39.5781C440.674 41.2708 438.672 42.1172 436.23 42.1172ZM489.355 54.6172C488.607 53.4779 487.142 52.8757 484.961 52.8105V46.9512C489.518 47.3418 493.229 48.7904 496.094 51.2969C498.828 53.7057 500.195 56.5703 500.195 59.8906C500.195 61.974 499.723 63.569 498.779 64.6758C497.054 66.694 494.922 67.7031 492.383 67.7031C490.072 67.7031 488.184 67.0195 486.719 65.6523C485.417 64.4805 484.766 63.0645 484.766 61.4043C484.766 58.5072 486.296 56.2448 489.355 54.6172ZM484.961 91.873C489.648 91.7754 492.969 89.6432 494.922 85.4766C495.54 84.1745 496.045 82.7585 496.436 81.2285L500.977 83.2793C498.958 91.9382 493.62 96.7559 484.961 97.7324V91.873ZM480.615 97.7324C473.324 97.6673 467.318 95.2259 462.598 90.4082C458.105 85.7858 455.859 79.9915 455.859 73.0254C455.859 65.6035 458.04 59.5 462.402 54.7148C466.927 49.7995 472.998 47.2116 480.615 46.9512V52.8105C477.751 53.5918 475.553 55.6426 474.023 58.9629C472.493 62.2832 471.729 66.6615 471.729 72.0977C471.729 80.1706 473.34 85.9323 476.562 89.3828C477.702 90.5547 479.053 91.3848 480.615 91.873V97.7324ZM523.291 52.8105C520.296 53.6243 518.799 55.0404 518.799 57.0586C518.799 60.3138 521.647 63.0319 527.344 65.2129C531.836 66.9382 535.01 68.2891 536.865 69.2656C538.753 70.2096 540.332 71.2513 541.602 72.3906C544.434 74.9948 545.85 78.2337 545.85 82.1074C545.85 86.6973 544.108 90.3757 540.625 93.1426C537.24 95.8118 532.91 97.3418 527.637 97.7324V91.873C531.055 91.0592 532.764 89.1712 532.764 86.209C532.764 83.1491 529.964 80.5286 524.365 78.3477C519.971 76.6549 516.846 75.3366 514.99 74.3926C513.167 73.4486 511.637 72.4232 510.4 71.3164C507.633 68.8424 506.25 65.7988 506.25 62.1855C506.25 58.2793 507.91 54.8125 511.23 51.7852C514.583 48.7578 518.604 47.1465 523.291 46.9512V52.8105ZM536.67 53.8359C535.954 53.543 532.943 53.2012 527.637 52.8105V46.9512C533.301 47.179 537.728 48.5299 540.918 51.0039C543.587 53.0872 544.922 55.3984 544.922 57.9375C544.922 61.0951 543.717 63.1784 541.309 64.1875C540.462 64.513 539.29 64.6758 537.793 64.6758C536.296 64.6758 535.059 64.2038 534.082 63.2598C533.138 62.2832 532.666 61.0951 532.666 59.6953C532.666 57.319 534.001 55.3659 536.67 53.8359ZM514.893 90.5059C515.739 91.2546 518.538 91.7103 523.291 91.873V97.7324C517.887 97.3092 513.639 95.877 510.547 93.4355C507.943 91.3522 506.641 88.9759 506.641 86.3066C506.641 84.5488 507.129 83.1165 508.105 82.0098C509.082 80.8704 510.563 80.3008 512.549 80.3008C514.535 80.3008 515.999 80.7402 516.943 81.6191C517.92 82.498 518.408 83.6374 518.408 85.0371C518.408 87.4785 517.236 89.3014 514.893 90.5059Z" fill="#FFD43C"/>
</svg>
