<svg width="764" height="174" viewBox="0 0 764 174" fill="none" xmlns="http://www.w3.org/2000/svg">
<rect x="19.5" y="22.5" width="739" height="146" rx="59.5" fill="#36B6E9" stroke="#36B6E9" stroke-width="11"/>
<rect x="5.5" y="5.5" width="739" height="146" rx="59.5" fill="white" stroke="white" stroke-width="11"/>
<path d="M82.15 60H69.65V56H74.1V49.375L69.65 49.675V45.675L75.4 44.375H79.35V56H82.15V60ZM84.2902 59.575C83.9236 59.1917 83.7402 58.5083 83.7402 57.525C83.7402 56.5417 83.9236 55.85 84.2902 55.45C84.6569 55.05 85.3736 54.85 86.4402 54.85C87.5236 54.85 88.2486 55.05 88.6152 55.45C88.9819 55.85 89.1652 56.5417 89.1652 57.525C89.1652 58.5083 88.9819 59.1917 88.6152 59.575C88.2486 59.9583 87.5236 60.15 86.4402 60.15C85.3736 60.15 84.6569 59.9583 84.2902 59.575ZM105.04 55.525L105.415 59.725C104.365 60.1583 103.048 60.375 101.465 60.375C99.8817 60.375 98.6067 60.2083 97.64 59.875C96.69 59.5417 95.94 59.0167 95.39 58.3C94.84 57.5833 94.4567 56.7417 94.24 55.775C94.0234 54.8083 93.915 53.6167 93.915 52.2C93.915 50.7833 94.0234 49.5917 94.24 48.625C94.4567 47.6417 94.84 46.7917 95.39 46.075C96.4567 44.6917 98.415 44 101.265 44C101.898 44 102.64 44.0667 103.49 44.2C104.357 44.3167 104.998 44.4667 105.415 44.65L104.665 48.475C103.582 48.2417 102.59 48.125 101.69 48.125C100.79 48.125 100.165 48.2083 99.815 48.375C99.465 48.5417 99.29 48.875 99.29 49.375V55.925C99.94 56.0583 100.598 56.125 101.265 56.125C102.682 56.125 103.94 55.925 105.04 55.525ZM107.165 47.5H109.665L111.04 48.9C112.023 48 113.257 47.4083 114.74 47.125L115.04 51.85C114.64 51.8667 114.115 51.9667 113.465 52.15C112.832 52.3333 112.398 52.5667 112.165 52.85V60H107.165V47.5ZM121.415 55.75V56.625C121.915 56.675 122.415 56.7 122.915 56.7C124.465 56.7 126.032 56.45 127.615 55.95L128.215 59.625C126.348 60.125 124.498 60.375 122.665 60.375C120.332 60.375 118.64 59.8333 117.59 58.75C116.557 57.65 116.04 55.9833 116.04 53.75C116.04 51.5167 116.557 49.8583 117.59 48.775C118.64 47.675 120.323 47.125 122.64 47.125C124.973 47.125 126.582 47.4417 127.465 48.075C128.348 48.7083 128.79 49.8917 128.79 51.625C128.79 53.0917 128.257 54.15 127.19 54.8C126.14 55.4333 124.215 55.75 121.415 55.75ZM121.415 51.825V52.85H122.44C123.04 52.85 123.473 52.7917 123.74 52.675C124.023 52.5417 124.165 52.25 124.165 51.8V50.775H123.14C122.54 50.775 122.098 50.8417 121.815 50.975C121.548 51.0917 121.415 51.375 121.415 51.825ZM136.601 47.125C140.601 47.125 142.601 48.5 142.601 51.25V60H140.101L138.676 58.575C138.192 59.1417 137.534 59.5833 136.701 59.9C135.867 60.2167 135.076 60.375 134.326 60.375C133.592 60.375 133.001 60.3167 132.551 60.2C132.101 60.0833 131.659 59.8833 131.226 59.6C130.276 59 129.801 57.8833 129.801 56.25C129.801 53.25 132.067 51.75 136.601 51.75H137.601V50.85C137.067 50.8167 136.626 50.8 136.276 50.8C134.392 50.8 132.776 51.025 131.426 51.475L130.826 47.9C132.492 47.3833 134.417 47.125 136.601 47.125ZM134.851 55.7V56.725H135.876C136.609 56.725 137.076 56.6417 137.276 56.475C137.492 56.3083 137.601 56.0917 137.601 55.825V54.65H136.576C135.976 54.65 135.534 54.7167 135.251 54.85C134.984 54.9667 134.851 55.25 134.851 55.7ZM144.11 50.725V47.5H145.36V45.5L150.36 44.25V47.5H152.085V50.725H150.36V56.425C150.794 56.5083 151.285 56.5667 151.835 56.6L151.61 60.275C149.327 60.275 147.844 60.15 147.16 59.9C146.31 59.6 145.777 59.2 145.56 58.7C145.427 58.4 145.36 58.05 145.36 57.65V50.725H144.11ZM158.842 55.75V56.625C159.342 56.675 159.842 56.7 160.342 56.7C161.892 56.7 163.458 56.45 165.042 55.95L165.642 59.625C163.775 60.125 161.925 60.375 160.092 60.375C157.758 60.375 156.067 59.8333 155.017 58.75C153.983 57.65 153.467 55.9833 153.467 53.75C153.467 51.5167 153.983 49.8583 155.017 48.775C156.067 47.675 157.75 47.125 160.067 47.125C162.4 47.125 164.008 47.4417 164.892 48.075C165.775 48.7083 166.217 49.8917 166.217 51.625C166.217 53.0917 165.683 54.15 164.617 54.8C163.567 55.4333 161.642 55.75 158.842 55.75ZM158.842 51.825V52.85H159.867C160.467 52.85 160.9 52.7917 161.167 52.675C161.45 52.5417 161.592 52.25 161.592 51.8V50.775H160.567C159.967 50.775 159.525 50.8417 159.242 50.975C158.975 51.0917 158.842 51.375 158.842 51.825ZM177.787 47.125C181.787 47.125 183.787 48.5 183.787 51.25V60H181.287L179.862 58.575C179.379 59.1417 178.721 59.5833 177.887 59.9C177.054 60.2167 176.262 60.375 175.512 60.375C174.779 60.375 174.187 60.3167 173.737 60.2C173.287 60.0833 172.846 59.8833 172.412 59.6C171.462 59 170.987 57.8833 170.987 56.25C170.987 53.25 173.254 51.75 177.787 51.75H178.787V50.85C178.254 50.8167 177.812 50.8 177.462 50.8C175.579 50.8 173.962 51.025 172.612 51.475L172.012 47.9C173.679 47.3833 175.604 47.125 177.787 47.125ZM176.037 55.7V56.725H177.062C177.796 56.725 178.262 56.6417 178.462 56.475C178.679 56.3083 178.787 56.0917 178.787 55.825V54.65H177.762C177.162 54.65 176.721 54.7167 176.437 54.85C176.171 54.9667 176.037 55.25 176.037 55.7ZM191.407 60L188.907 47.5H193.807L194.832 54.925H195.107L196.682 47.5H200.432L201.832 54.925H202.107L203.307 47.5H208.207L205.707 60H199.557L198.582 54.625H198.382L197.307 60H191.407ZM215.727 47.125C219.727 47.125 221.727 48.5 221.727 51.25V60H219.227L217.802 58.575C217.318 59.1417 216.66 59.5833 215.827 59.9C214.993 60.2167 214.202 60.375 213.452 60.375C212.718 60.375 212.127 60.3167 211.677 60.2C211.227 60.0833 210.785 59.8833 210.352 59.6C209.402 59 208.927 57.8833 208.927 56.25C208.927 53.25 211.193 51.75 215.727 51.75H216.727V50.85C216.193 50.8167 215.752 50.8 215.402 50.8C213.518 50.8 211.902 51.025 210.552 51.475L209.952 47.9C211.618 47.3833 213.543 47.125 215.727 47.125ZM213.977 55.7V56.725H215.002C215.735 56.725 216.202 56.6417 216.402 56.475C216.618 56.3083 216.727 56.0917 216.727 55.825V54.65H215.702C215.102 54.65 214.66 54.7167 214.377 54.85C214.11 54.9667 213.977 55.25 213.977 55.7ZM228.986 43.375V56.425C229.52 56.525 229.928 56.5833 230.211 56.6L229.986 60.275C227.853 60.275 226.445 60.15 225.761 59.9C224.911 59.5833 224.386 59.1833 224.186 58.7C224.053 58.4 223.986 58.05 223.986 57.65V43.75L228.986 43.375ZM236.701 43.375V56.425C237.235 56.525 237.643 56.5833 237.926 56.6L237.701 60.275C235.568 60.275 234.16 60.15 233.476 59.9C232.626 59.5833 232.101 59.1833 231.901 58.7C231.768 58.4 231.701 58.05 231.701 57.65V43.75L236.701 43.375ZM244.291 55.75V56.625C244.791 56.675 245.291 56.7 245.791 56.7C247.341 56.7 248.908 56.45 250.491 55.95L251.091 59.625C249.224 60.125 247.374 60.375 245.541 60.375C243.208 60.375 241.516 59.8333 240.466 58.75C239.433 57.65 238.916 55.9833 238.916 53.75C238.916 51.5167 239.433 49.8583 240.466 48.775C241.516 47.675 243.199 47.125 245.516 47.125C247.849 47.125 249.458 47.4417 250.341 48.075C251.224 48.7083 251.666 49.8917 251.666 51.625C251.666 53.0917 251.133 54.15 250.066 54.8C249.016 55.4333 247.091 55.75 244.291 55.75ZM244.291 51.825V52.85H245.316C245.916 52.85 246.349 52.7917 246.616 52.675C246.899 52.5417 247.041 52.25 247.041 51.8V50.775H246.016C245.416 50.775 244.974 50.8417 244.691 50.975C244.424 51.0917 244.291 51.375 244.291 51.825ZM252.802 50.725V47.5H254.052V45.5L259.052 44.25V47.5H260.777V50.725H259.052V56.425C259.485 56.5083 259.977 56.5667 260.527 56.6L260.302 60.275C258.018 60.275 256.535 60.15 255.852 59.9C255.002 59.6 254.468 59.2 254.252 58.7C254.118 58.4 254.052 58.05 254.052 57.65V50.725H252.802ZM69.25 87V71.375H76.25C79.0667 71.375 81 71.975 82.05 73.175C83.1 74.375 83.625 76.3833 83.625 79.2C83.625 82 83.1 84 82.05 85.2C81 86.4 79.0667 87 76.25 87H69.25ZM76.325 75.375H74.25V83H76.325C77.0083 83 77.5 82.925 77.8 82.775C78.1167 82.6083 78.275 82.2417 78.275 81.675V76.7C78.275 76.1333 78.1167 75.775 77.8 75.625C77.5 75.4583 77.0083 75.375 76.325 75.375ZM86.4133 85.75C85.3799 84.65 84.8633 82.9833 84.8633 80.75C84.8633 78.5167 85.3799 76.8583 86.4133 75.775C87.4633 74.675 89.1549 74.125 91.4883 74.125C93.8216 74.125 95.5049 74.675 96.5383 75.775C97.5883 76.8583 98.1133 78.5167 98.1133 80.75C98.1133 82.9833 97.5883 84.65 96.5383 85.75C95.5049 86.8333 93.8216 87.375 91.4883 87.375C89.1549 87.375 87.4633 86.8333 86.4133 85.75ZM90.2383 78.825V83.725H91.0133C91.6133 83.725 92.0466 83.6667 92.3133 83.55C92.5966 83.4167 92.7383 83.125 92.7383 82.675V77.775H91.9633C91.3633 77.775 90.9216 77.8417 90.6383 77.975C90.3716 78.0917 90.2383 78.375 90.2383 78.825ZM101.709 87L99.2094 74.5H104.109L105.134 81.925H105.409L106.984 74.5H110.734L112.134 81.925H112.409L113.609 74.5H118.509L116.009 87H109.859L108.884 81.625H108.684L107.609 87H101.709ZM122.604 74.5L123.854 75.75C125.404 74.6667 127.071 74.125 128.854 74.125C130.021 74.125 130.938 74.3833 131.604 74.9C132.271 75.4 132.604 76.1 132.604 77V87H127.604V78.25H126.829C126.263 78.25 125.829 78.3167 125.529 78.45C125.246 78.5667 125.104 78.8167 125.104 79.2V87H120.104V74.5H122.604ZM139.973 70.375V83.425C140.506 83.525 140.914 83.5833 141.198 83.6L140.973 87.275C138.839 87.275 137.431 87.15 136.748 86.9C135.898 86.5833 135.373 86.1833 135.173 85.7C135.039 85.4 134.973 85.05 134.973 84.65V70.75L139.973 70.375ZM143.738 85.75C142.704 84.65 142.188 82.9833 142.188 80.75C142.188 78.5167 142.704 76.8583 143.738 75.775C144.788 74.675 146.479 74.125 148.813 74.125C151.146 74.125 152.829 74.675 153.863 75.775C154.913 76.8583 155.438 78.5167 155.438 80.75C155.438 82.9833 154.913 84.65 153.863 85.75C152.829 86.8333 151.146 87.375 148.813 87.375C146.479 87.375 144.788 86.8333 143.738 85.75ZM147.563 78.825V83.725H148.338C148.938 83.725 149.371 83.6667 149.638 83.55C149.921 83.4167 150.063 83.125 150.063 82.675V77.775H149.288C148.688 77.775 148.246 77.8417 147.963 77.975C147.696 78.0917 147.563 78.375 147.563 78.825ZM163.359 74.125C167.359 74.125 169.359 75.5 169.359 78.25V87H166.859L165.434 85.575C164.95 86.1417 164.292 86.5833 163.459 86.9C162.625 87.2167 161.834 87.375 161.084 87.375C160.35 87.375 159.759 87.3167 159.309 87.2C158.859 87.0833 158.417 86.8833 157.984 86.6C157.034 86 156.559 84.8833 156.559 83.25C156.559 80.25 158.825 78.75 163.359 78.75H164.359V77.85C163.825 77.8167 163.384 77.8 163.034 77.8C161.15 77.8 159.534 78.025 158.184 78.475L157.584 74.9C159.25 74.3833 161.175 74.125 163.359 74.125ZM161.609 82.7V83.725H162.634C163.367 83.725 163.834 83.6417 164.034 83.475C164.25 83.3083 164.359 83.0917 164.359 82.825V81.65H163.334C162.734 81.65 162.292 81.7167 162.009 81.85C161.742 81.9667 161.609 82.25 161.609 82.7ZM183.993 87H181.493L180.418 85.95C179.685 86.9 178.376 87.375 176.493 87.375C175.476 87.375 174.601 87.1833 173.868 86.8C173.135 86.4167 172.576 85.8917 172.193 85.225C171.476 83.975 171.118 82.4833 171.118 80.75C171.118 78.6333 171.585 77.0333 172.518 75.95C172.868 75.5333 173.351 75.1917 173.968 74.925C174.585 74.6417 175.301 74.5 176.118 74.5H178.993V70.75L183.993 70.375V87ZM176.493 78.825V83.725H177.268C177.835 83.725 178.251 83.675 178.518 83.575C178.801 83.4583 178.96 83.2083 178.993 82.825V77.775H178.218C177.618 77.775 177.176 77.8417 176.893 77.975C176.626 78.0917 176.493 78.375 176.493 78.825ZM194.846 87H189.621L190.571 71.375H197.096L199.046 79.325H199.221L201.171 71.375H207.696L208.646 87H203.421L203.121 79.425H202.946L201.046 87H197.221L195.296 79.425H195.146L194.846 87ZM215.385 82.75V83.625C215.885 83.675 216.385 83.7 216.885 83.7C218.435 83.7 220.001 83.45 221.585 82.95L222.185 86.625C220.318 87.125 218.468 87.375 216.635 87.375C214.301 87.375 212.61 86.8333 211.56 85.75C210.526 84.65 210.01 82.9833 210.01 80.75C210.01 78.5167 210.526 76.8583 211.56 75.775C212.61 74.675 214.293 74.125 216.61 74.125C218.943 74.125 220.551 74.4417 221.435 75.075C222.318 75.7083 222.76 76.8917 222.76 78.625C222.76 80.0917 222.226 81.15 221.16 81.8C220.11 82.4333 218.185 82.75 215.385 82.75ZM215.385 78.825V79.85H216.41C217.01 79.85 217.443 79.7917 217.71 79.675C217.993 79.5417 218.135 79.25 218.135 78.8V77.775H217.11C216.51 77.775 216.068 77.8417 215.785 77.975C215.518 78.0917 215.385 78.375 215.385 78.825ZM223.896 77.725V74.5H225.146V72.5L230.146 71.25V74.5H231.871V77.725H230.146V83.425C230.579 83.5083 231.071 83.5667 231.621 83.6L231.396 87.275C229.112 87.275 227.629 87.15 226.946 86.9C226.096 86.6 225.562 86.2 225.346 85.7C225.212 85.4 225.146 85.05 225.146 84.65V77.725H223.896ZM239.677 74.125C243.677 74.125 245.677 75.5 245.677 78.25V87H243.177L241.752 85.575C241.269 86.1417 240.61 86.5833 239.777 86.9C238.944 87.2167 238.152 87.375 237.402 87.375C236.669 87.375 236.077 87.3167 235.627 87.2C235.177 87.0833 234.735 86.8833 234.302 86.6C233.352 86 232.877 84.8833 232.877 83.25C232.877 80.25 235.144 78.75 239.677 78.75H240.677V77.85C240.144 77.8167 239.702 77.8 239.352 77.8C237.469 77.8 235.852 78.025 234.502 78.475L233.902 74.9C235.569 74.3833 237.494 74.125 239.677 74.125ZM237.927 82.7V83.725H238.952C239.685 83.725 240.152 83.6417 240.352 83.475C240.569 83.3083 240.677 83.0917 240.677 82.825V81.65H239.652C239.052 81.65 238.61 81.7167 238.327 81.85C238.06 81.9667 237.927 82.25 237.927 82.7ZM254.937 78.25H254.587C254.203 78.25 253.912 78.2667 253.712 78.3C253.528 78.3333 253.353 78.4417 253.187 78.625C253.02 78.7917 252.937 79.05 252.937 79.4V87H247.937V74.5H250.437L251.562 75.65C252.578 74.6333 253.912 74.125 255.562 74.125C257.212 74.125 258.403 74.4667 259.137 75.15C260.153 74.4667 261.328 74.125 262.662 74.125C264.012 74.125 265.062 74.3833 265.812 74.9C266.562 75.4 266.937 76.1 266.937 77V87H261.937V78.25H261.587C261.237 78.25 260.962 78.2667 260.762 78.3C260.562 78.3333 260.378 78.425 260.212 78.575C260.045 78.725 259.953 78.95 259.937 79.25V87H254.937V78.25ZM275.199 74.125C279.199 74.125 281.199 75.5 281.199 78.25V87H278.699L277.274 85.575C276.791 86.1417 276.133 86.5833 275.299 86.9C274.466 87.2167 273.674 87.375 272.924 87.375C272.191 87.375 271.599 87.3167 271.149 87.2C270.699 87.0833 270.258 86.8833 269.824 86.6C268.874 86 268.399 84.8833 268.399 83.25C268.399 80.25 270.666 78.75 275.199 78.75H276.199V77.85C275.666 77.8167 275.224 77.8 274.874 77.8C272.991 77.8 271.374 78.025 270.024 78.475L269.424 74.9C271.091 74.3833 273.016 74.125 275.199 74.125ZM273.449 82.7V83.725H274.474C275.208 83.725 275.674 83.6417 275.874 83.475C276.091 83.3083 276.199 83.0917 276.199 82.825V81.65H275.174C274.574 81.65 274.133 81.7167 273.849 81.85C273.583 81.9667 273.449 82.25 273.449 82.7ZM284.634 75C285.717 74.4167 287.192 74.125 289.059 74.125C290.926 74.125 292.642 74.3833 294.209 74.9L293.634 78.3C292.334 77.9333 291.034 77.75 289.734 77.75C289.334 77.75 288.767 77.7833 288.034 77.85V78.65C290.734 78.65 292.567 79.05 293.534 79.85C294.017 80.25 294.359 80.6917 294.559 81.175C294.759 81.6417 294.859 82.2167 294.859 82.9C294.859 83.5667 294.776 84.1667 294.609 84.7C294.459 85.2333 294.217 85.6583 293.884 85.975C293.567 86.2917 293.234 86.55 292.884 86.75C292.534 86.95 292.076 87.0917 291.509 87.175C290.626 87.3083 289.601 87.375 288.434 87.375C286.367 87.375 284.501 87.1333 282.834 86.65L283.459 83.1C284.859 83.5333 286.376 83.75 288.009 83.75C288.759 83.75 289.442 83.7167 290.059 83.65V82.85C287.392 82.85 285.551 82.5 284.534 81.8C283.534 81.1 283.034 79.9417 283.034 78.325C283.034 76.6917 283.567 75.5833 284.634 75ZM303.718 87L301.793 82.05H301.618V87H296.618V70.75L301.618 70.375V78.625H301.793L303.593 74.5H308.993L306.093 80.45L309.118 87H303.718ZM324.367 81.1H319.367V83H325.492V87H314.367V71.375H325.367L324.742 75.375H319.367V77.475H324.367V81.1ZM331.699 74.5L333.099 77.6H333.249L334.549 74.5H339.749L336.624 80.9L339.874 87H334.674L333.124 83.625H332.999L331.574 87H326.374L329.624 80.55L326.499 74.5H331.699ZM340.375 77.725V74.5H341.625V72.5L346.625 71.25V74.5H348.35V77.725H346.625V83.425C347.058 83.5083 347.55 83.5667 348.1 83.6L347.875 87.275C345.592 87.275 344.108 87.15 343.425 86.9C342.575 86.6 342.042 86.2 341.825 85.7C341.692 85.4 341.625 85.05 341.625 84.65V77.725H340.375ZM355.106 82.75V83.625C355.606 83.675 356.106 83.7 356.606 83.7C358.156 83.7 359.723 83.45 361.306 82.95L361.906 86.625C360.04 87.125 358.19 87.375 356.356 87.375C354.023 87.375 352.331 86.8333 351.281 85.75C350.248 84.65 349.731 82.9833 349.731 80.75C349.731 78.5167 350.248 76.8583 351.281 75.775C352.331 74.675 354.015 74.125 356.331 74.125C358.665 74.125 360.273 74.4417 361.156 75.075C362.04 75.7083 362.481 76.8917 362.481 78.625C362.481 80.0917 361.948 81.15 360.881 81.8C359.831 82.4333 357.906 82.75 355.106 82.75ZM355.106 78.825V79.85H356.131C356.731 79.85 357.165 79.7917 357.431 79.675C357.715 79.5417 357.856 79.25 357.856 78.8V77.775H356.831C356.231 77.775 355.79 77.8417 355.506 77.975C355.24 78.0917 355.106 78.375 355.106 78.825ZM366.867 74.5L368.117 75.75C369.667 74.6667 371.334 74.125 373.117 74.125C374.284 74.125 375.201 74.3833 375.867 74.9C376.534 75.4 376.867 76.1 376.867 77V87H371.867V78.25H371.092C370.526 78.25 370.092 78.3167 369.792 78.45C369.509 78.5667 369.367 78.8167 369.367 79.2V87H364.367V74.5H366.867ZM380.41 75C381.494 74.4167 382.969 74.125 384.835 74.125C386.702 74.125 388.419 74.3833 389.985 74.9L389.41 78.3C388.11 77.9333 386.81 77.75 385.51 77.75C385.11 77.75 384.544 77.7833 383.81 77.85V78.65C386.51 78.65 388.344 79.05 389.31 79.85C389.794 80.25 390.135 80.6917 390.335 81.175C390.535 81.6417 390.635 82.2167 390.635 82.9C390.635 83.5667 390.552 84.1667 390.385 84.7C390.235 85.2333 389.994 85.6583 389.66 85.975C389.344 86.2917 389.01 86.55 388.66 86.75C388.31 86.95 387.852 87.0917 387.285 87.175C386.402 87.3083 385.377 87.375 384.21 87.375C382.144 87.375 380.277 87.1333 378.61 86.65L379.235 83.1C380.635 83.5333 382.152 83.75 383.785 83.75C384.535 83.75 385.219 83.7167 385.835 83.65V82.85C383.169 82.85 381.327 82.5 380.31 81.8C379.31 81.1 378.81 79.9417 378.81 78.325C378.81 76.6917 379.344 75.5833 380.41 75ZM392.395 87V75.125L397.395 74.5V87H392.395ZM392.67 73.7C392.303 73.4167 392.12 72.9 392.12 72.15C392.12 71.4 392.303 70.875 392.67 70.575C393.053 70.275 393.795 70.125 394.895 70.125C396.011 70.125 396.753 70.275 397.12 70.575C397.503 70.875 397.695 71.4 397.695 72.15C397.695 72.9 397.503 73.4167 397.12 73.7C396.753 73.9833 396.011 74.125 394.895 74.125C393.795 74.125 393.053 73.9833 392.67 73.7ZM400.94 85.75C399.906 84.65 399.39 82.9833 399.39 80.75C399.39 78.5167 399.906 76.8583 400.94 75.775C401.99 74.675 403.681 74.125 406.015 74.125C408.348 74.125 410.031 74.675 411.065 75.775C412.115 76.8583 412.64 78.5167 412.64 80.75C412.64 82.9833 412.115 84.65 411.065 85.75C410.031 86.8333 408.348 87.375 406.015 87.375C403.681 87.375 401.99 86.8333 400.94 85.75ZM404.765 78.825V83.725H405.54C406.14 83.725 406.573 83.6667 406.84 83.55C407.123 83.4167 407.265 83.125 407.265 82.675V77.775H406.49C405.89 77.775 405.448 77.8417 405.165 77.975C404.898 78.0917 404.765 78.375 404.765 78.825ZM417.136 74.5L418.386 75.75C419.936 74.6667 421.602 74.125 423.386 74.125C424.552 74.125 425.469 74.3833 426.136 74.9C426.802 75.4 427.136 76.1 427.136 77V87H422.136V78.25H421.361C420.794 78.25 420.361 78.3167 420.061 78.45C419.777 78.5667 419.636 78.8167 419.636 79.2V87H414.636V74.5H417.136ZM434.314 85.75C433.28 84.65 432.764 82.9833 432.764 80.75C432.764 78.5167 433.28 76.8583 434.314 75.775C435.364 74.675 437.055 74.125 439.389 74.125C441.722 74.125 443.405 74.675 444.439 75.775C445.489 76.8583 446.014 78.5167 446.014 80.75C446.014 82.9833 445.489 84.65 444.439 85.75C443.405 86.8333 441.722 87.375 439.389 87.375C437.055 87.375 435.364 86.8333 434.314 85.75ZM438.139 78.825V83.725H438.914C439.514 83.725 439.947 83.6667 440.214 83.55C440.497 83.4167 440.639 83.125 440.639 82.675V77.775H439.864C439.264 77.775 438.822 77.8417 438.539 77.975C438.272 78.0917 438.139 78.375 438.139 78.825ZM450.51 74.5L451.76 75.75C453.31 74.6667 454.976 74.125 456.76 74.125C457.926 74.125 458.843 74.3833 459.51 74.9C460.176 75.4 460.51 76.1 460.51 77V87H455.51V78.25H454.735C454.168 78.25 453.735 78.3167 453.435 78.45C453.151 78.5667 453.01 78.8167 453.01 79.2V87H448.01V74.5H450.51ZM468.188 85.7L465.388 74.5H470.388L471.763 82.625H472.013L473.388 74.5H478.388L475.263 87C474.796 88.6333 474.213 89.725 473.513 90.275C472.813 90.8417 471.804 91.125 470.488 91.125H465.638V87.875L467.988 87.425C469.188 87.1583 469.971 86.8583 470.338 86.525C470.538 86.3417 470.704 86.1167 470.838 85.85L470.813 85.7H468.188ZM480.676 85.75C479.643 84.65 479.126 82.9833 479.126 80.75C479.126 78.5167 479.643 76.8583 480.676 75.775C481.726 74.675 483.418 74.125 485.751 74.125C488.084 74.125 489.768 74.675 490.801 75.775C491.851 76.8583 492.376 78.5167 492.376 80.75C492.376 82.9833 491.851 84.65 490.801 85.75C489.768 86.8333 488.084 87.375 485.751 87.375C483.418 87.375 481.726 86.8333 480.676 85.75ZM484.501 78.825V83.725H485.276C485.876 83.725 486.309 83.6667 486.576 83.55C486.859 83.4167 487.001 83.125 487.001 82.675V77.775H486.226C485.626 77.775 485.184 77.8417 484.901 77.975C484.634 78.0917 484.501 78.375 484.501 78.825ZM499.122 74.5V83.725H499.897C500.497 83.725 500.93 83.6667 501.197 83.55C501.48 83.4167 501.622 83.125 501.622 82.675V74.5H506.622V87H504.122L502.672 85.575C501.672 86.775 500.247 87.375 498.397 87.375C496.914 87.375 495.83 87.0583 495.147 86.425C494.464 85.7917 494.122 84.7333 494.122 83.25V74.5H499.122ZM509.118 74.5H511.618L512.993 75.9C513.976 75 515.21 74.4083 516.693 74.125L516.993 78.85C516.593 78.8667 516.068 78.9667 515.418 79.15C514.785 79.3333 514.351 79.5667 514.118 79.85V87H509.118V74.5ZM531.428 83.25L531.728 86.85C530.861 87.2 529.745 87.375 528.378 87.375C526.045 87.375 524.353 86.8333 523.303 85.75C522.27 84.65 521.753 82.9833 521.753 80.75C521.753 78.5167 522.27 76.8583 523.303 75.775C524.353 74.675 526.045 74.125 528.378 74.125C529.828 74.125 530.945 74.3 531.728 74.65L531.128 78.05C530.245 77.8667 529.545 77.775 529.028 77.775C527.761 77.775 527.128 78.2167 527.128 79.1V83.575C527.611 83.675 528.228 83.725 528.978 83.725C529.745 83.725 530.561 83.5667 531.428 83.25ZM538.728 79.3V87H533.728V70.75L538.728 70.375V74.95C539.794 74.4 540.978 74.125 542.278 74.125C543.578 74.125 544.561 74.3833 545.228 74.9C545.894 75.4 546.228 76.1 546.228 77V87H541.228V78.25H540.453C539.853 78.25 539.411 78.3167 539.128 78.45C538.861 78.5667 538.728 78.85 538.728 79.3ZM548.596 74.5H551.096L552.471 75.9C553.454 75 554.687 74.4083 556.171 74.125L556.471 78.85C556.071 78.8667 555.546 78.9667 554.896 79.15C554.262 79.3333 553.829 79.5667 553.596 79.85V87H548.596V74.5ZM559.021 85.75C557.987 84.65 557.471 82.9833 557.471 80.75C557.471 78.5167 557.987 76.8583 559.021 75.775C560.071 74.675 561.762 74.125 564.096 74.125C566.429 74.125 568.112 74.675 569.146 75.775C570.196 76.8583 570.721 78.5167 570.721 80.75C570.721 82.9833 570.196 84.65 569.146 85.75C568.112 86.8333 566.429 87.375 564.096 87.375C561.762 87.375 560.071 86.8333 559.021 85.75ZM562.846 78.825V83.725H563.621C564.221 83.725 564.654 83.6667 564.921 83.55C565.204 83.4167 565.346 83.125 565.346 82.675V77.775H564.571C563.971 77.775 563.529 77.8417 563.246 77.975C562.979 78.0917 562.846 78.375 562.846 78.825ZM579.717 78.25H579.367C578.983 78.25 578.692 78.2667 578.492 78.3C578.308 78.3333 578.133 78.4417 577.967 78.625C577.8 78.7917 577.717 79.05 577.717 79.4V87H572.717V74.5H575.217L576.342 75.65C577.358 74.6333 578.692 74.125 580.342 74.125C581.992 74.125 583.183 74.4667 583.917 75.15C584.933 74.4667 586.108 74.125 587.442 74.125C588.792 74.125 589.842 74.3833 590.592 74.9C591.342 75.4 591.717 76.1 591.717 77V87H586.717V78.25H586.367C586.017 78.25 585.742 78.2667 585.542 78.3C585.342 78.3333 585.158 78.425 584.992 78.575C584.825 78.725 584.733 78.95 584.717 79.25V87H579.717V78.25ZM598.93 82.75V83.625C599.43 83.675 599.93 83.7 600.43 83.7C601.98 83.7 603.546 83.45 605.13 82.95L605.73 86.625C603.863 87.125 602.013 87.375 600.18 87.375C597.846 87.375 596.155 86.8333 595.105 85.75C594.071 84.65 593.555 82.9833 593.555 80.75C593.555 78.5167 594.071 76.8583 595.105 75.775C596.155 74.675 597.838 74.125 600.155 74.125C602.488 74.125 604.096 74.4417 604.98 75.075C605.863 75.7083 606.305 76.8917 606.305 78.625C606.305 80.0917 605.771 81.15 604.705 81.8C603.655 82.4333 601.73 82.75 598.93 82.75ZM598.93 78.825V79.85H599.955C600.555 79.85 600.988 79.7917 601.255 79.675C601.538 79.5417 601.68 79.25 601.68 78.8V77.775H600.655C600.055 77.775 599.613 77.8417 599.33 77.975C599.063 78.0917 598.93 78.375 598.93 78.825ZM611.95 86.375V70.75L616.95 70.375V74.525C617.584 74.2583 618.409 74.125 619.425 74.125C620.459 74.125 621.342 74.3167 622.075 74.7C622.809 75.0833 623.367 75.6083 623.75 76.275C624.467 77.525 624.825 79.0167 624.825 80.75C624.825 83.1 624.284 84.7917 623.2 85.825C622.117 86.8583 620.475 87.375 618.275 87.375C616.075 87.375 613.967 87.0417 611.95 86.375ZM616.95 78.7V83.725H617.725C618.325 83.725 618.759 83.6667 619.025 83.55C619.309 83.4167 619.45 83.125 619.45 82.675V77.775H618.675C618.309 77.775 618.017 77.7917 617.8 77.825C617.584 77.8583 617.392 77.95 617.225 78.1C617.059 78.2333 616.967 78.4333 616.95 78.7ZM626.818 74.5H629.318L630.693 75.9C631.677 75 632.91 74.4083 634.393 74.125L634.693 78.85C634.293 78.8667 633.768 78.9667 633.118 79.15C632.485 79.3333 632.052 79.5667 631.818 79.85V87H626.818V74.5ZM637.243 85.75C636.21 84.65 635.693 82.9833 635.693 80.75C635.693 78.5167 636.21 76.8583 637.243 75.775C638.293 74.675 639.985 74.125 642.318 74.125C644.652 74.125 646.335 74.675 647.368 75.775C648.418 76.8583 648.943 78.5167 648.943 80.75C648.943 82.9833 648.418 84.65 647.368 85.75C646.335 86.8333 644.652 87.375 642.318 87.375C639.985 87.375 638.293 86.8333 637.243 85.75ZM641.068 78.825V83.725H641.843C642.443 83.725 642.877 83.6667 643.143 83.55C643.427 83.4167 643.568 83.125 643.568 82.675V77.775H642.793C642.193 77.775 641.752 77.8417 641.468 77.975C641.202 78.0917 641.068 78.375 641.068 78.825ZM652.539 87L650.039 74.5H654.939L655.964 81.925H656.239L657.814 74.5H661.564L662.964 81.925H663.239L664.439 74.5H669.339L666.839 87H660.689L659.714 81.625H659.514L658.439 87H652.539ZM672.11 75C673.193 74.4167 674.668 74.125 676.535 74.125C678.401 74.125 680.118 74.3833 681.685 74.9L681.11 78.3C679.81 77.9333 678.51 77.75 677.21 77.75C676.81 77.75 676.243 77.7833 675.51 77.85V78.65C678.21 78.65 680.043 79.05 681.01 79.85C681.493 80.25 681.835 80.6917 682.035 81.175C682.235 81.6417 682.335 82.2167 682.335 82.9C682.335 83.5667 682.251 84.1667 682.085 84.7C681.935 85.2333 681.693 85.6583 681.36 85.975C681.043 86.2917 680.71 86.55 680.36 86.75C680.01 86.95 679.551 87.0917 678.985 87.175C678.101 87.3083 677.076 87.375 675.91 87.375C673.843 87.375 671.976 87.1333 670.31 86.65L670.935 83.1C672.335 83.5333 673.851 83.75 675.485 83.75C676.235 83.75 676.918 83.7167 677.535 83.65V82.85C674.868 82.85 673.026 82.5 672.01 81.8C671.01 81.1 670.51 79.9417 670.51 78.325C670.51 76.6917 671.043 75.5833 672.11 75ZM688.969 82.75V83.625C689.469 83.675 689.969 83.7 690.469 83.7C692.019 83.7 693.585 83.45 695.169 82.95L695.769 86.625C693.902 87.125 692.052 87.375 690.219 87.375C687.885 87.375 686.194 86.8333 685.144 85.75C684.11 84.65 683.594 82.9833 683.594 80.75C683.594 78.5167 684.11 76.8583 685.144 75.775C686.194 74.675 687.877 74.125 690.194 74.125C692.527 74.125 694.135 74.4417 695.019 75.075C695.902 75.7083 696.344 76.8917 696.344 78.625C696.344 80.0917 695.81 81.15 694.744 81.8C693.694 82.4333 691.769 82.75 688.969 82.75ZM688.969 78.825V79.85H689.994C690.594 79.85 691.027 79.7917 691.294 79.675C691.577 79.5417 691.719 79.25 691.719 78.8V77.775H690.694C690.094 77.775 689.652 77.8417 689.369 77.975C689.102 78.0917 688.969 78.375 688.969 78.825ZM698.229 74.5H700.729L702.104 75.9C703.088 75 704.321 74.4083 705.804 74.125L706.104 78.85C705.704 78.8667 705.179 78.9667 704.529 79.15C703.896 79.3333 703.463 79.5667 703.229 79.85V87H698.229V74.5ZM70.3 112.75C69.2667 111.65 68.75 109.983 68.75 107.75C68.75 105.517 69.2667 103.858 70.3 102.775C71.35 101.675 73.0417 101.125 75.375 101.125C77.7083 101.125 79.3917 101.675 80.425 102.775C81.475 103.858 82 105.517 82 107.75C82 109.983 81.475 111.65 80.425 112.75C79.3917 113.833 77.7083 114.375 75.375 114.375C73.0417 114.375 71.35 113.833 70.3 112.75ZM74.125 105.825V110.725H74.9C75.5 110.725 75.9333 110.667 76.2 110.55C76.4833 110.417 76.625 110.125 76.625 109.675V104.775H75.85C75.25 104.775 74.8083 104.842 74.525 104.975C74.2583 105.092 74.125 105.375 74.125 105.825ZM83.9961 101.5H86.4961L87.8711 102.9C88.8544 102 90.0878 101.408 91.5711 101.125L91.8711 105.85C91.4711 105.867 90.9461 105.967 90.2961 106.15C89.6628 106.333 89.2294 106.567 88.9961 106.85V114H83.9961V101.5ZM102.881 100.45V101.5H104.381V104.75H102.881V114H97.8809V104.75H96.6309V101.5H97.8809L98.0559 100C98.2892 98.0833 99.7559 97.125 102.456 97.125C103.156 97.125 104.073 97.2083 105.206 97.375L104.931 100.65L102.881 100.45ZM106.091 101.5H108.591L109.966 102.9C110.949 102 112.182 101.408 113.666 101.125L113.966 105.85C113.566 105.867 113.041 105.967 112.391 106.15C111.757 106.333 111.324 106.567 111.091 106.85V114H106.091V101.5ZM116.516 112.75C115.482 111.65 114.966 109.983 114.966 107.75C114.966 105.517 115.482 103.858 116.516 102.775C117.566 101.675 119.257 101.125 121.591 101.125C123.924 101.125 125.607 101.675 126.641 102.775C127.691 103.858 128.216 105.517 128.216 107.75C128.216 109.983 127.691 111.65 126.641 112.75C125.607 113.833 123.924 114.375 121.591 114.375C119.257 114.375 117.566 113.833 116.516 112.75ZM120.341 105.825V110.725H121.116C121.716 110.725 122.149 110.667 122.416 110.55C122.699 110.417 122.841 110.125 122.841 109.675V104.775H122.066C121.466 104.775 121.024 104.842 120.741 104.975C120.474 105.092 120.341 105.375 120.341 105.825ZM137.212 105.25H136.862C136.479 105.25 136.187 105.267 135.987 105.3C135.804 105.333 135.629 105.442 135.462 105.625C135.295 105.792 135.212 106.05 135.212 106.4V114H130.212V101.5H132.712L133.837 102.65C134.854 101.633 136.187 101.125 137.837 101.125C139.487 101.125 140.679 101.467 141.412 102.15C142.429 101.467 143.604 101.125 144.937 101.125C146.287 101.125 147.337 101.383 148.087 101.9C148.837 102.4 149.212 103.1 149.212 104V114H144.212V105.25H143.862C143.512 105.25 143.237 105.267 143.037 105.3C142.837 105.333 142.654 105.425 142.487 105.575C142.32 105.725 142.229 105.95 142.212 106.25V114H137.212V105.25ZM154.56 104.725V101.5H155.81V99.5L160.81 98.25V101.5H162.535V104.725H160.81V110.425C161.243 110.508 161.735 110.567 162.285 110.6L162.06 114.275C159.776 114.275 158.293 114.15 157.61 113.9C156.76 113.6 156.226 113.2 156.01 112.7C155.876 112.4 155.81 112.05 155.81 111.65V104.725H154.56ZM169.416 106.3V114H164.416V97.75L169.416 97.375V101.95C170.483 101.4 171.666 101.125 172.966 101.125C174.266 101.125 175.249 101.383 175.916 101.9C176.583 102.4 176.916 103.1 176.916 104V114H171.916V105.25H171.141C170.541 105.25 170.099 105.317 169.816 105.45C169.549 105.567 169.416 105.85 169.416 106.3ZM184.159 109.75V110.625C184.659 110.675 185.159 110.7 185.659 110.7C187.209 110.7 188.776 110.45 190.359 109.95L190.959 113.625C189.093 114.125 187.243 114.375 185.409 114.375C183.076 114.375 181.384 113.833 180.334 112.75C179.301 111.65 178.784 109.983 178.784 107.75C178.784 105.517 179.301 103.858 180.334 102.775C181.384 101.675 183.068 101.125 185.384 101.125C187.718 101.125 189.326 101.442 190.209 102.075C191.093 102.708 191.534 103.892 191.534 105.625C191.534 107.092 191.001 108.15 189.934 108.8C188.884 109.433 186.959 109.75 184.159 109.75ZM184.159 105.825V106.85H185.184C185.784 106.85 186.218 106.792 186.484 106.675C186.768 106.542 186.909 106.25 186.909 105.8V104.775H185.884C185.284 104.775 184.843 104.842 184.559 104.975C184.293 105.092 184.159 105.375 184.159 105.825ZM203.105 101.125C207.105 101.125 209.105 102.5 209.105 105.25V114H206.605L205.18 112.575C204.696 113.142 204.038 113.583 203.205 113.9C202.371 114.217 201.58 114.375 200.83 114.375C200.096 114.375 199.505 114.317 199.055 114.2C198.605 114.083 198.163 113.883 197.73 113.6C196.78 113 196.305 111.883 196.305 110.25C196.305 107.25 198.571 105.75 203.105 105.75H204.105V104.85C203.571 104.817 203.13 104.8 202.78 104.8C200.896 104.8 199.28 105.025 197.93 105.475L197.33 101.9C198.996 101.383 200.921 101.125 203.105 101.125ZM201.355 109.7V110.725H202.38C203.113 110.725 203.58 110.642 203.78 110.475C203.996 110.308 204.105 110.092 204.105 109.825V108.65H203.08C202.48 108.65 202.038 108.717 201.755 108.85C201.488 108.967 201.355 109.25 201.355 109.7ZM211.364 101.5H213.864L214.789 102.75C215.523 101.667 216.881 101.125 218.864 101.125C219.881 101.125 220.756 101.317 221.489 101.7C222.223 102.083 222.781 102.608 223.164 103.275C223.881 104.525 224.239 106.017 224.239 107.75C224.239 109.867 223.781 111.467 222.864 112.55C222.498 112.967 222.006 113.317 221.389 113.6C220.773 113.867 220.056 114 219.239 114H216.364V117.75L211.364 118.125V101.5ZM216.364 105.7V110.725H217.139C217.739 110.725 218.173 110.667 218.439 110.55C218.723 110.417 218.864 110.125 218.864 109.675V104.775H218.089C217.723 104.775 217.431 104.792 217.214 104.825C216.998 104.858 216.806 104.95 216.639 105.1C216.473 105.233 216.381 105.433 216.364 105.7ZM226.232 101.5H228.732L229.657 102.75C230.391 101.667 231.749 101.125 233.732 101.125C234.749 101.125 235.624 101.317 236.357 101.7C237.091 102.083 237.649 102.608 238.032 103.275C238.749 104.525 239.107 106.017 239.107 107.75C239.107 109.867 238.649 111.467 237.732 112.55C237.366 112.967 236.874 113.317 236.257 113.6C235.641 113.867 234.924 114 234.107 114H231.232V117.75L226.232 118.125V101.5ZM231.232 105.7V110.725H232.007C232.607 110.725 233.041 110.667 233.307 110.55C233.591 110.417 233.732 110.125 233.732 109.675V104.775H232.957C232.591 104.775 232.299 104.792 232.082 104.825C231.866 104.858 231.674 104.95 231.507 105.1C231.341 105.233 231.249 105.433 231.232 105.7ZM246.035 102C247.119 101.417 248.594 101.125 250.46 101.125C252.327 101.125 254.044 101.383 255.61 101.9L255.035 105.3C253.735 104.933 252.435 104.75 251.135 104.75C250.735 104.75 250.169 104.783 249.435 104.85V105.65C252.135 105.65 253.969 106.05 254.935 106.85C255.419 107.25 255.76 107.692 255.96 108.175C256.16 108.642 256.26 109.217 256.26 109.9C256.26 110.567 256.177 111.167 256.01 111.7C255.86 112.233 255.619 112.658 255.285 112.975C254.969 113.292 254.635 113.55 254.285 113.75C253.935 113.95 253.477 114.092 252.91 114.175C252.027 114.308 251.002 114.375 249.835 114.375C247.769 114.375 245.902 114.133 244.235 113.65L244.86 110.1C246.26 110.533 247.777 110.75 249.41 110.75C250.16 110.75 250.844 110.717 251.46 110.65V109.85C248.794 109.85 246.952 109.5 245.935 108.8C244.935 108.1 244.435 106.942 244.435 105.325C244.435 103.692 244.969 102.583 246.035 102ZM257.27 104.725V101.5H258.52V99.5L263.52 98.25V101.5H265.245V104.725H263.52V110.425C263.953 110.508 264.445 110.567 264.995 110.6L264.77 114.275C262.486 114.275 261.003 114.15 260.32 113.9C259.47 113.6 258.936 113.2 258.72 112.7C258.586 112.4 258.52 112.05 258.52 111.65V104.725H257.27ZM268.176 112.75C267.143 111.65 266.626 109.983 266.626 107.75C266.626 105.517 267.143 103.858 268.176 102.775C269.226 101.675 270.918 101.125 273.251 101.125C275.584 101.125 277.268 101.675 278.301 102.775C279.351 103.858 279.876 105.517 279.876 107.75C279.876 109.983 279.351 111.65 278.301 112.75C277.268 113.833 275.584 114.375 273.251 114.375C270.918 114.375 269.226 113.833 268.176 112.75ZM272.001 105.825V110.725H272.776C273.376 110.725 273.809 110.667 274.076 110.55C274.359 110.417 274.501 110.125 274.501 109.675V104.775H273.726C273.126 104.775 272.684 104.842 272.401 104.975C272.134 105.092 272.001 105.375 272.001 105.825ZM281.872 101.5H284.372L285.747 102.9C286.73 102 287.964 101.408 289.447 101.125L289.747 105.85C289.347 105.867 288.822 105.967 288.172 106.15C287.539 106.333 287.105 106.567 286.872 106.85V114H281.872V101.5ZM296.122 109.75V110.625C296.622 110.675 297.122 110.7 297.622 110.7C299.172 110.7 300.739 110.45 302.322 109.95L302.922 113.625C301.055 114.125 299.205 114.375 297.372 114.375C295.039 114.375 293.347 113.833 292.297 112.75C291.264 111.65 290.747 109.983 290.747 107.75C290.747 105.517 291.264 103.858 292.297 102.775C293.347 101.675 295.03 101.125 297.347 101.125C299.68 101.125 301.289 101.442 302.172 102.075C303.055 102.708 303.497 103.892 303.497 105.625C303.497 107.092 302.964 108.15 301.897 108.8C300.847 109.433 298.922 109.75 296.122 109.75ZM296.122 105.825V106.85H297.147C297.747 106.85 298.18 106.792 298.447 106.675C298.73 106.542 298.872 106.25 298.872 105.8V104.775H297.847C297.247 104.775 296.805 104.842 296.522 104.975C296.255 105.092 296.122 105.375 296.122 105.825Z" fill="#36B6E9"/>
</svg>
