<svg width="63" height="55" viewBox="0 0 63 55" fill="none" xmlns="http://www.w3.org/2000/svg">
<path d="M3.00986 10.5486C3.10788 0.943048 19.9884 3.24056 26.1778 3.24056C33.8746 3.24056 35.9737 4.63997 43.6704 4.63997C45.4065 4.63997 51.1489 3.64426 52.4556 4.95095C53.9474 6.44276 51.9738 9.92383 53.4663 11.7147C55.4002 14.0354 56.1008 17.3897 57.2758 20.0334C60.2181 26.6538 59.7636 33.7565 59.7636 41.0246C59.7636 44.5415 60.1775 48.2691 58.3642 51.4424C57.8758 52.297 52.863 50.8204 51.3671 50.8204H28.3547C20.005 50.8204 3.78731 55.5444 3.78731 43.8234C3.78731 32.7442 2.89719 21.5906 3.00986 10.5486Z" fill="white" stroke="#F41917" stroke-width="5" stroke-linecap="round"/>
<path d="M38.6607 15.6992H42.6473L33.9373 25.6551L44.1846 39.2H36.1614L29.8781 30.984L22.6869 39.2H18.6981L28.0147 28.5508L18.1846 15.7003H26.4114L32.0913 23.21L38.6607 15.6992ZM37.2621 36.8145H39.471L25.2111 17.9601H22.8407L37.2621 36.8145Z" fill="#0149AD"/>
</svg>
