<svg width="208" height="29" viewBox="0 0 208 29" fill="none" xmlns="http://www.w3.org/2000/svg">
<path d="M4.06753 8.34322L14.2589 2.45921L24.4504 8.34322V20.1113L14.2589 25.9953L4.06753 20.1113V8.34322Z" stroke="white" stroke-width="4.2064"/>
<path d="M46.4696 21.4875C51.5427 21.4875 54.0075 18.8552 54.0075 15.1222V14.5718H49.1976V14.6436C49.1976 16.4862 48.5994 17.1083 46.3739 17.1083C44.0767 17.1083 43.3348 16.558 43.3348 13.2317C43.3348 9.90551 44.0767 9.35513 46.3739 9.35513C48.5994 9.35513 49.1976 9.9773 49.1976 11.8199V11.8917H54.0075V11.3413C54.0075 7.60827 51.5427 4.97601 46.4696 4.97601C41.3008 4.97601 38.5011 8.23044 38.5011 13.2317C38.5011 18.233 41.3008 21.4875 46.4696 21.4875ZM60.604 21.2482V16.1272H61.7048C63.2123 16.1272 63.5234 16.534 64.1935 17.9219L65.7728 21.2482H71.0134L69.3383 17.6109C68.7162 16.2469 68.0701 15.2179 66.4428 14.7872V14.5718C69.1469 14.2607 70.128 12.6814 70.128 10.1448C70.128 6.93824 68.2136 5.2153 64.1695 5.2153H56.1052V21.2482H60.604ZM60.604 9.25941H64.002C65.2703 9.25941 65.6292 9.59443 65.6292 10.767C65.6292 12.0353 65.2703 12.3942 64.002 12.3942H60.604V9.25941ZM81.266 21.2482V15.7922L87.5355 5.2153H82.2949L80.2848 8.99619L79.2319 11.3892H78.9208L77.844 8.99619L75.8339 5.2153H70.4976L76.7672 15.8401V21.2482H81.266ZM93.225 21.2482V17.0126H96.3119C100.141 17.0126 102.605 14.9307 102.605 11.1259C102.605 7.44076 100.141 5.2153 96.3119 5.2153H88.7262V21.2482H93.225ZM96.1444 9.25941C97.6759 9.25941 98.1066 9.54657 98.1066 11.1259C98.1066 12.7053 97.6759 12.9924 96.1444 12.9924H93.225V9.25941H96.1444ZM113.399 21.2482V9.25941H118.329V5.2153H103.971V9.25941H108.901V21.2482H113.399ZM127.604 21.4875C132.677 21.4875 135.644 18.233 135.644 13.2317C135.644 8.23044 132.677 4.97601 127.604 4.97601C122.507 4.97601 119.539 8.23044 119.539 13.2317C119.539 18.233 122.507 21.4875 127.604 21.4875ZM127.604 17.1083C125.115 17.1083 124.373 16.3187 124.373 13.2317C124.373 10.1448 125.115 9.35513 127.604 9.35513C130.068 9.35513 130.81 10.1448 130.81 13.2317C130.81 16.3187 130.068 17.1083 127.604 17.1083ZM140.662 21.2482L141.691 18.1612H147.769L148.751 21.2482H153.68L148.128 5.2153H141.596L136.02 21.2482H140.662ZM143.295 13.3035L144.611 9.11584H144.946L146.214 13.3035L146.501 14.2368H142.984L143.295 13.3035ZM159.355 21.2482V16.1272H160.456C161.963 16.1272 162.274 16.534 162.944 17.9219L164.524 21.2482H169.764L168.089 17.6109C167.467 16.2469 166.821 15.2179 165.194 14.7872V14.5718C167.898 14.2607 168.879 12.6814 168.879 10.1448C168.879 6.93824 166.965 5.2153 162.92 5.2153H154.856V21.2482H159.355ZM159.355 9.25941H162.753C164.021 9.25941 164.38 9.59443 164.38 10.767C164.38 12.0353 164.021 12.3942 162.753 12.3942H159.355V9.25941ZM179.927 21.2482V9.25941H184.856V5.2153H170.498V9.25941H175.428V21.2482H179.927ZM195.708 21.2482L198.412 16.0794H198.628L201.547 21.2482H206.836L202.361 13.1839V12.9685L206.836 5.2153H201.619L198.915 10.432H198.7L195.78 5.2153H190.492L195.014 13.0642V13.2796L190.492 21.2482H195.708Z" fill="white"/>
</svg>
