<svg width="92" height="92" viewBox="0 0 92 92" fill="none" xmlns="http://www.w3.org/2000/svg">
<path d="M46 92C71.4051 92 92 71.4051 92 46C92 20.5949 71.4051 0 46 0C20.5949 0 0 20.5949 0 46C0 71.4051 20.5949 92 46 92Z" fill="#2081E2"/>
<path d="M22.6945 47.547L22.8932 47.2351L34.8587 28.515C34.8985 28.453 34.9543 28.4028 35.0202 28.3699C35.0861 28.3369 35.1596 28.3224 35.2331 28.3277C35.3066 28.3331 35.3773 28.3582 35.4377 28.4004C35.4981 28.4426 35.546 28.5003 35.5763 28.5674C37.5755 33.0478 39.3005 38.6193 38.4927 42.0886C38.1477 43.5156 37.2029 45.4485 36.1394 47.2351C36.0014 47.4955 35.8505 47.7503 35.6904 47.996C35.6529 48.0516 35.6022 48.0972 35.5428 48.1285C35.4834 48.1598 35.4171 48.1759 35.35 48.1754H23.0441C22.7129 48.1754 22.5197 47.8166 22.6945 47.547Z" fill="white"/>
<path d="M76.0324 51.0255V53.9879C76.0324 54.159 75.9285 54.3099 75.7776 54.3761C74.8511 54.7736 71.6799 56.229 70.3616 58.0626C66.9962 62.7454 64.4257 69.443 58.6785 69.443H34.7033C26.2061 69.443 19.3199 62.5338 19.3199 54.0072V53.734C19.3199 53.5067 19.5039 53.3227 19.7312 53.3227H33.0969C33.361 53.3227 33.5551 53.5684 33.5312 53.8287C33.4371 54.7123 33.603 55.6041 34.0087 56.3946C34.3973 57.1807 34.998 57.8425 35.7429 58.3051C36.4878 58.7678 37.3472 59.013 38.2241 59.0129H44.8407V53.8471H38.2995C38.223 53.8462 38.1481 53.8244 38.083 53.7841C38.0179 53.7438 37.965 53.6865 37.93 53.6184C37.895 53.5503 37.8792 53.4739 37.8843 53.3975C37.8895 53.3211 37.9153 53.2475 37.9591 53.1847C38.0309 53.0762 38.1109 52.9639 38.1956 52.8351C39.049 51.6067 39.8442 50.3388 40.5784 49.0355C41.1782 47.9867 41.7597 46.8662 42.227 45.7419C42.3218 45.5386 42.3972 45.3307 42.4727 45.1274C42.6005 44.7686 42.733 44.4328 42.8278 44.097C42.9216 43.8136 42.998 43.5155 43.0734 43.2368C43.2951 42.2818 43.3899 41.2707 43.3899 40.2219C43.3899 39.8107 43.3715 39.3801 43.3329 38.9689C43.3145 38.5199 43.2574 38.071 43.2004 37.622C43.1565 37.2193 43.0951 36.8188 43.0164 36.4214C42.9179 35.8174 42.792 35.2182 42.6392 34.6256L42.5867 34.3992C42.4727 33.988 42.3788 33.5961 42.2463 33.1848C41.8806 31.926 41.461 30.6835 40.9887 29.4607C40.8231 28.9924 40.6345 28.5434 40.4459 28.0945C40.1671 27.4183 39.8829 26.8046 39.6234 26.2232C39.4909 25.9582 39.3778 25.7172 39.2646 25.4716C39.1384 25.1952 39.0074 24.921 38.8718 24.6491C38.777 24.4467 38.6685 24.2572 38.593 24.0676L37.7843 22.5745C37.759 22.5293 37.7476 22.4776 37.7515 22.426C37.7554 22.3743 37.7744 22.325 37.8063 22.2841C37.8381 22.2432 37.8813 22.2127 37.9304 22.1963C37.9795 22.1798 38.0324 22.1783 38.0824 22.1918L43.1397 23.5626H43.1535C43.1627 23.5626 43.1682 23.5672 43.1719 23.5672L43.8389 23.7512L44.5712 23.9591L44.8407 24.0345V21.0289C44.8407 19.578 46.0036 18.4014 47.4397 18.4014C48.1583 18.4014 48.8105 18.6939 49.2788 19.1714C49.7462 19.6498 50.0397 20.3012 50.0397 21.0298V25.4909L50.5779 25.6418C50.622 25.6556 50.6636 25.6764 50.7011 25.7034C50.8336 25.8028 51.0231 25.949 51.2633 26.1284C51.4528 26.2793 51.6561 26.4642 51.9017 26.6528C52.3884 27.0457 52.9689 27.5508 53.6074 28.1322C53.7776 28.2794 53.9432 28.4303 54.095 28.5812C55.011 29.4241 55.886 30.3105 56.717 31.2372C56.9636 31.516 57.2046 31.7993 57.4503 32.0974C57.6959 32.4001 57.9563 32.6972 58.1826 32.9953C58.4807 33.3928 58.8017 33.804 59.0805 34.2336C59.213 34.437 59.3639 34.6449 59.4917 34.8482C59.8505 35.391 60.167 35.954 60.4697 36.5162C60.5976 36.7765 60.7301 37.0599 60.8432 37.3386C61.179 38.0903 61.4431 38.8566 61.6133 39.6212C61.6657 39.7868 61.7034 39.9662 61.7218 40.1272V40.1649C61.7789 40.3921 61.7982 40.6332 61.8166 40.8788C61.895 41.6669 61.8503 42.4624 61.6841 43.2368C61.611 43.5714 61.5179 43.9013 61.4053 44.2248C61.2922 44.5468 61.179 44.8817 61.0318 45.1982C60.747 45.8679 60.4073 46.5129 60.0161 47.1265C59.8883 47.3528 59.7374 47.5939 59.5856 47.8211C59.42 48.0622 59.2507 48.2894 59.0989 48.5111C58.891 48.7945 58.6693 49.0926 58.442 49.3575C58.2396 49.6363 58.0308 49.915 57.8045 50.1607C57.5008 50.5235 57.1888 50.8794 56.8688 51.2279C56.6793 51.4505 56.476 51.6778 56.2681 51.8811C56.0657 52.1074 55.8568 52.3107 55.6682 52.5002C55.3517 52.8167 55.0868 53.0624 54.8651 53.2657L54.3453 53.7432C54.2679 53.8103 54.1689 53.8473 54.0665 53.8471H50.0387V59.0129H55.1052C56.2353 59.0124 57.328 58.6082 58.1863 57.873C58.4843 57.6136 59.7834 56.4884 61.3198 54.792C61.3712 54.7346 61.4384 54.6937 61.513 54.6742L75.5071 50.628C75.5685 50.6109 75.633 50.6081 75.6956 50.62C75.7582 50.6319 75.8172 50.6581 75.8679 50.6966C75.9187 50.7351 75.9599 50.7848 75.9883 50.8419C76.0167 50.8989 76.0315 50.9618 76.0315 51.0255H76.0324Z" fill="white"/>
</svg>
