<svg width="54" height="54" viewBox="0 0 54 54" fill="none" xmlns="http://www.w3.org/2000/svg">
<rect width="53.6763" height="53.6763" fill="#2081E2"/>
<path d="M12.5445 28.9124L12.6582 28.7339L19.5045 18.0228C19.5273 17.9873 19.5592 17.9586 19.5969 17.9398C19.6346 17.9209 19.6767 17.9126 19.7187 17.9157C19.7608 17.9187 19.8012 17.9331 19.8358 17.9572C19.8703 17.9814 19.8977 18.0144 19.9151 18.0528C21.059 20.6163 22.046 23.8042 21.5838 25.7893C21.3864 26.6057 20.8458 27.7117 20.2373 28.7339C20.1583 28.8829 20.072 29.0287 19.9804 29.1693C19.9589 29.2011 19.9299 29.2272 19.8959 29.2451C19.8619 29.263 19.824 29.2722 19.7856 29.2719H12.7445C12.555 29.2719 12.4444 29.0666 12.5445 28.9124Z" fill="white"/>
<path d="M43.0626 30.9025V32.5975C43.0626 32.6954 43.0031 32.7817 42.9168 32.8196C42.3867 33.047 40.5722 33.8798 39.8179 34.9289C37.8923 37.6082 36.4215 41.4404 33.1331 41.4404H19.4152C14.5534 41.4404 10.6133 37.4872 10.6133 32.6085V32.4522C10.6133 32.3222 10.7186 32.2169 10.8486 32.2169H18.4961C18.6472 32.2169 18.7582 32.3574 18.7446 32.5064C18.6907 33.0119 18.7857 33.5222 19.0178 33.9745C19.2401 34.4243 19.5838 34.8029 20.01 35.0677C20.4362 35.3324 20.928 35.4727 21.4297 35.4726H25.2156V32.5169H21.4729C21.4291 32.5164 21.3862 32.5039 21.349 32.4809C21.3117 32.4578 21.2814 32.425 21.2614 32.386C21.2414 32.3471 21.2324 32.3034 21.2353 32.2597C21.2382 32.2159 21.253 32.1739 21.2781 32.1379C21.3192 32.0758 21.365 32.0116 21.4134 31.9379C21.9017 31.235 22.3567 30.5095 22.7768 29.7639C23.12 29.1638 23.4527 28.5226 23.7201 27.8793C23.7743 27.763 23.8175 27.644 23.8606 27.5277C23.9338 27.3224 24.0096 27.1303 24.0638 26.9381C24.1175 26.776 24.1612 26.6055 24.2044 26.446C24.3312 25.8996 24.3854 25.3211 24.3854 24.721C24.3854 24.4857 24.3749 24.2393 24.3528 24.004C24.3423 23.7471 24.3096 23.4902 24.277 23.2334C24.2519 23.003 24.2168 22.7738 24.1717 22.5464C24.1154 22.2008 24.0433 21.8579 23.9559 21.5189L23.9259 21.3894C23.8606 21.1541 23.8069 20.9298 23.7311 20.6945C23.5219 19.9743 23.2818 19.2633 23.0115 18.5637C22.9168 18.2957 22.8089 18.0389 22.701 17.782C22.5415 17.3951 22.3788 17.044 22.2304 16.7113C22.1546 16.5597 22.0898 16.4218 22.0251 16.2812C21.9529 16.1231 21.8779 15.9662 21.8003 15.8106C21.7461 15.6948 21.684 15.5864 21.6408 15.4779L21.1781 14.6236C21.1636 14.5977 21.1571 14.5682 21.1593 14.5386C21.1615 14.5091 21.1724 14.4808 21.1906 14.4574C21.2088 14.4341 21.2336 14.4166 21.2617 14.4072C21.2898 14.3978 21.32 14.3969 21.3487 14.4046L24.2423 15.1889H24.2502C24.2554 15.1889 24.2586 15.1916 24.2607 15.1916L24.6423 15.2968L25.0613 15.4158L25.2156 15.459V13.7392C25.2156 12.9091 25.8809 12.2358 26.7027 12.2358C27.1138 12.2358 27.487 12.4032 27.7549 12.6764C28.0223 12.9502 28.1903 13.3229 28.1903 13.7398V16.2923L28.4982 16.3786C28.5235 16.3865 28.5473 16.3984 28.5687 16.4139C28.6445 16.4707 28.753 16.5544 28.8904 16.6571C28.9988 16.7434 29.1151 16.8492 29.2557 16.9571C29.5341 17.1819 29.8663 17.4709 30.2316 17.8036C30.329 17.8878 30.4238 17.9741 30.5106 18.0604C31.0347 18.5428 31.5353 19.0499 32.0109 19.5802C32.1519 19.7397 32.2898 19.9018 32.4304 20.0723C32.5709 20.2455 32.7199 20.4155 32.8494 20.5861C33.02 20.8135 33.2037 21.0488 33.3632 21.2946C33.439 21.411 33.5253 21.5299 33.5985 21.6463C33.8038 21.9568 33.9848 22.279 34.158 22.6006C34.2312 22.7496 34.307 22.9117 34.3718 23.0712C34.5639 23.5013 34.715 23.9398 34.8123 24.3772C34.8424 24.472 34.8639 24.5746 34.8745 24.6667V24.6883C34.9071 24.8183 34.9182 24.9563 34.9287 25.0968C34.9735 25.5477 34.948 26.0029 34.8529 26.446C34.811 26.6374 34.7578 26.8262 34.6934 27.0113C34.6286 27.1956 34.5639 27.3872 34.4797 27.5682C34.3167 27.9514 34.1223 28.3205 33.8985 28.6716C33.8253 28.8011 33.739 28.939 33.6522 29.069C33.5574 29.2069 33.4606 29.3369 33.3737 29.4638C33.2547 29.6259 33.1279 29.7965 32.9978 29.9481C32.882 30.1076 32.7626 30.2671 32.6331 30.4076C32.4593 30.6153 32.2808 30.8189 32.0977 31.0183C31.9893 31.1457 31.8729 31.2757 31.754 31.392C31.6382 31.5215 31.5187 31.6378 31.4108 31.7463C31.2297 31.9274 31.0781 32.0679 30.9512 32.1842L30.6538 32.4574C30.6096 32.4959 30.5529 32.517 30.4943 32.5169H28.1897V35.4726H31.0886C31.7352 35.4724 32.3604 35.241 32.8515 34.8204C33.0221 34.672 33.7653 34.0282 34.6444 33.0575C34.6739 33.0247 34.7123 33.0013 34.755 32.9902L42.762 30.6751C42.7971 30.6652 42.834 30.6637 42.8698 30.6705C42.9057 30.6773 42.9394 30.6923 42.9685 30.7143C42.9975 30.7363 43.0211 30.7648 43.0373 30.7974C43.0536 30.83 43.062 30.866 43.0621 30.9025H43.0626Z" fill="white"/>
</svg>
