<svg width="92" height="92" viewBox="0 0 92 92" fill="none" xmlns="http://www.w3.org/2000/svg">
<path d="M73.6 0H18.4C8.23796 0 0 8.23796 0 18.4V73.6C0 83.762 8.23796 92 18.4 92H73.6C83.762 92 92 83.762 92 73.6V18.4C92 8.23796 83.762 0 73.6 0Z" fill="#FEDA03"/>
<path d="M63.4815 45.6627C66.3795 44.9097 68.9578 42.7422 68.9578 38.3839C68.9578 31.1281 62.797 29.4395 54.9023 29.4395H23.4599V62.1142H36.6939V51.025H52.3923C54.811 51.025 56.2257 51.9831 56.2257 54.3563V62.1142H69.4599V53.9455C69.4599 49.4961 66.9499 46.6895 63.4815 45.6627ZM52.6204 42.2173H36.6939V39.0229H52.6204C54.3546 39.0229 55.4041 39.251 55.4041 40.6202C55.4041 41.9892 54.3546 42.2173 52.6204 42.2173Z" fill="black"/>
</svg>
