<svg width="79" height="79" viewBox="0 0 79 79" fill="none" xmlns="http://www.w3.org/2000/svg">
<path d="M3.91882 0V31.3497H74.4558V0H3.91882ZM19.5937 15.6749H58.7809V19.5936H19.5937V15.6749ZM19.5937 27.431V23.5123H58.7809V27.431H19.5937Z" fill="white"/>
<path d="M58.7808 23.5127H19.5936V27.4314H58.7808V23.5127Z" fill="#5A6988"/>
<path d="M58.7808 15.6748H19.5936V19.5935H58.7808V15.6748Z" fill="#5A6988"/>
<path d="M58.7809 31.3486V35.2674H19.5937V31.3486H3.91882V35.2674H7.83754V39.1861H11.7563V43.1048H15.675V47.0235H19.5937V50.9422H23.5124V54.8609H54.8622V50.9422H58.7809V47.0235H62.6996V43.1048H66.6183V39.1861H70.537V35.2674H74.4558V31.3486H58.7809ZM19.5937 43.1048V39.1861H58.7809V43.1048H19.5937Z" fill="white"/>
<path d="M58.7808 39.1875H19.5936V43.1062H58.7808V39.1875Z" fill="#8B9BB4"/>
<path d="M58.7808 31.3486H19.5936V35.2674H58.7808V31.3486Z" fill="#8B9BB4"/>
<path d="M74.4557 35.2674H70.5369V39.1861H66.6182V43.1048H62.6995V47.0235H58.7808V50.9422H54.8621V54.8609H58.7808V58.7797H62.6995V62.6984H66.6182V66.6171H70.5369V70.5358H74.4557V74.4545H70.5369V70.5358H66.6182V66.6171H62.6995V62.6984H58.7808V58.7797H54.8621V54.8609H23.5123V58.7797H19.5936V62.6984H15.6749V66.6171H11.7562V70.5358H7.83744V74.4545H3.91872V70.5358H7.83744V66.6171H11.7562V62.6984H15.6749V58.7797H19.5936V54.8609H23.5123V50.9422H19.5936V47.0235H15.6749V43.1048H11.7562V39.1861H7.83744V35.2674H3.91872V31.3486H0V78.3733H78.3744V31.3486H74.4557V35.2674Z" fill="#5B3BD3"/>
<path d="M74.4556 70.5361H70.5369V74.4549H74.4556V70.5361Z" fill="#40289C"/>
<path d="M7.83754 70.5361H3.91882V74.4549H7.83754V70.5361Z" fill="#40289C"/>
<path d="M70.5369 66.6191H66.6182V70.5379H70.5369V66.6191Z" fill="#40289C"/>
<path d="M11.7561 66.6191H7.8374V70.5379H11.7561V66.6191Z" fill="#40289C"/>
<path d="M66.6182 62.6992H62.6995V66.6179H66.6182V62.6992Z" fill="#40289C"/>
<path d="M15.6749 62.6992H11.7562V66.6179H15.6749V62.6992Z" fill="#40289C"/>
<path d="M62.6995 58.7803H58.7808V62.699H62.6995V58.7803Z" fill="#40289C"/>
<path d="M19.5935 58.7803H15.6748V62.699H19.5935V58.7803Z" fill="#40289C"/>
<path d="M58.7809 54.8623H54.8622V58.781H58.7809V54.8623Z" fill="#40289C"/>
<path d="M23.5123 54.8623H19.5936V58.781H23.5123V54.8623Z" fill="#40289C"/>
<path d="M3.91872 23.5127H0V31.3501H3.91872V23.5127Z" fill="#5B3BD3"/>
<path d="M78.3745 23.5127H74.4558V31.3501H78.3745V23.5127Z" fill="#5B3BD3"/>
</svg>
